<svg width="36" height="30" viewBox="0 0 36 30" fill="none" xmlns="http://www.w3.org/2000/svg">
<path d="M25.71 14.2102L19.71 20.2102C19.6168 20.3034 19.5061 20.3774 19.3842 20.4279C19.2624 20.4783 19.1319 20.5043 19 20.5043C18.8681 20.5043 18.7376 20.4783 18.6158 20.4279C18.4939 20.3774 18.3832 20.3034 18.29 20.2102C18.1968 20.117 18.1228 20.0063 18.0723 19.8845C18.0219 19.7626 17.9959 19.6321 17.9959 19.5002C17.9959 19.3683 18.0219 19.2378 18.0723 19.116C18.1228 18.9941 18.1968 18.8834 18.29 18.7902L22.59 14.5002H11C10.7348 14.5002 10.4804 14.3948 10.2929 14.2073C10.1054 14.0198 10 13.7654 10 13.5002C10 13.235 10.1054 12.9806 10.2929 12.7931C10.4804 12.6056 10.7348 12.5002 11 12.5002H22.59L18.29 8.21018C18.1017 8.02188 17.9959 7.76648 17.9959 7.50018C17.9959 7.23388 18.1017 6.97849 18.29 6.79018C18.4783 6.60188 18.7337 6.49609 19 6.49609C19.2663 6.49609 19.5217 6.60188 19.71 6.79018L25.71 12.7902C25.8037 12.8832 25.8781 12.9938 25.9289 13.1156C25.9797 13.2375 26.0058 13.3682 26.0058 13.5002C26.0058 13.6322 25.9797 13.7629 25.9289 13.8848C25.8781 14.0066 25.8037 14.1172 25.71 14.2102Z" fill="white"/>
</svg>
