<svg width="80" height="80" viewBox="0 0 80 80" fill="none" xmlns="http://www.w3.org/2000/svg">
<g clip-path="url(#clip0_122_2586)">
<path d="M70.5224 20.0149C69.5496 20.0141 68.5825 20.1629 67.6551 20.4561C67.743 19.7571 67.7875 19.0531 67.7884 18.3486C67.6152 8.04336 59.1209 -0.170437 48.8154 0.00268719C41.2954 0.128989 34.5861 4.75718 31.7973 11.7423C26.404 8.39794 19.3207 10.0592 15.9765 15.4525C14.8878 17.2083 14.2926 19.2251 14.2536 21.2906C12.8017 20.4523 11.1541 20.0121 9.47749 20.0149C4.3241 20.0149 0.146469 24.1925 0.146469 29.3459C0.146469 34.4993 4.3241 38.6769 9.47749 38.6769C10.2136 38.6769 10.8105 38.0801 10.8105 37.3439C10.8105 36.6078 10.2136 36.0109 9.47749 36.0109C5.7969 35.9511 2.8618 32.919 2.92161 29.2384C2.98143 25.5578 6.01351 22.6227 9.6941 22.6826C11.9345 22.7191 14.0067 23.8788 15.2094 25.7693C15.6126 26.3853 16.4388 26.5578 17.0548 26.1547C17.5871 25.8063 17.7991 25.1303 17.5608 24.5403C17.1411 23.5279 16.922 22.4436 16.9156 21.3477C16.9691 16.5169 20.9227 12.6411 25.7535 12.6832C27.9059 12.6917 29.9824 13.4797 31.5987 14.9013C32.1535 15.3852 32.9957 15.3276 33.4794 14.7727C33.6105 14.6224 33.7062 14.4444 33.7595 14.2522C36.1985 5.76492 45.056 0.861974 53.5431 3.30104C60.2817 5.23756 64.9727 11.3384 65.113 18.3485C65.1074 19.7458 64.9123 21.1359 64.5332 22.4808C64.3361 23.1901 64.7511 23.9249 65.4604 24.122C65.8442 24.2287 66.2556 24.1582 66.582 23.9298C67.7351 23.1166 69.1115 22.6804 70.5224 22.6807C74.2033 22.6807 77.1874 25.6648 77.1874 29.3457C77.1874 33.0267 74.2033 36.0108 70.5224 36.0108C69.7862 36.0108 69.1894 36.6076 69.1894 37.3438C69.1894 38.0799 69.7862 38.6768 70.5224 38.6768C75.6758 38.6768 79.8534 34.4991 79.8534 29.3457C79.8534 24.1925 75.6758 20.0149 70.5224 20.0149Z" fill="#5927E5"/>
<path d="M62.6576 50.674H17.3355C15.1269 50.674 13.3365 52.4643 13.3365 54.673V60.005C13.3365 62.2136 15.1269 64.004 17.3355 64.004H62.6576C64.8662 64.004 66.6566 62.2136 66.6566 60.005V54.673C66.6566 52.4643 64.8662 50.674 62.6576 50.674ZM63.9906 60.005C63.9906 60.7411 63.3938 61.338 62.6576 61.338H17.3355C16.5994 61.338 16.0025 60.7411 16.0025 60.005V54.673C16.0025 53.9368 16.5994 53.34 17.3355 53.34H62.6576C63.3938 53.34 63.9906 53.9368 63.9906 54.673V60.005Z" fill="#5927E5"/>
<path d="M58.9599 54.7555C57.5394 54.7644 56.3925 55.9183 56.3925 57.3387C56.3992 58.7691 57.5616 59.9243 58.9919 59.9221C60.4187 59.9133 61.5681 58.7496 61.5592 57.3227C61.5504 55.8961 60.3867 54.7467 58.9599 54.7555ZM58.9919 57.4229C58.9519 57.4229 58.9252 57.3789 58.9252 57.3389L58.9919 57.2563V57.4229Z" fill="#5927E5"/>
<path d="M45.062 56.006H19.7349C18.9988 56.006 18.4019 56.6028 18.4019 57.339C18.4019 58.0751 18.9988 58.672 19.7349 58.672H45.062C45.7982 58.672 46.395 58.0751 46.395 57.339C46.395 56.6028 45.7983 56.006 45.062 56.006Z" fill="#5927E5"/>
<path d="M53.2933 56.006H49.7475C49.0113 56.006 48.4145 56.6028 48.4145 57.339C48.4145 58.0751 49.0113 58.672 49.7475 58.672H53.2933C54.0294 58.672 54.6263 58.0751 54.6263 57.339C54.6263 56.6028 54.0296 56.006 53.2933 56.006Z" fill="#5927E5"/>
<path d="M62.6576 66.6699H17.3355C15.1269 66.6699 13.3365 68.4603 13.3365 70.6689V76.0009C13.3365 78.2096 15.1269 79.9999 17.3355 79.9999H62.6576C64.8662 79.9999 66.6566 78.2096 66.6566 76.0009V70.6689C66.6566 68.4603 64.8662 66.6699 62.6576 66.6699ZM63.9906 76.0009C63.9906 76.7371 63.3938 77.3339 62.6576 77.3339H17.3355C16.5994 77.3339 16.0025 76.7371 16.0025 76.0009V70.6689C16.0025 69.9328 16.5994 69.3359 17.3355 69.3359H62.6576C63.3938 69.3359 63.9906 69.9328 63.9906 70.6689V76.0009Z" fill="#5927E5"/>
<path d="M58.9599 70.7516C57.5394 70.7605 56.3925 71.9144 56.3925 73.3348C56.3992 74.7651 57.5616 75.9204 58.9919 75.9182C60.4187 75.9094 61.5681 74.7456 61.5592 73.3188C61.5504 71.8922 60.3867 70.7428 58.9599 70.7516ZM58.9919 73.419C58.9519 73.419 58.9252 73.375 58.9252 73.335L58.9919 73.2523V73.419Z" fill="#5927E5"/>
<path d="M45.062 72.002H19.7349C18.9988 72.002 18.4019 72.5988 18.4019 73.335C18.4019 74.0711 18.9988 74.668 19.7349 74.668H45.062C45.7982 74.668 46.395 74.0711 46.395 73.335C46.395 72.5988 45.7983 72.002 45.062 72.002Z" fill="#5927E5"/>
<path d="M53.2933 72.002H49.7475C49.0113 72.002 48.4145 72.5988 48.4145 73.335C48.4145 74.0711 49.0113 74.668 49.7475 74.668H53.2933C54.0294 74.668 54.6263 74.0711 54.6263 73.335C54.6263 72.5988 54.0296 72.002 53.2933 72.002Z" fill="#5927E5"/>
<path d="M62.6576 34.6779H17.3355C15.1269 34.6779 13.3365 36.4682 13.3365 38.6769V44.0089C13.3365 46.2175 15.1269 48.0079 17.3355 48.0079H62.6576C64.8662 48.0079 66.6566 46.2175 66.6566 44.0089V38.6769C66.6566 36.4682 64.8662 34.6779 62.6576 34.6779ZM63.9906 44.0089C63.9906 44.745 63.3938 45.3419 62.6576 45.3419H17.3355C16.5994 45.3419 16.0025 44.745 16.0025 44.0089V38.6769C16.0025 37.9407 16.5994 37.3439 17.3355 37.3439H62.6576C63.3938 37.3439 63.9906 37.9407 63.9906 38.6769V44.0089Z" fill="#5927E5"/>
<path d="M61.1407 40.9791C60.8838 39.5629 59.5276 38.6231 58.1114 38.8801C57.4404 39.0017 56.8439 39.3816 56.4499 39.938C56.0541 40.4965 55.8995 41.1905 56.0206 41.8642C56.2449 43.105 57.3245 44.0078 58.5853 44.009C58.731 44.0088 58.8763 43.9968 59.0199 43.973C59.7044 43.86 60.3144 43.4754 60.7115 42.9066C61.1085 42.3481 61.2633 41.6531 61.1407 40.9791ZM58.5173 41.4483L58.5773 41.343L58.584 41.5096C58.524 41.5096 58.52 41.4763 58.5173 41.4483Z" fill="#5927E5"/>
<path d="M44.7954 40.0099H19.4683C18.7322 40.0099 18.1353 40.6067 18.1353 41.3429C18.1353 42.079 18.7322 42.6759 19.4683 42.6759H44.7954C45.5316 42.6759 46.1284 42.079 46.1284 41.3429C46.1284 40.6067 45.5317 40.0099 44.7954 40.0099Z" fill="#5927E5"/>
<path d="M52.4415 40.0099H48.8957C48.1596 40.0099 47.5627 40.6067 47.5627 41.3429C47.5627 42.079 48.1596 42.6759 48.8957 42.6759H52.4415C53.1777 42.6759 53.7745 42.079 53.7745 41.3429C53.7745 40.6067 53.1778 40.0099 52.4415 40.0099Z" fill="#5927E5"/>
<path d="M34.274 21.7384L30.275 17.7394C29.7545 17.219 28.9107 17.219 28.3901 17.7394L24.3911 21.7384C23.8798 22.2679 23.8944 23.1119 24.424 23.6233C24.9405 24.1222 25.7595 24.1222 26.276 23.6233L27.9996 21.8997V30.6789C27.9996 31.415 28.5964 32.0119 29.3326 32.0119C30.0687 32.0119 30.6656 31.415 30.6656 30.6789V21.8997L32.3891 23.6233C32.9187 24.1346 33.7626 24.12 34.274 23.5905C34.7729 23.0739 34.7729 22.2549 34.274 21.7384Z" fill="#5927E5"/>
<path d="M55.5694 25.7375C55.0528 25.2386 54.2339 25.2386 53.7172 25.7375L51.9936 27.461V18.6819C51.9936 17.9457 51.3968 17.3489 50.6606 17.3489C49.9245 17.3489 49.3276 17.9457 49.3276 18.6819V27.461L47.604 25.7375C47.0745 25.2259 46.2307 25.2406 45.7192 25.7701C45.2203 26.2867 45.2203 27.1056 45.7192 27.6223L49.7182 31.6213C50.2387 32.1417 51.0825 32.1417 51.603 31.6213L55.602 27.6223C56.1136 27.0928 56.0989 26.2488 55.5694 25.7375Z" fill="#5927E5"/>
</g>
<defs>
<clipPath id="clip0_122_2586">
<rect width="80" height="80" fill="white"/>
</clipPath>
</defs>
</svg>
