<svg width="99" height="144" viewBox="0 0 99 144" fill="none" xmlns="http://www.w3.org/2000/svg">
<path d="M98.5976 49.235C98.5976 22.0244 76.5271 0 49.3368 0C22.1464 0 0.0759719 22.0589 0.0759719 49.235C0.0759719 49.235 -2.13803 66.3151 17.338 94.1135C26.1247 106.63 49.3368 143.763 49.3368 143.763C49.3368 143.763 72.5835 106.63 81.3702 94.1135C100.812 66.3151 98.5976 49.235 98.5976 49.235Z" fill="#2DA9CE"/>
<path d="M49.3367 85.9884C69.1681 85.9884 85.2446 69.9204 85.2446 50.0994C85.2446 30.2785 69.1681 14.2104 49.3367 14.2104C29.5054 14.2104 13.429 30.2785 13.429 50.0994C13.429 69.9204 29.5054 85.9884 49.3367 85.9884Z" fill="white"/>
<path d="M98.5976 49.2352C98.5976 43.9452 97.7673 38.8627 96.2106 34.0913C96.2798 35.1286 96.3836 36.1658 96.3836 37.2031C96.3836 69.0813 70.5424 94.909 38.6474 94.909C29.8953 94.909 21.5929 92.9036 14.1554 89.4115C15.124 90.9328 16.1618 92.5233 17.3034 94.1137C26.0901 106.63 49.3022 143.764 49.3022 143.764C49.3022 143.764 72.5488 106.63 81.3355 94.1137C100.812 66.3153 98.5976 49.2352 98.5976 49.2352Z" fill="#2DA9CE"/>
<circle cx="51" cy="50" r="10" fill="black"/>
</svg>
