<svg width="117" height="106" viewBox="0 0 117 106" fill="none" xmlns="http://www.w3.org/2000/svg">
<g clip-path="url(#clip0_122_2887)">
<path d="M39.815 13.347C40.9458 10.4036 42.5008 7.69369 44.8097 5.49778C54.0451 -3.42607 69.3117 -1.18343 75.5785 10.0298C80.2906 18.5332 85.2851 26.8496 90.1385 35.2595C98.243 49.2293 106.442 63.199 114.452 77.2155C121.19 88.9426 113.887 103.753 100.505 105.763C92.306 106.977 84.6255 103.239 80.3848 95.9509C73.2697 83.6631 66.1076 71.3754 58.9926 59.1342C58.8512 58.8539 58.6628 58.6203 58.4742 58.3868C57.7204 57.7794 57.3905 56.8916 56.9193 56.0973C53.7623 50.5843 50.5111 45.1177 47.354 39.6513C45.328 36.1004 43.2075 32.5964 41.1814 29.0455C39.3438 25.8684 38.4956 22.411 38.5898 18.7667C38.7313 16.8979 38.9668 15.029 39.815 13.347Z" fill="#3C8BD9"/>
<path d="M39.8145 13.3472C39.3904 15.0291 39.0135 16.7112 38.9192 18.4865C38.7779 22.4112 39.7674 26.0555 41.7464 29.4661C46.9295 38.2966 52.1127 47.1736 57.2487 56.0508C57.7199 56.845 58.0968 57.6393 58.5679 58.3869C55.7408 63.2459 52.9137 68.0583 50.0394 72.9174C46.0813 79.692 42.1234 86.5134 38.1182 93.288C37.9298 93.288 37.8827 93.1946 37.8355 93.0543C37.7884 92.6806 37.9298 92.3535 38.024 91.9798C39.9558 84.9715 38.3538 78.7575 33.5005 73.4313C30.532 70.2074 26.7625 68.3853 22.4274 67.7779C16.7731 66.9836 11.7785 68.4321 7.30214 71.9361C6.5011 72.5435 5.98279 73.4313 5.0404 73.8985C4.85193 73.8985 4.75769 73.805 4.71057 73.6648C6.9723 69.787 9.18692 65.9091 11.4486 62.0312C20.7783 45.9588 30.1079 29.8867 39.4846 13.8611C39.5788 13.6742 39.7203 13.534 39.8145 13.3472Z" fill="#FABC04"/>
<path d="M4.89937 73.805C5.79465 73.0108 6.64279 72.1697 7.58517 71.4223C19.0351 62.4517 36.2338 68.946 38.7311 83.1494C39.3436 86.56 39.0139 89.8305 37.9771 93.1011C37.93 93.3814 37.8829 93.6151 37.7887 93.8953C37.3646 94.643 36.9877 95.4372 36.5165 96.1848C32.3228 103.053 26.1503 106.463 18.0457 105.95C8.76316 105.295 1.45966 98.3807 0.187434 89.2232C-0.425117 84.7846 0.47015 80.6264 2.77899 76.7953C3.2502 75.9542 3.81563 75.2066 4.33394 74.3658C4.56953 74.1787 4.4753 73.805 4.89937 73.805Z" fill="#34A852"/>
</g>
<defs>
<clipPath id="clip0_122_2887">
<rect width="117" height="106" fill="white"/>
</clipPath>
</defs>
</svg>
