<svg width="72" height="105" viewBox="0 0 72 105" fill="none" xmlns="http://www.w3.org/2000/svg">
<path d="M71.4886 35.698C71.4886 15.9688 55.4863 0 35.7718 0C16.0574 0 0.0550837 15.9939 0.0550837 35.698C0.0550837 35.698 -1.55019 48.082 12.571 68.2374C18.9418 77.3123 35.7718 104.236 35.7718 104.236C35.7718 104.236 52.6269 77.3123 58.9978 68.2374C73.0938 48.082 71.4886 35.698 71.4886 35.698Z" fill="#2DA9CE"/>
<path d="M35.7718 62.3461C50.1506 62.3461 61.8069 50.6959 61.8069 36.3247C61.8069 21.9534 50.1506 10.3032 35.7718 10.3032C21.393 10.3032 9.73669 21.9534 9.73669 36.3247C9.73669 50.6959 21.393 62.3461 35.7718 62.3461Z" fill="white"/>
<path d="M71.4886 35.6984C71.4886 31.8629 70.8866 28.1778 69.7579 24.7183C69.8081 25.4703 69.8833 26.2224 69.8833 26.9745C69.8833 50.0879 51.1471 68.8143 28.0215 68.8143C21.6757 68.8143 15.6561 67.3604 10.2634 64.8284C10.9657 65.9314 11.7182 67.0846 12.5459 68.2378C18.9167 77.3127 35.7467 104.237 35.7467 104.237C35.7467 104.237 52.6018 77.3127 58.9727 68.2378C73.0938 48.0824 71.4886 35.6984 71.4886 35.6984Z" fill="#2DA9CE"/>
<circle cx="36.9778" cy="36.2525" r="7.25054" fill="black"/>
</svg>
