<svg width="86" height="253" viewBox="0 0 86 253" fill="none" xmlns="http://www.w3.org/2000/svg">
<path d="M2.57817 252.681C2.19764 252.681 1.81713 252.542 1.50579 252.3C0.779327 251.713 0.710097 250.641 1.29818 249.915C2.37057 248.635 3.44299 247.322 4.51538 246.042C5.10347 245.316 6.17584 245.213 6.8677 245.835C7.59416 246.423 7.69793 247.495 7.07525 248.221C6.00286 249.5 4.93051 250.814 3.82353 252.093C3.51219 252.473 3.06247 252.681 2.57817 252.681Z" fill="white"/>
<path d="M12.1604 241.029C11.7799 241.029 11.434 240.925 11.1226 240.649C10.3962 240.061 10.2923 239.024 10.8458 238.297C12.956 235.635 15.0316 233.008 17.0381 230.414C17.5915 229.688 18.6639 229.55 19.3904 230.103C20.1168 230.656 20.2552 231.728 19.7017 232.454C17.6953 235.082 15.6197 237.744 13.475 240.407C13.129 240.787 12.6447 241.029 12.1604 241.029ZM24.4064 225.055C24.0605 225.055 23.7145 224.951 23.4032 224.744C22.6422 224.191 22.5038 223.154 23.0573 222.393C25.0637 219.662 27.0355 216.965 28.9035 214.268C29.457 213.507 30.4949 213.334 31.2559 213.853C32.017 214.372 32.1899 215.443 31.671 216.204C29.7684 218.901 27.7965 221.632 25.7555 224.398C25.4096 224.813 24.9253 225.055 24.4064 225.055ZM35.9606 208.597C35.6492 208.597 35.3033 208.494 35.0266 208.321C34.2655 207.802 34.058 206.765 34.5769 206.004C36.4795 203.169 38.3129 200.403 40.0426 197.637C40.5615 196.842 41.5647 196.634 42.3604 197.119C43.156 197.603 43.3635 198.64 42.8792 199.435C41.115 202.236 39.2469 205.036 37.3443 207.871C37.0675 208.355 36.5141 208.597 35.9606 208.597ZM46.7537 191.656C46.4423 191.656 46.1656 191.587 45.8888 191.414C45.0932 190.93 44.8165 189.892 45.3008 189.097C47.0651 186.193 48.7255 183.288 50.3514 180.453C50.8011 179.658 51.8389 179.347 52.6346 179.831C53.4302 180.28 53.7415 181.318 53.2572 182.113C51.6313 184.983 49.9363 187.922 48.172 190.86C47.8953 191.344 47.3417 191.656 46.7537 191.656ZM56.6474 174.126C56.3706 174.126 56.1285 174.057 55.8517 173.919C55.0215 173.504 54.7101 172.466 55.1598 171.637C56.7511 168.629 58.2387 165.655 59.6916 162.716C60.1067 161.886 61.1099 161.541 61.9402 161.956C62.7704 162.371 63.1163 163.373 62.7012 164.203C61.2483 167.176 59.7262 170.184 58.1349 173.227C57.8235 173.78 57.2355 174.126 56.6474 174.126ZM65.434 156.043C65.1919 156.043 64.9844 156.009 64.7422 155.905C63.8774 155.525 63.4968 154.522 63.8774 153.692C65.2611 150.58 66.541 147.503 67.7518 144.495C68.0977 143.631 69.0664 143.216 69.9312 143.562C70.796 143.907 71.2111 144.876 70.8652 145.74C69.6544 148.817 68.3399 151.929 66.9216 155.075C66.6794 155.663 66.0913 156.043 65.434 156.043ZM72.9062 137.373C72.7332 137.373 72.5256 137.338 72.3527 137.269C71.4878 136.958 71.0036 135.99 71.3149 135.125C72.4565 131.91 73.4943 128.764 74.4283 125.652C74.705 124.753 75.6391 124.269 76.5385 124.545C77.4379 124.822 77.9222 125.755 77.6454 126.654C76.6768 129.801 75.6391 133.016 74.4629 136.266C74.2208 136.923 73.598 137.373 72.9062 137.373ZM78.7524 118.114C78.6141 118.114 78.4757 118.114 78.3373 118.08C77.4379 117.838 76.8844 116.939 77.1266 116.04C77.9568 112.755 78.6833 109.471 79.3059 106.324C79.4789 105.425 80.3784 104.838 81.2778 105.01C82.1772 105.183 82.7999 106.082 82.5923 106.981C81.9697 110.197 81.2086 113.516 80.3783 116.87C80.1708 117.63 79.4789 118.114 78.7524 118.114ZM82.5923 98.4065C82.5232 98.4065 82.4539 98.4065 82.3502 98.4065C81.4161 98.2682 80.7934 97.4384 80.8972 96.5049C81.3469 93.1857 81.6929 89.8665 81.9004 86.6164C81.9696 85.6829 82.7998 85.0259 83.6993 85.0605C84.6333 85.1297 85.3252 85.9249 85.256 86.8584C85.0138 90.1777 84.6679 93.6006 84.2182 96.9544C84.149 97.7842 83.4226 98.4065 82.5923 98.4065ZM83.9414 78.353C83.0074 78.353 82.281 77.5923 82.2464 76.6933C82.2118 73.3396 82.0734 70.0203 81.7967 66.8049C81.7275 65.8713 82.3848 65.0761 83.3188 64.9724C84.2528 64.9032 85.0484 65.5602 85.1522 66.4937C85.429 69.8129 85.602 73.2358 85.6366 76.6588C85.602 77.5923 84.8754 78.353 83.9414 78.353ZM82.108 58.334C81.3123 58.334 80.6205 57.7808 80.4476 56.951C79.8249 53.6663 79.0638 50.4163 78.1644 47.3391C77.8877 46.4401 78.4065 45.5066 79.3059 45.23C80.2054 44.9534 81.1394 45.472 81.3816 46.371C82.3502 49.5519 83.1458 52.9057 83.7685 56.3286C83.9415 57.2276 83.3187 58.1265 82.4193 58.2994C82.3155 58.334 82.2118 58.334 82.108 58.334ZM76.331 39.1448C75.6737 39.1448 75.051 38.7644 74.7742 38.1421C73.4597 35.0995 71.9376 32.1606 70.2772 29.4292C69.7928 28.6339 70.0349 27.5967 70.8305 27.1126C71.6262 26.6286 72.664 26.8706 73.1483 27.6658C74.878 30.5356 76.4694 33.6127 77.8531 36.7937C78.2336 37.658 77.8185 38.6261 76.9883 39.0065C76.7807 39.0756 76.5731 39.1448 76.331 39.1448ZM65.8492 22.0646C65.3649 22.0646 64.9151 21.8572 64.5692 21.4769C62.4244 18.9529 60.1066 16.6364 57.6505 14.631C56.9241 14.0432 56.8203 12.9714 57.443 12.2453C58.0311 11.5192 59.1035 11.4155 59.7954 12.0379C62.3899 14.1815 64.8806 16.6364 67.1291 19.2986C67.7172 19.9901 67.6481 21.062 66.9216 21.6843C66.6103 21.9263 66.2297 22.0646 65.8492 22.0646ZM50.4205 9.341C50.1438 9.341 49.8671 9.27186 49.625 9.13356C46.7537 7.57768 43.7441 6.33297 40.6653 5.39944C39.7659 5.12284 39.2815 4.18931 39.5237 3.29035C39.8004 2.3914 40.6999 1.87278 41.6339 2.14938C44.9203 3.11748 48.1374 4.46591 51.2162 6.16009C52.0465 6.60957 52.3232 7.61225 51.8735 8.44205C51.5968 9.02983 51.0086 9.341 50.4205 9.341ZM21.2238 3.98186C20.3936 3.98186 19.6672 3.35951 19.5634 2.52971C19.425 1.59618 20.0822 0.766366 21.0163 0.628065C24.4756 0.144014 28.0041 0.0402877 31.3942 0.316889C32.3283 0.386039 33.0202 1.18127 32.951 2.1148C32.8818 3.04833 31.9824 3.73983 31.1522 3.67068C27.9696 3.42865 24.6832 3.53238 21.466 3.98186C21.3968 3.94728 21.3276 3.98186 21.2238 3.98186Z" fill="#A9A8AD"/>
<path d="M6.66019 8.30363C6.03751 8.30363 5.41482 7.95789 5.13807 7.33553C4.75755 6.50573 5.10345 5.50305 5.96828 5.08814C7.52497 4.36207 9.15091 3.70514 10.7768 3.11736C11.6762 2.80619 12.6102 3.25566 12.9216 4.15461C13.2329 5.01899 12.7832 5.98711 11.8838 6.29828C10.3617 6.85148 8.83953 7.43926 7.38661 8.13076C7.14446 8.23449 6.90234 8.30363 6.66019 8.30363Z" fill="white"/>
</svg>
