<svg width="281" height="151" viewBox="0 0 281 151" fill="none" xmlns="http://www.w3.org/2000/svg">
<path d="M2.31951 150.458C1.97358 150.458 1.62765 150.354 1.3509 150.147C0.589852 149.593 0.416884 148.556 0.970376 147.796C1.97358 146.413 2.94219 145.064 3.9454 143.681C4.49889 142.92 5.53672 142.748 6.29777 143.301C7.05882 143.854 7.23179 144.891 6.6783 145.652C5.70969 147 4.70646 148.349 3.73785 149.732C3.35732 150.216 2.83841 150.458 2.31951 150.458Z" fill="white"/>
<path d="M11.1754 138.391C10.8295 138.391 10.4836 138.287 10.1722 138.045C9.41118 137.492 9.27279 136.42 9.82628 135.694C11.8327 132.997 13.8391 130.37 15.8801 127.776C16.4336 127.05 17.506 126.912 18.2325 127.465C18.9589 128.018 19.0973 129.09 18.5438 129.816C16.5374 132.41 14.531 135.037 12.5245 137.699C12.1786 138.149 11.6943 138.391 11.1754 138.391ZM23.3523 122.659C22.9717 122.659 22.6258 122.556 22.3145 122.279C21.588 121.691 21.4842 120.654 22.0377 119.928C24.1479 117.3 26.2235 114.707 28.3337 112.183C28.9218 111.457 29.9941 111.353 30.686 111.976C31.4125 112.563 31.5163 113.635 30.9282 114.327C28.8526 116.851 26.777 119.409 24.6668 122.002C24.3209 122.452 23.8366 122.659 23.3523 122.659ZM36.0134 107.343C35.6329 107.343 35.2523 107.204 34.9064 106.928C34.2145 106.34 34.1107 105.268 34.7334 104.542C36.9128 101.983 39.1268 99.494 41.3062 97.0391C41.9289 96.3476 43.0013 96.2785 43.6931 96.9009C44.385 97.5232 44.4541 98.595 43.8315 99.2865C41.6521 101.707 39.5073 104.196 37.3279 106.755C36.9474 107.135 36.4977 107.343 36.0134 107.343ZM49.228 92.5098C48.8129 92.5098 48.3978 92.3715 48.0864 92.0603C47.3946 91.438 47.36 90.3661 47.9827 89.6746C50.2658 87.1852 52.549 84.7995 54.8322 82.4139C55.4894 81.7569 56.5618 81.7224 57.219 82.3793C57.8763 83.0362 57.9109 84.0735 57.2537 84.765C55.0051 87.1161 52.722 89.5018 50.4388 91.9566C50.1275 92.3024 49.6777 92.5098 49.228 92.5098ZM63.0653 78.1957C62.6156 78.1957 62.2005 78.0228 61.8546 77.7116C61.1973 77.0547 61.1973 75.9829 61.8546 75.326C64.2415 72.9403 66.6631 70.6237 69.05 68.3764C69.7073 67.754 70.7796 67.754 71.4369 68.4455C72.0596 69.137 72.0596 70.1743 71.3677 70.8312C69.0154 73.044 66.6285 75.3605 64.2415 77.7116C63.9302 78.0574 63.4804 78.1957 63.0653 78.1957ZM77.5253 64.5731C77.0756 64.5731 76.5913 64.4002 76.28 64.0199C75.6573 63.3284 75.7265 62.2566 76.4183 61.6342C78.9436 59.3868 81.4344 57.174 83.9597 55.0649C84.6861 54.4772 85.724 54.5463 86.3466 55.2724C86.9347 55.9639 86.8655 57.0357 86.139 57.6581C83.6483 59.7672 81.1922 61.9108 78.6669 64.1582C78.321 64.4348 77.9405 64.5731 77.5253 64.5731ZM92.7118 51.7457C92.2275 51.7457 91.7432 51.5383 91.3972 51.1234C90.8091 50.3973 90.9475 49.3255 91.674 48.7723C94.3377 46.6632 96.9667 44.6232 99.5958 42.6525C100.357 42.0993 101.395 42.2376 101.948 42.9982C102.502 43.7243 102.363 44.7961 101.602 45.3493C99.0077 47.2855 96.4133 49.2909 93.7842 51.4C93.4382 51.6074 93.0923 51.7457 92.7118 51.7457ZM108.659 39.8519C108.14 39.8519 107.587 39.6099 107.276 39.1258C106.757 38.3651 106.93 37.3279 107.691 36.7747C110.493 34.8385 113.26 32.9714 115.993 31.2081C116.789 30.6895 117.826 30.9315 118.311 31.7267C118.83 32.522 118.588 33.5592 117.792 34.0433C115.059 35.772 112.326 37.6045 109.593 39.5407C109.317 39.7481 108.971 39.8519 108.659 39.8519ZM125.368 29.1336C124.78 29.1336 124.226 28.8224 123.915 28.3038C123.431 27.5086 123.707 26.4713 124.503 25.9873C127.443 24.2585 130.349 22.6335 133.255 21.1122C134.085 20.6973 135.089 21.0084 135.538 21.8037C135.988 22.6335 135.677 23.6361 134.846 24.0856C132.01 25.6069 129.138 27.1974 126.233 28.8916C125.956 29.0299 125.679 29.1336 125.368 29.1336ZM266.578 20.4552C266.266 20.4552 265.955 20.3861 265.678 20.1786C262.945 18.4153 260.109 16.7903 257.203 15.3035C256.373 14.8886 256.061 13.8514 256.476 13.0561C256.891 12.2263 257.929 11.9152 258.725 12.3301C261.7 13.8514 264.675 15.5456 267.477 17.378C268.273 17.8967 268.48 18.9339 267.996 19.6946C267.685 20.1786 267.131 20.4552 266.578 20.4552ZM142.941 19.8329C142.319 19.8329 141.696 19.4871 141.419 18.8648C141.039 18.035 141.384 17.0323 142.215 16.6174C145.259 15.1652 148.372 13.8168 151.382 12.5721C152.247 12.2263 153.215 12.6412 153.561 13.471C153.907 14.3354 153.492 15.3035 152.662 15.6493C149.687 16.8594 146.643 18.2078 143.633 19.6254C143.426 19.7637 143.183 19.8329 142.941 19.8329ZM161.345 12.2955C160.653 12.2955 159.996 11.846 159.754 11.1545C159.442 10.2901 159.926 9.32204 160.791 9.01086C163.974 7.90446 167.191 6.90177 170.374 6.00282C171.273 5.76079 172.207 6.27942 172.449 7.17837C172.691 8.07733 172.172 9.01086 171.273 9.25289C168.16 10.1173 165.012 11.1199 161.898 12.2263C161.691 12.2609 161.518 12.2955 161.345 12.2955ZM248.9 11.3965C248.693 11.3965 248.485 11.362 248.278 11.2928C245.268 10.1173 242.155 9.04544 239.007 8.14649C238.107 7.90446 237.588 6.97092 237.865 6.07197C238.107 5.17302 239.041 4.6544 239.941 4.931C243.158 5.86453 246.41 6.97092 249.488 8.18105C250.353 8.52681 250.768 9.49491 250.422 10.3593C250.215 10.9816 249.592 11.3965 248.9 11.3965ZM180.44 6.90178C179.679 6.90178 178.953 6.34857 178.78 5.58792C178.572 4.68897 179.16 3.79001 180.06 3.58256C183.381 2.89105 186.702 2.26871 189.953 1.81923C190.887 1.68093 191.718 2.33786 191.856 3.23681C191.994 4.17034 191.337 5.00014 190.438 5.13844C187.255 5.58792 184.003 6.17569 180.752 6.8672C180.682 6.90177 180.579 6.90178 180.44 6.90178ZM229.839 5.86453C229.736 5.86453 229.632 5.86452 229.528 5.82994C226.346 5.20759 223.094 4.75812 219.842 4.41236C218.908 4.30864 218.251 3.51342 218.32 2.57989C218.424 1.64636 219.254 0.954847 220.153 1.05857C223.509 1.40432 226.864 1.88838 230.151 2.51074C231.05 2.68361 231.673 3.58256 231.5 4.48152C231.327 5.31132 230.635 5.86453 229.839 5.86453ZM200.124 4.13577C199.259 4.13577 198.498 3.44427 198.463 2.57989C198.394 1.64636 199.121 0.851129 200.02 0.781978C202.788 0.609103 205.555 0.505371 208.288 0.505371H210.087C211.021 0.505371 211.747 1.26603 211.747 2.19956C211.747 3.13309 211.021 3.85916 210.052 3.85916H208.288C205.624 3.85916 202.926 3.96289 200.228 4.13577C200.193 4.13577 200.158 4.13577 200.124 4.13577Z" fill="#A9A8AD"/>
<path d="M278.651 29.5829C278.27 29.5829 277.855 29.4446 277.544 29.168C276.298 28.0961 275.053 27.0243 273.738 25.9871C273.012 25.3993 272.873 24.362 273.462 23.6359C274.05 22.9099 275.122 22.8061 275.814 23.3593C277.163 24.4312 278.478 25.5376 279.757 26.644C280.449 27.2663 280.519 28.3382 279.896 29.0297C279.585 29.3754 279.1 29.5829 278.651 29.5829Z" fill="white"/>
</svg>
