<svg width="386" height="120" viewBox="0 0 386 120" fill="none" xmlns="http://www.w3.org/2000/svg">
<path d="M2.32892 81.5163C2.01758 81.5163 1.67163 81.4126 1.39489 81.2397C0.633836 80.7211 0.426259 79.6838 0.945158 78.8886C1.91377 77.471 2.88237 76.088 3.85098 74.705C4.40447 73.9444 5.4423 73.7715 6.20335 74.3247C6.9644 74.8779 7.13737 75.9152 6.58388 76.6758C5.61527 78.0242 4.64665 79.4073 3.71263 80.7903C3.40129 81.2397 2.88241 81.5163 2.32892 81.5163Z" fill="white"/>
<path d="M373.895 107.966C373.445 107.966 372.996 107.793 372.65 107.413C370.47 105.027 368.187 102.607 365.766 100.187C365.109 99.5298 365.109 98.4579 365.766 97.801C366.423 97.1441 367.495 97.1441 368.153 97.801C370.609 100.256 372.927 102.711 375.141 105.131C375.763 105.822 375.729 106.894 375.037 107.517C374.725 107.793 374.31 107.966 373.895 107.966ZM359.712 93.652C359.297 93.652 358.882 93.5137 358.57 93.2025C356.183 90.9897 353.693 88.7423 351.133 86.5295C350.441 85.9072 350.337 84.8699 350.96 84.1438C351.583 83.4523 352.62 83.3832 353.347 83.971C355.941 86.2184 358.467 88.4657 360.888 90.7477C361.58 91.37 361.615 92.4419 360.992 93.1334C360.611 93.4791 360.162 93.652 359.712 93.652ZM344.526 80.4789C344.145 80.4789 343.764 80.3406 343.453 80.0986C340.893 78.024 338.264 75.9495 335.566 73.9096C334.839 73.3564 334.701 72.2846 335.254 71.5585C335.808 70.8324 336.88 70.6941 337.607 71.2473C340.34 73.3218 342.969 75.3963 345.563 77.5054C346.29 78.0932 346.394 79.165 345.805 79.8565C345.494 80.2369 345.01 80.4789 344.526 80.4789ZM11.2885 69.3111C10.908 69.3111 10.5621 69.2074 10.2507 68.9654C9.52427 68.3776 9.38589 67.3403 9.97398 66.6142C12.0842 63.952 14.2635 61.3243 16.4429 58.8003C17.0656 58.1088 18.1034 58.0396 18.8298 58.6274C19.5217 59.2498 19.5909 60.287 19.0028 61.0131C16.8234 63.4679 14.6787 66.0611 12.6377 68.6888C12.2571 69.1037 11.7728 69.3111 11.2885 69.3111ZM328.509 68.2393C328.163 68.2393 327.817 68.1356 327.54 67.9281C324.842 65.9919 322.109 64.0903 319.307 62.1886C318.546 61.67 318.338 60.6328 318.857 59.8375C319.376 59.0769 320.414 58.8694 321.21 59.388C324.012 61.2897 326.779 63.2259 329.512 65.1967C330.273 65.7499 330.446 66.7871 329.893 67.5478C329.547 67.9973 329.028 68.2393 328.509 68.2393ZM311.869 56.9332C311.558 56.9332 311.247 56.8641 310.97 56.6566C308.168 54.8587 305.331 53.0954 302.46 51.3666C301.664 50.8826 301.422 49.8453 301.872 49.0501C302.356 48.2549 303.394 48.0128 304.19 48.4623C307.096 50.2256 309.967 51.989 312.769 53.8214C313.565 54.3401 313.772 55.3773 313.288 56.138C312.942 56.6566 312.423 56.9332 311.869 56.9332ZM24.5378 54.1672C24.1226 54.1672 23.7075 53.9943 23.3616 53.6832C22.7043 53.0262 22.6697 51.9544 23.327 51.2975C25.6793 48.8772 28.1354 46.4915 30.6262 44.2096C31.318 43.5872 32.3558 43.6218 33.0131 44.3133C33.6358 45.0048 33.6012 46.0766 32.9093 46.699C30.4878 48.9118 28.1008 51.2629 25.7485 53.6486C25.4026 54.0289 24.9529 54.1672 24.5378 54.1672ZM294.607 46.5261C294.331 46.5261 294.054 46.457 293.777 46.3187C290.871 44.659 287.965 43.0686 284.99 41.4781C284.16 41.0287 283.849 40.026 284.299 39.1962C284.748 38.3664 285.752 38.0898 286.582 38.5047C289.557 40.0951 292.532 41.7202 295.438 43.3798C296.233 43.8292 296.545 44.8665 296.06 45.6617C295.784 46.2149 295.195 46.5261 294.607 46.5261ZM39.3437 40.5792C38.8594 40.5792 38.3751 40.3717 38.0291 39.9568C37.441 39.2307 37.5448 38.1935 38.2713 37.6057C40.9004 35.4621 43.5986 33.3876 46.3315 31.4168C47.0925 30.8636 48.1304 31.0364 48.6839 31.7971C49.2373 32.5577 49.0644 33.595 48.3033 34.1482C45.6396 36.0844 42.976 38.1243 40.4161 40.1989C40.1047 40.4755 39.7242 40.5792 39.3437 40.5792ZM276.861 37.0179C276.619 37.0179 276.342 36.9488 276.1 36.8451C273.125 35.3583 270.115 33.9062 267.071 32.4886C266.241 32.1083 265.86 31.1056 266.276 30.2412C266.656 29.4114 267.659 29.0311 268.524 29.446C271.603 30.8636 274.612 32.3503 277.622 33.837C278.452 34.2519 278.798 35.2546 278.383 36.0844C278.072 36.6722 277.484 37.0179 276.861 37.0179ZM55.6717 28.8582C55.1182 28.8582 54.5647 28.5816 54.2534 28.063C53.7691 27.2678 53.9766 26.2305 54.7723 25.7464C57.6435 23.9485 60.5839 22.2198 63.5243 20.5948C64.3546 20.1453 65.3578 20.4565 65.8075 21.2517C66.2572 22.0815 65.9459 23.0842 65.1502 23.5336C62.2444 25.1241 59.3732 26.8183 56.5711 28.5816C56.2944 28.7545 55.9831 28.8582 55.6717 28.8582ZM258.596 28.5125C258.388 28.5125 258.146 28.4779 257.939 28.3742C254.86 27.0257 251.781 25.7465 248.668 24.5017C247.803 24.156 247.388 23.1879 247.734 22.3235C248.079 21.4591 249.048 21.0442 249.913 21.39C253.061 22.6347 256.174 23.9485 259.253 25.297C260.118 25.6773 260.498 26.6454 260.118 27.5098C259.876 28.1321 259.253 28.5125 258.596 28.5125ZM239.915 21.0097C239.708 21.0097 239.535 20.9751 239.327 20.9059C236.179 19.7649 233.031 18.6585 229.883 17.5867C229.019 17.3101 228.534 16.342 228.811 15.4431C229.088 14.5787 230.056 14.0946 230.956 14.3712C234.173 15.4431 237.356 16.5495 240.504 17.725C241.368 18.0362 241.818 19.0043 241.507 19.8687C241.23 20.5948 240.573 21.0097 239.915 21.0097ZM73.3143 19.2117C72.6916 19.2117 72.0689 18.866 71.7921 18.2436C71.4116 17.4138 71.7576 16.4112 72.6224 15.9963C75.6666 14.5787 78.8146 13.2302 81.9626 11.9855C82.8274 11.6398 83.796 12.0547 84.142 12.9191C84.4879 13.7835 84.0728 14.7516 83.2079 15.0973C80.1291 16.3074 77.0503 17.6213 74.0407 19.0389C73.7986 19.1772 73.5564 19.2117 73.3143 19.2117ZM220.785 14.6478C220.612 14.6478 220.474 14.6133 220.301 14.5787C217.118 13.6106 213.901 12.7116 210.65 11.8818C209.75 11.6398 209.197 10.7408 209.439 9.84189C209.681 8.94294 210.58 8.42431 211.48 8.63176C214.732 9.49614 217.983 10.3951 221.235 11.3632C222.135 11.6398 222.619 12.5733 222.377 13.4377C222.204 14.1638 221.512 14.6478 220.785 14.6478ZM92.0292 11.8472C91.3028 11.8472 90.6455 11.3978 90.4379 10.6717C90.1612 9.77274 90.6455 8.83921 91.5103 8.56261C94.7275 7.52535 98.0139 6.59183 101.266 5.72745C102.165 5.48542 103.064 6.03863 103.307 6.93758C103.549 7.83653 102.995 8.77006 102.096 8.97751C98.8787 9.80732 95.6615 10.7408 92.5135 11.7435C92.3752 11.8472 92.2022 11.8472 92.0292 11.8472ZM201.344 9.56529C201.206 9.56529 201.102 9.56529 200.963 9.53071C197.712 8.80464 194.46 8.11313 191.174 7.52536C190.274 7.35248 189.651 6.4881 189.824 5.55457C189.997 4.65562 190.862 4.03327 191.796 4.20614C195.117 4.82849 198.404 5.48542 201.69 6.24607C202.589 6.45352 203.177 7.35248 202.97 8.25143C202.797 9.04666 202.105 9.56529 201.344 9.56529ZM111.505 6.83385C110.71 6.83385 110.018 6.28065 109.845 5.48542C109.672 4.58647 110.26 3.68752 111.159 3.51464C114.446 2.85771 117.801 2.30451 121.191 1.85503C122.125 1.75131 122.956 2.37366 123.094 3.27261C123.232 4.20614 122.575 5.03595 121.676 5.17425C118.355 5.62372 115.068 6.17692 111.851 6.79928C111.747 6.83385 111.609 6.83385 111.505 6.83385ZM181.557 5.90032C181.487 5.90032 181.384 5.90032 181.314 5.90032C178.028 5.41627 174.707 5.00137 171.421 4.65562C170.487 4.5519 169.83 3.72209 169.933 2.82314C170.037 1.88961 170.902 1.26725 171.767 1.33641C175.122 1.68216 178.478 2.09706 181.799 2.61569C182.733 2.75399 183.355 3.61836 183.217 4.51732C183.113 5.27797 182.387 5.90032 181.557 5.90032ZM131.431 4.06784C130.566 4.06784 129.84 3.41091 129.77 2.51196C129.701 1.57843 130.393 0.783201 131.293 0.679476C134.614 0.402875 138.038 0.195424 141.428 0.0916982C142.259 0.126273 143.123 0.783205 143.158 1.71673C143.193 2.65026 142.466 3.41092 141.532 3.44549C138.211 3.54922 134.856 3.75667 131.569 4.03327C131.535 4.06784 131.5 4.06784 131.431 4.06784ZM161.596 3.79124C161.562 3.79124 161.527 3.79124 161.493 3.79124C158.172 3.58379 154.851 3.44549 151.53 3.41091C150.596 3.41091 149.869 2.61569 149.869 1.71673C149.869 0.783205 150.561 0.0571289 151.564 0.0571289C154.92 0.126279 158.31 0.23 161.665 0.437451C162.6 0.506601 163.291 1.30183 163.257 2.23536C163.222 3.09974 162.461 3.79124 161.596 3.79124Z" fill="#A9A8AD"/>
<path d="M383.651 119.583C383.132 119.583 382.647 119.341 382.301 118.926C381.298 117.647 380.295 116.333 379.223 115.019C378.634 114.293 378.738 113.256 379.465 112.668C380.191 112.081 381.264 112.184 381.817 112.91C382.924 114.259 383.962 115.573 384.965 116.921C385.519 117.647 385.38 118.719 384.654 119.272C384.342 119.48 383.996 119.583 383.651 119.583Z" fill="white"/>
</svg>
