<svg width="747" height="147" viewBox="0 0 747 147" fill="none" xmlns="http://www.w3.org/2000/svg">
<path d="M744.578 146.681C744.302 146.681 744.059 146.612 743.817 146.508L739.32 144.226C738.49 143.811 738.144 142.774 738.594 141.979C739.009 141.149 740.047 140.838 740.842 141.253L745.339 143.569C746.17 143.984 746.481 145.021 746.066 145.817C745.754 146.37 745.166 146.681 744.578 146.681Z" fill="white"/>
<path d="M731.052 139.835C730.81 139.835 730.533 139.766 730.291 139.662C727.281 138.141 724.237 136.654 721.228 135.168C720.397 134.753 720.051 133.75 720.467 132.92C720.882 132.09 721.885 131.745 722.715 132.16C725.759 133.646 728.769 135.168 731.813 136.689C732.643 137.104 732.989 138.106 732.574 138.936C732.228 139.489 731.64 139.835 731.052 139.835ZM712.856 130.846C712.614 130.846 712.372 130.776 712.13 130.673C709.085 129.186 706.041 127.734 702.997 126.282C702.167 125.867 701.786 124.864 702.201 124.034C702.616 123.205 703.62 122.859 704.45 123.239C707.494 124.691 710.538 126.178 713.583 127.63C714.413 128.045 714.759 129.048 714.344 129.878C714.067 130.5 713.479 130.846 712.856 130.846ZM694.556 122.133C694.314 122.133 694.072 122.098 693.83 121.96C690.786 120.542 687.707 119.09 684.663 117.707C683.832 117.327 683.452 116.324 683.832 115.46C684.213 114.63 685.216 114.25 686.081 114.63C689.16 116.047 692.204 117.465 695.283 118.917C696.113 119.298 696.493 120.3 696.078 121.165C695.802 121.752 695.179 122.133 694.556 122.133ZM676.153 113.627C675.91 113.627 675.668 113.593 675.461 113.489C672.382 112.106 669.303 110.723 666.224 109.34C665.359 108.96 664.979 107.957 665.359 107.127C665.74 106.297 666.743 105.882 667.573 106.263C670.652 107.646 673.766 109.029 676.844 110.412C677.675 110.792 678.055 111.795 677.675 112.625C677.398 113.281 676.775 113.627 676.153 113.627ZM657.611 105.398C657.403 105.398 657.161 105.364 656.953 105.26C653.875 103.912 650.761 102.563 647.648 101.249C646.783 100.869 646.402 99.9009 646.748 99.0365C647.129 98.1721 648.097 97.7918 648.962 98.1376C652.076 99.4514 655.189 100.8 658.268 102.148C659.133 102.529 659.513 103.497 659.133 104.361C658.891 105.018 658.268 105.398 657.611 105.398ZM638.965 97.4461C638.757 97.4461 638.515 97.4115 638.308 97.3078C635.194 95.9939 632.081 94.7146 628.933 93.4353C628.068 93.0896 627.653 92.0869 628.033 91.2571C628.379 90.3927 629.383 89.9778 630.213 90.3582C633.326 91.6374 636.474 92.9513 639.588 94.2651C640.452 94.6109 640.833 95.6136 640.487 96.478C640.245 97.0312 639.622 97.4461 638.965 97.4461ZM620.215 89.7012C620.008 89.7012 619.8 89.6667 619.593 89.5629C616.445 88.2837 613.331 87.0389 610.183 85.7942C609.318 85.4485 608.903 84.4804 609.249 83.616C609.595 82.7516 610.564 82.3367 611.429 82.6825C614.577 83.9272 617.725 85.1719 620.873 86.4512C621.737 86.7969 622.152 87.765 621.807 88.6294C621.495 89.3209 620.873 89.7012 620.215 89.7012ZM601.327 82.2676C601.12 82.2676 600.912 82.233 600.705 82.1638C597.557 80.9537 594.409 79.7436 591.226 78.5335C590.361 78.1877 589.912 77.2196 590.258 76.3552C590.603 75.4909 591.572 75.0414 592.437 75.3871C595.619 76.5972 598.767 77.8074 601.915 79.0175C602.78 79.3633 603.23 80.3314 602.884 81.1957C602.642 81.8527 601.985 82.2676 601.327 82.2676ZM582.336 75.076C582.128 75.076 581.955 75.0414 581.748 74.9722C578.565 73.7967 575.417 72.6557 572.234 71.4801C571.37 71.169 570.92 70.2008 571.231 69.3365C571.543 68.4721 572.511 68.0226 573.376 68.3338C576.559 69.4748 579.741 70.6503 582.924 71.8259C583.789 72.1371 584.238 73.1052 583.927 73.9695C583.685 74.6611 583.027 75.076 582.336 75.076ZM563.24 68.1955C563.067 68.1955 562.86 68.1609 562.687 68.0918C559.504 66.9508 556.322 65.8444 553.104 64.7726C552.239 64.4614 551.755 63.5279 552.067 62.6289C552.378 61.7645 553.347 61.2805 554.211 61.5916C557.429 62.6981 560.611 63.8045 563.794 64.9454C564.658 65.2566 565.143 66.2247 564.831 67.0891C564.589 67.746 563.932 68.1955 563.24 68.1955ZM544.075 61.5916C543.903 61.5916 543.73 61.5571 543.557 61.4879C540.339 60.4161 537.157 59.3443 533.94 58.307C533.04 58.0304 532.59 57.0623 532.867 56.1979C533.144 55.299 534.113 54.8495 534.977 55.1261C538.195 56.1633 541.412 57.2352 544.629 58.307C545.494 58.6182 545.978 59.5517 545.701 60.4507C545.425 61.1422 544.767 61.5916 544.075 61.5916ZM524.772 55.2644C524.599 55.2644 524.427 55.2298 524.254 55.1953C521.036 54.158 517.819 53.1553 514.567 52.1527C513.668 51.876 513.184 50.9425 513.46 50.0436C513.737 49.1446 514.671 48.6606 515.571 48.9372C518.788 49.9398 522.04 50.9425 525.257 51.9798C526.156 52.2564 526.64 53.1899 526.364 54.0888C526.122 54.8149 525.464 55.2644 524.772 55.2644ZM505.366 49.2829C505.193 49.2829 505.054 49.2483 504.881 49.2137C501.63 48.2456 498.412 47.2776 495.161 46.344C494.261 46.0674 493.742 45.1339 494.019 44.2695C494.296 43.3705 495.195 42.8519 496.095 43.1285C499.346 44.0621 502.598 45.0302 505.85 46.0328C506.749 46.3094 507.234 47.243 506.991 48.1419C506.749 48.7988 506.092 49.2829 505.366 49.2829ZM485.855 43.578C485.717 43.578 485.544 43.5434 485.405 43.5089C482.154 42.5753 478.902 41.6764 475.65 40.7774C474.751 40.5354 474.232 39.6019 474.474 38.7029C474.716 37.8039 475.65 37.2853 476.549 37.5274C479.801 38.4263 483.088 39.3253 486.339 40.2588C487.239 40.5008 487.758 41.4343 487.516 42.3333C487.273 43.094 486.616 43.578 485.855 43.578ZM466.275 38.2189C466.137 38.2189 465.998 38.2189 465.86 38.1497C462.574 37.2853 459.322 36.421 456.036 35.5912C455.136 35.3491 454.583 34.4502 454.825 33.5512C455.067 32.6523 455.966 32.0991 456.866 32.3411C460.152 33.1709 463.439 34.0353 466.725 34.8996C467.624 35.1417 468.143 36.0406 467.936 36.9396C467.694 37.7348 467.036 38.2189 466.275 38.2189ZM446.592 33.2055C446.453 33.2055 446.315 33.2055 446.177 33.1709C442.89 32.3757 439.604 31.5804 436.317 30.7852C435.418 30.5778 434.865 29.6788 435.072 28.7453C435.28 27.8463 436.179 27.2585 437.113 27.5006C440.399 28.2958 443.72 29.091 447.007 29.8863C447.906 30.0937 448.46 31.0272 448.252 31.9262C448.045 32.6868 447.353 33.2055 446.592 33.2055ZM15.6633 32.998C14.9368 32.998 14.2796 32.5485 14.072 31.8225C13.7953 30.9235 14.2796 29.99 15.179 29.7134C18.3962 28.6761 21.6479 27.708 24.8997 26.7399C25.7991 26.4633 26.7332 26.9819 26.9753 27.8809C27.2521 28.7798 26.7332 29.7134 25.8337 29.99C22.6166 30.9581 19.3994 31.9262 16.1822 32.9634C15.9747 32.9634 15.8017 32.998 15.6633 32.998ZM426.839 28.5032C426.701 28.5032 426.597 28.5032 426.458 28.4687C423.172 27.708 419.851 26.9819 416.565 26.2559C415.665 26.0484 415.077 25.1494 415.285 24.2505C415.492 23.3515 416.392 22.7638 417.291 22.9712C420.612 23.6973 423.898 24.4234 427.219 25.184C428.119 25.3915 428.707 26.2904 428.499 27.1894C428.292 27.9846 427.6 28.5032 426.839 28.5032ZM35.0701 27.224C34.3437 27.224 33.6518 26.7399 33.4443 25.9793C33.2021 25.0803 33.721 24.1468 34.6204 23.9047C37.8722 23.0058 41.1586 22.1069 44.4449 21.2771C45.3443 21.035 46.2784 21.5882 46.4859 22.4872C46.7281 23.3861 46.1746 24.3197 45.2752 24.5271C42.0234 25.3915 38.7716 26.2559 35.5199 27.1548C35.3815 27.224 35.2085 27.224 35.0701 27.224ZM406.982 24.1814C406.879 24.1814 406.74 24.1813 406.636 24.1468C403.316 23.4553 399.995 22.7984 396.708 22.1414C395.809 21.9686 395.221 21.0696 395.394 20.1707C395.567 19.2717 396.431 18.6493 397.365 18.8568C400.686 19.5137 404.007 20.2052 407.328 20.8967C408.228 21.0696 408.816 21.9685 408.643 22.9021C408.435 23.6281 407.743 24.1814 406.982 24.1814ZM54.6845 22.1414C53.9235 22.1414 53.2316 21.6228 53.0586 20.8621C52.8511 19.9632 53.4046 19.0642 54.304 18.8222C57.5904 18.027 60.8767 17.2663 64.1977 16.5057C65.0971 16.2982 65.9965 16.886 66.2041 17.785C66.4116 18.6839 65.8236 19.5829 64.9241 19.7903C61.6378 20.5164 58.3514 21.3116 55.0996 22.0723C54.9267 22.1068 54.8229 22.1414 54.6845 22.1414ZM387.022 20.2398C386.918 20.2398 386.814 20.2398 386.711 20.2052C383.39 19.5829 380.069 18.9605 376.748 18.3727C375.848 18.1999 375.226 17.3355 375.399 16.4365C375.572 15.5376 376.437 14.9152 377.336 15.0881C380.657 15.6759 384.012 16.2982 387.333 16.9206C388.233 17.0935 388.856 17.9578 388.683 18.8914C388.544 19.652 387.818 20.2398 387.022 20.2398ZM74.4373 17.6812C73.6416 17.6812 72.9498 17.128 72.7768 16.3328C72.6038 15.4339 73.1573 14.5349 74.0913 14.362C77.4123 13.6705 80.7333 13.0136 84.0542 12.3912C84.9882 12.2184 85.8531 12.8061 86.026 13.7397C86.199 14.6386 85.6109 15.5376 84.6769 15.7105C81.3559 16.3328 78.0696 16.9897 74.7486 17.6812C74.6794 17.6812 74.5756 17.6812 74.4373 17.6812ZM367.027 16.6786C366.923 16.6786 366.854 16.6786 366.75 16.644C363.429 16.0908 360.074 15.5376 356.753 15.0189C355.819 14.8806 355.196 14.0163 355.369 13.0827C355.508 12.1492 356.372 11.5269 357.306 11.6997C360.662 12.2184 364.018 12.7716 367.339 13.3248C368.238 13.4631 368.861 14.362 368.722 15.261C368.549 16.0908 367.823 16.6786 367.027 16.6786ZM94.363 13.878C93.5673 13.878 92.8409 13.2902 92.7025 12.495C92.5296 11.596 93.1522 10.697 94.0862 10.5587C97.4072 9.97097 100.763 9.41778 104.118 8.89915C105.018 8.76085 105.883 9.38321 106.056 10.2822C106.194 11.2157 105.571 12.0455 104.672 12.2184C101.351 12.737 98.0299 13.2902 94.7089 13.878C94.536 13.878 94.4668 13.878 94.363 13.878ZM346.963 13.4977C346.894 13.4977 346.79 13.4976 346.721 13.4631C343.365 12.979 340.01 12.495 336.689 12.0455C335.755 11.9072 335.132 11.0774 335.236 10.1439C335.374 9.21033 336.205 8.58796 337.139 8.69169C340.494 9.14116 343.85 9.62523 347.205 10.1439C348.139 10.2822 348.762 11.1465 348.624 12.0455C348.485 12.8753 347.793 13.4977 346.963 13.4977ZM326.83 10.7316C326.761 10.7316 326.691 10.7316 326.622 10.7316C323.267 10.3167 319.911 9.90183 316.556 9.52151C315.622 9.41778 314.964 8.58798 315.068 7.65445C315.172 6.72092 316.037 6.09857 316.936 6.16772C320.292 6.54804 323.682 6.96294 327.037 7.37784C327.971 7.48157 328.629 8.34595 328.49 9.2449C328.386 10.1093 327.66 10.7316 326.83 10.7316ZM114.358 10.697C113.528 10.697 112.801 10.1093 112.697 9.2449C112.559 8.31137 113.216 7.48156 114.116 7.34326C117.471 6.85921 120.827 6.40973 124.182 5.99483C125.116 5.8911 125.947 6.51348 126.05 7.447C126.154 8.38053 125.532 9.21031 124.598 9.31404C121.242 9.72894 117.921 10.1784 114.565 10.6625C114.531 10.6971 114.462 10.697 114.358 10.697ZM306.627 8.38052C306.558 8.38052 306.524 8.38052 306.454 8.38052C303.099 8.03477 299.709 7.68902 296.353 7.37784C295.419 7.30869 294.762 6.47889 294.831 5.54536C294.9 4.61183 295.73 3.9549 296.664 4.02405C300.055 4.33522 303.41 4.68098 306.8 5.02673C307.734 5.13046 308.392 5.96025 308.288 6.85921C308.219 7.75816 307.492 8.38052 306.627 8.38052ZM134.457 8.1385C133.626 8.1385 132.865 7.51614 132.796 6.65177C132.692 5.71824 133.35 4.88843 134.284 4.7847C137.639 4.40438 140.995 4.05864 144.385 3.71288C145.319 3.60916 146.149 4.30064 146.218 5.23417C146.322 6.1677 145.63 6.99753 144.696 7.06668C141.341 7.41243 137.985 7.75817 134.63 8.1385C134.595 8.1385 134.526 8.1385 134.457 8.1385ZM286.39 6.51346C286.356 6.51346 286.286 6.51346 286.252 6.51346C282.862 6.23686 279.506 5.96026 276.151 5.7528C275.217 5.68365 274.525 4.88844 274.594 3.95491C274.663 3.02138 275.493 2.36444 276.393 2.39901C279.783 2.64104 283.173 2.88307 286.563 3.15967C287.497 3.22882 288.189 4.05864 288.085 4.95759C287.982 5.82197 287.255 6.51346 286.39 6.51346ZM154.659 6.16772C153.794 6.16772 153.068 5.5108 152.999 4.61184C152.929 3.67832 153.621 2.88307 154.521 2.77934C157.876 2.50274 161.266 2.22616 164.657 2.01871C165.591 1.94956 166.386 2.64105 166.455 3.57458C166.525 4.50811 165.833 5.30333 164.899 5.37248C161.543 5.6145 158.188 5.85653 154.832 6.13313C154.728 6.16771 154.694 6.16772 154.659 6.16772ZM266.119 5.06131C266.084 5.06131 266.049 5.06131 266.015 5.06131C262.625 4.85386 259.269 4.68097 255.879 4.5081C254.945 4.47352 254.219 3.67831 254.288 2.74478C254.322 1.81126 255.153 1.08518 256.052 1.15433C259.442 1.32721 262.832 1.50007 266.222 1.70752C267.156 1.77667 267.848 2.57191 267.814 3.47086C267.744 4.36981 266.983 5.06131 266.119 5.06131ZM174.862 4.7847C173.962 4.7847 173.236 4.09321 173.166 3.19425C173.132 2.26072 173.824 1.46549 174.758 1.43091C178.148 1.25804 181.503 1.08516 184.894 0.946863C185.793 0.843138 186.623 1.63837 186.658 2.5719C186.692 3.50543 185.966 4.30066 185.032 4.33524C181.642 4.47354 178.286 4.64641 174.931 4.81929C174.931 4.78471 174.896 4.7847 174.862 4.7847ZM245.812 4.12777C245.778 4.12777 245.778 4.12777 245.743 4.12777C242.353 4.02404 238.997 3.92034 235.607 3.85119C234.673 3.81661 233.947 3.05596 233.947 2.12243C233.981 1.1889 234.604 0.497389 235.677 0.462813C239.067 0.531964 242.457 0.635695 245.847 0.739421C246.781 0.773996 247.507 1.53465 247.473 2.46818C247.473 3.40171 246.712 4.12777 245.812 4.12777ZM195.133 3.92033C194.234 3.92033 193.473 3.19424 193.438 2.29529C193.404 1.36176 194.13 0.60111 195.064 0.566535C198.454 0.462809 201.81 0.393667 205.234 0.359092C206.168 0.393667 206.93 1.08518 206.93 2.01871C206.93 2.95224 206.203 3.71288 205.269 3.71288C201.879 3.78203 198.523 3.85118 195.168 3.92033C195.133 3.92033 195.133 3.92033 195.133 3.92033ZM225.506 3.64372C222.739 3.60914 219.971 3.60916 217.238 3.60916H215.405C214.471 3.60916 213.71 2.8485 213.71 1.94955C213.71 1.01602 214.471 0.255371 215.37 0.255371H217.238C220.006 0.255371 222.773 0.255378 225.541 0.289954C226.475 0.289954 227.201 1.0506 227.201 1.98413C227.201 2.91766 226.44 3.64372 225.506 3.64372Z" fill="#A9A8AD"/>
<path d="M2.37953 37.3888C1.68766 37.3888 1.03038 36.9393 0.788228 36.2478C0.476888 35.3835 0.961192 34.4154 1.82602 34.1042C3.41731 33.551 5.00862 32.9978 6.6345 32.4792C7.49933 32.168 8.46794 32.652 8.77928 33.551C9.05602 34.4154 8.60631 35.3835 7.70688 35.6946C6.11559 36.2133 4.52431 36.7665 2.93302 37.3197C2.72546 37.3543 2.55249 37.3888 2.37953 37.3888Z" fill="white"/>
</svg>
