<svg width="383" height="287" viewBox="0 0 383 287" fill="none" xmlns="http://www.w3.org/2000/svg">
<path d="M2.32898 9.51599C1.56793 9.51599 0.876057 8.99737 0.703091 8.23671C0.460938 7.33776 1.0144 6.43881 1.91382 6.19678C3.5743 5.78188 5.23481 5.40155 6.86069 5.02122C7.76011 4.81377 8.65955 5.40155 8.86711 6.3005C9.07466 7.19945 8.48654 8.09841 7.58712 8.30586C5.96123 8.65162 4.33539 9.06651 2.70951 9.44684C2.60573 9.48141 2.46735 9.51599 2.32898 9.51599Z" fill="white"/>
<path d="M372.684 273.601C372.131 273.601 371.612 273.324 371.266 272.84L365.8 264.507C365.282 263.747 365.489 262.675 366.285 262.191C367.08 261.672 368.118 261.914 368.602 262.675L374.068 271.008C374.587 271.768 374.345 272.84 373.584 273.324C373.342 273.497 372.996 273.601 372.684 273.601ZM361.718 256.935C361.165 256.935 360.646 256.659 360.3 256.175C358.536 253.513 356.668 250.747 354.765 247.877C354.246 247.116 354.454 246.044 355.215 245.526C355.976 245.007 357.014 245.215 357.533 245.975C359.435 248.845 361.303 251.611 363.068 254.273C363.586 255.034 363.379 256.106 362.583 256.59C362.376 256.832 362.03 256.935 361.718 256.935ZM350.579 240.374C350.026 240.374 349.507 240.132 349.196 239.648C347.362 236.951 345.494 234.22 343.557 231.419C343.038 230.658 343.211 229.621 343.972 229.068C344.733 228.549 345.771 228.722 346.324 229.483C348.262 232.283 350.13 235.015 351.963 237.712C352.482 238.472 352.274 239.51 351.513 240.063C351.271 240.27 350.925 240.374 350.579 240.374ZM339.267 223.951C338.748 223.951 338.23 223.709 337.884 223.225C336.016 220.562 334.078 217.831 332.141 215.1C331.588 214.339 331.761 213.302 332.522 212.748C333.283 212.195 334.321 212.368 334.874 213.129C336.846 215.895 338.783 218.592 340.651 221.289C341.17 222.049 340.997 223.086 340.236 223.64C339.925 223.847 339.579 223.951 339.267 223.951ZM327.644 207.735C327.125 207.735 326.606 207.493 326.295 207.044C324.358 204.381 322.386 201.719 320.414 199.022C319.861 198.261 320.034 197.224 320.76 196.671C321.521 196.118 322.559 196.291 323.112 197.017C325.119 199.714 327.091 202.41 329.028 205.073C329.581 205.833 329.408 206.871 328.647 207.424C328.336 207.631 327.99 207.735 327.644 207.735ZM315.779 191.727C315.26 191.727 314.775 191.485 314.429 191.07C312.458 188.442 310.451 185.814 308.376 183.152C307.822 182.426 307.96 181.354 308.687 180.801C309.413 180.248 310.486 180.386 311.039 181.112C313.08 183.774 315.121 186.402 317.093 189.064C317.647 189.791 317.508 190.862 316.747 191.416C316.505 191.623 316.125 191.727 315.779 191.727ZM303.602 175.926C303.117 175.926 302.599 175.719 302.287 175.269C300.246 172.676 298.171 170.083 296.095 167.49C295.507 166.764 295.611 165.692 296.337 165.139C297.064 164.551 298.101 164.654 298.689 165.381C300.8 167.974 302.875 170.601 304.916 173.194C305.504 173.921 305.366 174.992 304.64 175.546C304.328 175.822 303.982 175.926 303.602 175.926ZM291.114 160.402C290.629 160.402 290.145 160.194 289.799 159.779C287.689 157.221 285.579 154.697 283.434 152.138C282.846 151.412 282.915 150.375 283.641 149.753C284.368 149.165 285.406 149.234 286.028 149.96C288.173 152.519 290.318 155.077 292.428 157.636C293.016 158.362 292.912 159.399 292.186 159.987C291.875 160.263 291.494 160.402 291.114 160.402ZM278.245 145.154C277.761 145.154 277.311 144.947 276.965 144.566C274.82 142.077 272.641 139.587 270.427 137.098C269.804 136.407 269.873 135.335 270.565 134.712C271.257 134.09 272.329 134.159 272.952 134.851C275.166 137.34 277.345 139.864 279.525 142.353C280.147 143.045 280.044 144.117 279.352 144.739C279.04 145.016 278.625 145.154 278.245 145.154ZM265.03 130.252C264.58 130.252 264.131 130.079 263.785 129.699C261.571 127.244 259.322 124.824 257.039 122.404C256.416 121.712 256.451 120.675 257.108 120.018C257.8 119.396 258.838 119.43 259.495 120.087C261.778 122.542 264.027 124.962 266.276 127.417C266.898 128.109 266.864 129.18 266.172 129.803C265.826 130.079 265.445 130.252 265.03 130.252ZM251.4 115.696C250.951 115.696 250.536 115.523 250.19 115.177C247.907 112.792 245.589 110.441 243.236 108.09C242.579 107.433 242.579 106.361 243.236 105.704C243.894 105.047 244.966 105.047 245.623 105.704C247.976 108.055 250.293 110.441 252.611 112.826C253.268 113.483 253.234 114.555 252.577 115.212C252.231 115.523 251.816 115.696 251.4 115.696ZM237.321 101.555C236.906 101.555 236.491 101.382 236.145 101.071C233.758 98.7543 231.371 96.4723 228.949 94.1903C228.258 93.568 228.223 92.4962 228.88 91.8047C229.503 91.1132 230.575 91.1132 231.267 91.7355C233.689 94.0175 236.11 96.334 238.497 98.6505C239.154 99.3075 239.189 100.379 238.532 101.036C238.186 101.382 237.771 101.555 237.321 101.555ZM222.792 87.8977C222.377 87.8977 221.996 87.7594 221.65 87.4482C219.194 85.2354 216.738 83.0226 214.213 80.8443C213.521 80.222 213.452 79.1847 214.04 78.4587C214.662 77.7672 215.7 77.698 216.427 78.2858C218.952 80.464 221.408 82.6768 223.899 84.9242C224.591 85.5466 224.625 86.6184 224.003 87.3099C223.691 87.6902 223.242 87.8977 222.792 87.8977ZM207.778 74.7937C207.398 74.7937 207.017 74.6554 206.706 74.4134C204.181 72.3043 201.621 70.1952 199.026 68.1553C198.3 67.5675 198.196 66.5302 198.75 65.8042C199.338 65.0781 200.375 64.9744 201.102 65.5276C203.696 67.6021 206.256 69.7111 208.816 71.8548C209.543 72.4426 209.612 73.5144 209.024 74.2405C208.747 74.5862 208.263 74.7937 207.778 74.7937ZM192.246 62.3812C191.9 62.3812 191.52 62.2775 191.243 62.0355C188.614 60.0301 185.95 58.0593 183.286 56.1231C182.525 55.5699 182.352 54.5327 182.906 53.772C183.459 53.0114 184.497 52.8385 185.258 53.3917C187.956 55.3625 190.62 57.3332 193.284 59.3732C194.01 59.9264 194.149 60.9982 193.595 61.7243C193.249 62.1392 192.73 62.3812 192.246 62.3812ZM176.091 50.6603C175.78 50.6603 175.434 50.5565 175.157 50.3491C172.424 48.482 169.657 46.6495 166.889 44.8516C166.093 44.333 165.886 43.2958 166.405 42.5351C166.924 41.7399 167.962 41.5324 168.723 42.051C171.525 43.849 174.292 45.716 177.06 47.6176C177.821 48.1363 178.028 49.2081 177.509 49.9688C177.163 50.4182 176.644 50.6603 176.091 50.6603ZM159.348 39.8382C159.036 39.8382 158.76 39.7691 158.483 39.5962C155.646 37.8675 152.81 36.2079 149.938 34.5828C149.143 34.1333 148.831 33.0961 149.281 32.3009C149.731 31.5056 150.769 31.1945 151.564 31.6439C154.47 33.269 157.341 34.9631 160.213 36.6919C161.008 37.176 161.25 38.2132 160.766 39.0084C160.489 39.5616 159.936 39.8382 159.348 39.8382ZM142.017 30.0881C141.74 30.0881 141.498 30.0189 141.255 29.9152C138.315 28.3939 135.375 26.9071 132.4 25.5241C131.569 25.1092 131.189 24.1066 131.604 23.2768C132.019 22.4469 133.022 22.1012 133.853 22.4815C136.862 23.8991 139.837 25.3858 142.812 26.9417C143.642 27.3566 143.954 28.3939 143.539 29.2237C143.193 29.7423 142.605 30.0881 142.017 30.0881ZM123.993 21.548C123.786 21.548 123.544 21.5134 123.336 21.4097C120.292 20.0958 117.248 18.8511 114.169 17.7102C113.304 17.3644 112.854 16.3963 113.2 15.5319C113.546 14.6675 114.515 14.2526 115.38 14.5638C118.493 15.7394 121.607 17.0187 124.685 18.3325C125.55 18.7128 125.931 19.6809 125.55 20.5453C125.273 21.1677 124.651 21.548 123.993 21.548ZM105.417 14.4601C105.244 14.4601 105.071 14.4255 104.898 14.3909C101.75 13.3537 98.602 12.3856 95.454 11.4866C94.5546 11.2446 94.0357 10.3111 94.2778 9.41213C94.52 8.51318 95.454 7.99455 96.3534 8.23658C99.5706 9.13553 102.753 10.1382 105.936 11.1755C106.801 11.4521 107.285 12.4202 107.008 13.2845C106.766 14.0106 106.109 14.4601 105.417 14.4601ZM86.2522 9.06637C86.1138 9.06637 86.01 9.06638 85.8717 9.0318C82.6545 8.27115 79.4028 7.61422 76.2202 7.06102C75.3207 6.88815 74.698 6.02376 74.871 5.12481C75.0439 4.22586 75.9088 3.60351 76.8083 3.77638C80.06 4.36416 83.3464 5.02108 86.6327 5.78173C87.5322 5.98918 88.0856 6.88814 87.8781 7.7871C87.7051 8.54775 87.0133 9.06637 86.2522 9.06637ZM17.0311 6.43867C16.2354 6.43867 15.5089 5.85089 15.3706 5.02109C15.2322 4.08756 15.8549 3.22318 16.7543 3.08488C20.0753 2.53167 23.4308 2.08219 26.7172 1.77102C27.6512 1.66729 28.4814 2.3588 28.5506 3.25775C28.6544 4.19128 27.9625 5.02109 27.0631 5.09024C23.8113 5.43599 20.525 5.85088 17.2732 6.40409C17.2386 6.43866 17.1349 6.43867 17.0311 6.43867ZM66.6724 5.57429C66.6032 5.57429 66.534 5.57429 66.4648 5.57429C63.2131 5.15939 59.8921 4.84821 56.6404 4.64076C55.7064 4.57161 55.0145 3.77638 55.0837 2.84285C55.1529 1.90932 55.9485 1.21782 56.8825 1.28697C60.2034 1.52899 63.559 1.84018 66.8799 2.25508C67.814 2.35881 68.4712 3.22317 68.3329 4.12213C68.2291 4.95193 67.5026 5.57429 66.6724 5.57429ZM36.853 4.39874C35.9536 4.39874 35.2271 3.70724 35.1579 2.80828C35.1233 1.87475 35.8498 1.07952 36.7492 1.04494C39.4129 0.906643 42.042 0.87207 44.7057 0.87207H46.8159C47.7499 0.87207 48.4764 1.63272 48.4764 2.56624C48.4764 3.49977 47.7153 4.22586 46.7813 4.22586C46.7813 4.22586 46.7813 4.22586 46.7467 4.22586H44.6711C42.0766 4.22586 39.4821 4.29501 36.8876 4.39874C36.8876 4.39874 36.8876 4.39874 36.853 4.39874Z" fill="#A9A8AD"/>
<path d="M380.814 286.013C380.26 286.013 379.742 285.736 379.396 285.252L376.628 281.034C376.109 280.273 376.351 279.202 377.112 278.718C377.873 278.199 378.946 278.406 379.43 279.202L382.198 283.385C382.717 284.146 382.509 285.218 381.713 285.702C381.471 285.909 381.16 286.013 380.814 286.013Z" fill="white"/>
</svg>
