<svg width="38" height="38" viewBox="0 0 38 38" fill="none" xmlns="http://www.w3.org/2000/svg">
<path d="M12.9546 37.4241C10.997 37.4241 9.44244 35.8696 9.44244 33.912C9.44244 31.9544 10.997 30.3999 12.9546 30.3999C14.9121 30.3999 16.4667 31.9544 16.4667 33.912C16.4667 35.8696 14.9121 37.4241 12.9546 37.4241ZM12.9546 31.5514C11.6303 31.5514 10.594 32.5878 10.594 33.912C10.594 35.2363 11.6303 36.2726 12.9546 36.2726C14.2788 36.2726 15.3152 35.2363 15.3152 33.912C15.3152 32.5878 14.2788 31.5514 12.9546 31.5514Z" fill="white"/>
<path d="M26.8304 37.4241C24.8728 37.4241 23.3182 35.8696 23.3182 33.912C23.3182 31.9544 24.8728 30.3999 26.8304 30.3999C28.7879 30.3999 30.3425 31.9544 30.3425 33.912C30.3425 35.8696 28.7879 37.4241 26.8304 37.4241ZM26.8304 31.5514C25.5061 31.5514 24.4698 32.5878 24.4698 33.912C24.4698 35.2363 25.5061 36.2726 26.8304 36.2726C28.1546 36.2726 29.191 35.2363 29.191 33.912C29.191 32.5878 28.1546 31.5514 26.8304 31.5514Z" fill="white"/>
<path d="M31.2637 27.4637H9.61519C9.26973 27.4637 9.03943 27.2334 9.03943 26.8879C9.03943 26.5425 9.26973 26.3122 9.61519 26.3122H30.8031L32.9334 14.1061H26.4849C26.1394 14.1061 25.9091 13.8758 25.9091 13.5303C25.9091 13.1849 26.1394 12.9546 26.4849 12.9546H33.5667C33.7394 12.9546 33.9122 13.0122 34.0273 13.1849C34.1425 13.3 34.2 13.4728 34.1425 13.6455L31.8394 27.0031C31.7819 27.2334 31.5516 27.4637 31.2637 27.4637Z" fill="white"/>
<path d="M13.8182 14.1061H7.31215C6.96669 14.1061 6.73639 13.8758 6.73639 13.5303C6.73639 13.1849 6.96669 12.9546 7.31215 12.9546H13.8182C14.1637 12.9546 14.394 13.1849 14.394 13.5303C14.394 13.8758 14.1637 14.1061 13.8182 14.1061Z" fill="white"/>
<path d="M9.61519 27.4634C9.32731 27.4634 9.09701 27.2906 9.03943 27.0028L5.98792 9.96035C4.89398 9.55731 2.01519 8.57853 2.01519 8.57853C1.72731 8.46338 1.55458 8.1755 1.66974 7.83004C1.78489 7.48459 2.07277 7.36944 2.41822 7.48459C2.59095 7.54216 6.10307 8.75125 6.7364 8.98156C6.90913 9.03913 7.08186 9.21186 7.08186 9.44216L10.1909 26.83C10.2485 27.1179 10.0182 27.4634 9.73034 27.521C9.67277 27.4634 9.67277 27.4634 9.61519 27.4634Z" fill="white"/>
<path d="M32.8182 31.0909H7.4273C7.197 31.0909 7.02427 30.9757 6.90912 30.803C6.79397 30.6303 6.79397 30.4 6.90912 30.2272L9.097 26.6C9.26972 26.3121 9.61518 26.2545 9.90306 26.4272C10.1909 26.6 10.2485 26.9454 10.0758 27.2333L8.46366 29.9394H32.8182C33.1637 29.9394 33.394 30.1697 33.394 30.5151C33.394 30.8606 33.1637 31.0909 32.8182 31.0909Z" fill="white"/>
<path d="M23.4334 20.7275H16.7546C16.4091 20.7275 16.1788 20.4972 16.1788 20.1518V18.9427C16.1788 17.5609 15.6031 16.2366 14.6243 15.3154C14.1061 14.9124 13.7031 14.3942 13.3 13.8184C12.6091 12.7821 12.2061 11.6306 11.9758 10.3639C11.9182 9.96086 11.9182 9.61541 11.9182 9.26996C11.9182 4.72147 15.4879 1.0942 20.0364 1.03662C20.3243 1.03662 20.7273 1.03662 21.1303 1.0942C24.8152 1.5548 27.8667 4.54874 28.2697 8.29117C28.3273 9.09723 28.3273 9.78814 28.2122 10.4215C28.0394 11.7457 27.5788 12.8972 26.8879 13.876C26.5425 14.3942 26.1394 14.8548 25.6212 15.373C24.5273 16.3518 23.9515 17.6184 23.9515 19.0003V20.1518C24.0091 20.4972 23.7788 20.7275 23.4334 20.7275ZM17.3303 19.576H22.8576V19.0003C22.8576 17.3306 23.6061 15.7184 24.8728 14.5669C25.3334 14.1063 25.6788 13.7033 25.9667 13.2427C26.5425 12.379 26.9455 11.4003 27.0606 10.2487C27.1758 9.73056 27.1758 9.09723 27.1182 8.46389C26.7728 5.29723 24.1818 2.70632 20.9576 2.30329C20.6122 2.24571 20.3243 2.24571 20.0364 2.24571C16.1212 2.30329 13.0697 5.41238 13.0697 9.32753C13.0697 9.67299 13.0697 9.96086 13.1273 10.2487C13.3 11.3427 13.6455 12.379 14.2788 13.2427C14.5667 13.7033 14.9697 14.1639 15.3728 14.5094C16.5818 15.6033 17.2728 17.2154 17.2728 19.0003V19.576H17.3303Z" fill="white"/>
<path d="M20.0364 24.1818C17.9061 24.1818 16.1212 22.3969 16.1212 20.2666V20.2091C16.1212 19.8636 16.3515 19.6333 16.697 19.6333C17.0424 19.6333 17.2727 19.8636 17.2727 20.2091V20.2666C17.2727 21.7636 18.5394 23.0303 20.0364 23.0303C21.5333 23.0303 22.8 21.7636 22.8 20.2666V20.2091C22.8 19.8636 23.0303 19.6333 23.3758 19.6333C23.7212 19.6333 23.9515 19.8636 23.9515 20.2091V20.2666C23.9515 22.3969 22.1667 24.1818 20.0364 24.1818Z" fill="white"/>
<path d="M20.1516 2.18803C20.094 2.18803 20.094 2.18803 20.0364 2.18803C19.9788 2.18803 19.9788 2.18803 19.9213 2.13045C19.8637 2.13045 19.8637 2.13045 19.8061 2.07288L19.7485 2.0153C19.7485 2.0153 19.691 1.95772 19.691 1.90015C19.691 1.90015 19.6334 1.84257 19.6334 1.785C19.5758 1.785 19.5758 1.785 19.5758 1.72742C19.5758 1.66985 19.5758 1.66985 19.5758 1.61227C19.5758 1.55469 19.5758 1.43954 19.6334 1.38197C19.6334 1.32439 19.691 1.26682 19.7485 1.20924C19.9213 1.03651 20.1516 0.978937 20.3819 1.09409C20.4394 1.09409 20.497 1.15166 20.5546 1.20924C20.6122 1.26682 20.6697 1.32439 20.6697 1.38197C20.7273 1.43954 20.7273 1.55469 20.7273 1.61227V1.72742C20.7273 1.785 20.7273 1.785 20.6697 1.84257C20.6697 1.90015 20.6697 1.90015 20.6122 1.95772C20.6122 2.0153 20.5546 2.0153 20.5546 2.07288C20.4394 2.13045 20.3243 2.18803 20.1516 2.18803Z" fill="white"/>
<path d="M18.5394 20.6699C18.194 20.6699 17.9637 20.4396 17.9637 20.0941V10.3062C17.9637 9.96077 18.194 9.73047 18.5394 9.73047C18.8849 9.73047 19.1152 9.96077 19.1152 10.3062V20.0941C19.1152 20.4396 18.8849 20.6699 18.5394 20.6699Z" fill="white"/>
<path d="M21.7061 20.6699C21.3606 20.6699 21.1303 20.4396 21.1303 20.0941V10.3062C21.1303 9.96077 21.3606 9.73047 21.7061 9.73047C22.0515 9.73047 22.2818 9.96077 22.2818 10.3062V20.0941C22.2818 20.4396 22.0515 20.6699 21.7061 20.6699Z" fill="white"/>
<path d="M18.5394 10.8242C18.3667 10.8242 18.194 10.7091 18.0788 10.5939L16.9849 8.98179L15.7182 10.5939C15.5455 10.8242 15.1425 10.8818 14.9122 10.7091C14.6819 10.5363 14.6243 10.1333 14.797 9.903L16.5243 7.65755C16.6394 7.48482 16.8122 7.42725 16.9849 7.42725C17.1576 7.42725 17.3304 7.5424 17.4455 7.65755L19.0001 9.903C19.1728 10.1909 19.1152 10.5363 18.8273 10.7091C18.7698 10.7666 18.6546 10.8242 18.5394 10.8242Z" fill="white"/>
<path d="M21.8213 10.8242C21.6485 10.8242 21.4758 10.7091 21.3606 10.5939L20.2667 8.98179L19 10.5939C18.8273 10.8242 18.4243 10.8818 18.194 10.7091C17.9637 10.5363 17.9061 10.1333 18.0788 9.903L19.8061 7.65755C19.9213 7.48482 20.094 7.42725 20.2667 7.42725C20.4394 7.42725 20.6122 7.5424 20.7273 7.65755L22.2819 9.903C22.4546 10.1909 22.397 10.5363 22.1091 10.7091C22.0516 10.7666 21.9364 10.8242 21.8213 10.8242Z" fill="white"/>
<path d="M25.0455 10.8243C24.8728 10.8243 24.7001 10.7091 24.5849 10.594L23.5485 9.03941L22.3395 10.6515C22.1667 10.8818 21.7637 10.9394 21.5334 10.7667C21.3031 10.594 21.2455 10.1909 21.4182 9.96062L23.1455 7.71517C23.2607 7.54244 23.4334 7.48486 23.6061 7.48486C23.7788 7.48486 23.9516 7.60001 24.0667 7.71517L25.5637 9.96062C25.7364 10.2485 25.6788 10.594 25.391 10.7667C25.2758 10.7667 25.1607 10.8243 25.0455 10.8243Z" fill="white"/>
<path d="M34.6031 4.14538C33.6243 4.14538 32.8182 3.33932 32.8182 2.36053C32.8182 1.38174 33.6243 0.575684 34.6031 0.575684C35.5819 0.575684 36.3879 1.38174 36.3879 2.36053C36.3879 3.33932 35.5819 4.14538 34.6031 4.14538ZM34.6031 1.7272C34.2576 1.7272 33.9698 2.01508 33.9698 2.36053C33.9698 2.70599 34.2576 2.99387 34.6031 2.99387C34.9485 2.99387 35.2364 2.70599 35.2364 2.36053C35.2364 2.01508 34.9485 1.7272 34.6031 1.7272Z" fill="white"/>
<path d="M31.7243 7.65766C30.5728 7.65766 29.6516 6.73645 29.6516 5.58493C29.6516 4.43342 30.5728 3.51221 31.7243 3.51221C32.8758 3.51221 33.797 4.43342 33.797 5.58493C33.797 6.73645 32.8758 7.65766 31.7243 7.65766ZM31.7243 4.66372C31.2061 4.66372 30.8031 5.06675 30.8031 5.58493C30.8031 6.10312 31.2061 6.50615 31.7243 6.50615C32.2425 6.50615 32.6455 6.10312 32.6455 5.58493C32.6455 5.06675 32.2425 4.66372 31.7243 4.66372Z" fill="white"/>
</svg>
