<svg width="162" height="16" viewBox="0 0 162 16" fill="none" xmlns="http://www.w3.org/2000/svg">
<path d="M139.248 8.19055L158.835 8.19055L155.59 11.4195C155.228 11.7799 155.227 12.3655 155.587 12.7275C155.948 13.0896 156.533 13.091 156.895 12.7307L161.728 7.92122C161.728 7.92094 161.729 7.92062 161.729 7.92034C162.09 7.56 162.091 6.97251 161.729 6.61097C161.729 6.61069 161.728 6.61037 161.728 6.61009L156.895 1.80064C156.533 1.44039 155.948 1.44164 155.587 1.80378C155.227 2.16583 155.228 2.75143 155.59 3.11177L158.835 6.34076L139.248 6.34076C138.737 6.34076 138.323 6.75484 138.323 7.26566C138.323 7.77648 138.737 8.19055 139.248 8.19055Z" fill="#2F8EAA"/>
<path d="M22.7524 6.34461H3.1651L6.40981 3.11561C6.77186 2.75527 6.77325 2.16968 6.41291 1.80763C6.05257 1.44553 5.46693 1.44419 5.10488 1.80448L0.272122 6.61393C0.271798 6.61421 0.271567 6.61454 0.271289 6.61481C-0.089836 6.97515 -0.0909921 7.56265 0.271197 7.92419C0.27152 7.92446 0.271752 7.92479 0.272029 7.92506L5.10479 12.7345C5.46679 13.0948 6.05244 13.0935 6.41282 12.7314C6.77316 12.3693 6.77177 11.7837 6.40972 11.4234L3.1651 8.19439H22.7524C23.2632 8.19439 23.6773 7.78032 23.6773 7.2695C23.6773 6.75868 23.2632 6.34461 22.7524 6.34461Z" fill="#2F8EAA"/>
<circle cx="114" cy="8" r="8" fill="#D9D9D9"/>
<circle cx="81.0001" cy="8" r="8" fill="#D9D9D9"/>
<circle cx="48.0001" cy="8" r="8" fill="#D9D9D9"/>
</svg>
