<svg width="100" height="153" viewBox="0 0 100 153" fill="none" xmlns="http://www.w3.org/2000/svg">
<path d="M28.8286 144.658C28.8286 140.198 38.4109 136.567 50.2418 136.567C62.0727 136.567 71.655 140.198 71.655 144.658C71.655 149.118 62.0727 152.749 50.2418 152.749C38.4455 152.749 28.8286 149.118 28.8286 144.658Z" fill="url(#paint0_radial_213_2818)"/>
<path d="M99.5373 50.1295C99.5373 22.9189 77.4668 0.894531 50.2765 0.894531C23.0862 0.894531 1.01566 22.9535 1.01566 50.1295C1.01566 50.1295 -1.19829 67.2096 18.2777 95.008C27.0644 107.524 50.2765 144.658 50.2765 144.658C50.2765 144.658 73.5232 107.524 82.3099 95.008C101.751 67.2096 99.5373 50.1295 99.5373 50.1295Z" fill="#FF9514"/>
<path d="M50.2765 15.105C30.4545 15.105 14.3687 31.1824 14.3687 50.994C14.3687 70.8055 30.4545 86.883 50.2765 86.883C70.0984 86.883 86.1843 70.8055 86.1843 50.994C86.1843 31.1824 70.0984 15.105 50.2765 15.105Z" fill="white"/>
<path d="M99.5372 50.1297C99.5372 44.8398 98.707 39.7572 97.1503 34.9858C97.2195 36.0231 97.3233 37.0603 97.3233 38.0976C97.3233 69.9759 71.4821 95.8035 39.5871 95.8035C30.835 95.8035 22.5326 93.7981 15.0951 90.306C16.0637 91.8274 17.1015 93.4178 18.243 95.0083C27.0297 107.524 50.2418 144.658 50.2418 144.658C50.2418 144.658 73.4885 107.524 82.2752 95.0083C101.751 67.2099 99.5372 50.1297 99.5372 50.1297Z" fill="#E87900"/>
<path d="M15.4757 52.4462C15.4757 33.0841 31.181 17.3525 50.5878 17.3525C69.96 17.3525 85.7 33.0496 85.7 52.4462C85.7 56.941 84.8352 61.1937 83.2785 65.1699C85.1465 60.8134 86.1843 56.042 86.1843 51.0286C86.1843 31.2171 70.0984 15.1396 50.2765 15.1396C30.4545 15.1396 14.3687 31.2171 14.3687 51.0286C14.3687 61.2283 18.6236 70.3907 25.4731 76.9254C19.2809 70.5636 15.4757 61.9544 15.4757 52.4462Z" fill="#E87900"/>
<defs>
<radialGradient id="paint0_radial_213_2818" cx="0" cy="0" r="1" gradientUnits="userSpaceOnUse" gradientTransform="translate(50.2721 144.656) scale(21.4526 8.09109)">
<stop stop-color="#A09F9F"/>
<stop offset="0.1846" stop-color="#ABAAAA"/>
<stop offset="0.5094" stop-color="#C8C7C7"/>
<stop offset="0.9337" stop-color="#F7F7F7"/>
<stop offset="1" stop-color="white"/>
</radialGradient>
</defs>
</svg>
