<svg width="468" height="132" viewBox="0 0 468 132" fill="none" xmlns="http://www.w3.org/2000/svg">
<path d="M466.13 118.397C465.612 118.397 465.058 118.155 464.747 117.671C463.778 116.288 462.81 114.905 461.841 113.556C461.287 112.796 461.495 111.758 462.221 111.205C462.982 110.652 464.02 110.859 464.574 111.585C465.542 112.968 466.511 114.352 467.48 115.735C467.999 116.495 467.826 117.532 467.065 118.086C466.788 118.293 466.476 118.397 466.13 118.397Z" fill="white"/>
<path d="M12.6819 120.333C12.2668 120.333 11.8516 120.16 11.5057 119.849C10.8484 119.192 10.8138 118.155 11.4711 117.463C13.7543 115.078 16.1412 112.692 18.5973 110.306C19.2546 109.649 20.327 109.684 20.9843 110.341C21.6415 110.998 21.6069 112.07 20.9497 112.727C18.5281 115.078 16.1758 117.429 13.8927 119.814C13.5813 120.16 13.1316 120.333 12.6819 120.333ZM27.0381 106.296C26.5884 106.296 26.1387 106.123 25.7927 105.742C25.1701 105.051 25.2046 104.014 25.8965 103.357C28.3526 101.109 30.8434 98.8619 33.4033 96.6145C34.0951 95.9921 35.1675 96.0613 35.7902 96.7528C36.4129 97.4443 36.3437 98.5161 35.6518 99.1385C33.1265 101.351 30.6358 103.599 28.2143 105.811C27.8683 106.157 27.4532 106.296 27.0381 106.296ZM457.309 106.157C456.79 106.157 456.306 105.915 455.96 105.5C453.919 102.803 451.878 100.176 449.837 97.6172C449.249 96.8911 449.387 95.8193 450.114 95.2661C450.84 94.6783 451.913 94.782 452.466 95.5427C454.542 98.1358 456.617 100.798 458.658 103.495C459.212 104.221 459.073 105.293 458.312 105.846C458.001 106.054 457.655 106.157 457.309 106.157ZM42.1208 93.0878C41.6365 93.0878 41.1521 92.8804 40.8408 92.5001C40.2527 91.774 40.3565 90.7367 41.0484 90.1144C43.6083 87.9707 46.2028 85.8617 48.8664 83.7526C49.5929 83.1648 50.6653 83.3031 51.2188 84.0292C51.8069 84.7552 51.6685 85.8271 50.942 86.3803C48.3129 88.4548 45.7184 90.5639 43.1931 92.6729C42.8818 92.9495 42.5013 93.0878 42.1208 93.0878ZM444.752 90.5293C444.268 90.5293 443.818 90.3218 443.472 89.9415C441.292 87.3829 439.079 84.8935 436.865 82.4733C436.242 81.7818 436.276 80.7099 436.968 80.0876C437.66 79.4652 438.733 79.4998 439.355 80.1913C441.604 82.6461 443.818 85.1701 446.032 87.7633C446.62 88.4548 446.551 89.5266 445.859 90.149C445.547 90.391 445.167 90.5293 444.752 90.5293ZM57.8261 80.6062C57.3072 80.6062 56.8229 80.3642 56.477 79.9493C55.9235 79.2232 56.0618 78.1514 56.7883 77.5982C59.452 75.5928 62.1503 73.5875 64.8831 71.6167C65.6442 71.0635 66.682 71.2364 67.2355 71.997C67.789 72.7577 67.616 73.7949 66.8549 74.3481C64.1221 76.3189 61.4584 78.2897 58.8293 80.2951C58.5526 80.5025 58.2066 80.6062 57.8261 80.6062ZM431.26 75.7311C430.811 75.7311 430.396 75.5583 430.05 75.2125C427.697 72.7923 425.345 70.4757 422.958 68.1938C422.301 67.5368 422.266 66.4996 422.889 65.8081C423.546 65.1511 424.584 65.1166 425.276 65.7389C427.697 68.0209 430.084 70.4066 432.437 72.8268C433.094 73.4837 433.059 74.5556 432.402 75.2125C432.091 75.5583 431.676 75.7311 431.26 75.7311ZM74.1195 68.8853C73.566 68.8853 73.0471 68.6432 72.7358 68.1592C72.2169 67.3985 72.3899 66.3613 73.1855 65.8081C75.953 63.9064 78.7204 62.0739 81.5571 60.2069C82.3181 59.6883 83.3905 59.9303 83.8748 60.6909C84.3937 61.4862 84.1516 62.5234 83.3905 63.0075C80.5885 64.84 77.821 66.6724 75.0881 68.5741C74.7768 68.7815 74.4655 68.8853 74.1195 68.8853ZM416.766 61.9011C416.385 61.9011 415.97 61.7628 415.659 61.4862C413.134 59.2734 410.608 57.0951 408.083 55.0206C407.356 54.4328 407.253 53.361 407.841 52.6695C408.429 51.9434 409.501 51.8397 410.193 52.4275C412.753 54.5366 415.313 56.7148 417.873 58.9622C418.565 59.5845 418.634 60.6564 418.011 61.3479C417.665 61.6936 417.216 61.9011 416.766 61.9011ZM90.9319 57.9249C90.3784 57.9249 89.8249 57.6483 89.5135 57.1297C89.0292 56.3345 89.2714 55.2972 90.067 54.8132C92.9037 53.0498 95.7749 51.3211 98.6807 49.6269C99.4764 49.1429 100.514 49.4194 100.999 50.2147C101.483 51.0099 101.206 52.0472 100.41 52.5312C97.5392 54.2254 94.6679 55.9542 91.8659 57.6829C91.5545 57.8558 91.2432 57.9249 90.9319 57.9249ZM401.233 49.1774C400.888 49.1774 400.507 49.0737 400.23 48.8317C397.567 46.8263 394.868 44.8555 392.17 42.9885C391.409 42.4699 391.201 41.398 391.755 40.6374C392.274 39.8767 393.346 39.6693 394.107 40.2225C396.84 42.1241 399.573 44.0949 402.271 46.1348C402.998 46.688 403.171 47.7598 402.583 48.4859C402.271 48.9354 401.752 49.1774 401.233 49.1774ZM108.228 47.7944C107.64 47.7944 107.052 47.4833 106.741 46.93C106.291 46.1348 106.568 45.0976 107.398 44.6481C110.339 43.023 113.279 41.4326 116.254 39.8767C117.084 39.4618 118.088 39.773 118.537 40.6028C118.952 41.4326 118.641 42.4353 117.811 42.8848C114.836 44.4406 111.93 45.9965 109.024 47.6215C108.782 47.7253 108.505 47.7944 108.228 47.7944ZM126.044 38.4591C125.421 38.4591 124.833 38.1134 124.522 37.5256C124.107 36.6958 124.453 35.6931 125.283 35.2782C128.293 33.7915 131.337 32.3393 134.381 30.9218C135.211 30.5414 136.214 30.8872 136.63 31.7516C137.01 32.5814 136.664 33.584 135.799 33.9989C132.755 35.3819 129.746 36.8341 126.77 38.3208C126.528 38.4245 126.286 38.4591 126.044 38.4591ZM384.767 37.7676C384.456 37.7676 384.144 37.6985 383.868 37.491C381.031 35.6931 378.194 33.9989 375.323 32.3739C374.527 31.9244 374.251 30.8872 374.7 30.092C375.15 29.2967 376.188 29.0201 376.984 29.4696C379.889 31.1292 382.761 32.858 385.632 34.6559C386.428 35.1399 386.635 36.1772 386.151 36.9724C385.874 37.491 385.321 37.7676 384.767 37.7676ZM144.275 30.0574C143.617 30.0574 142.995 29.6771 142.718 29.0547C142.337 28.1903 142.753 27.2222 143.583 26.8419C146.662 25.528 149.775 24.2142 152.888 22.9695C153.753 22.6237 154.722 23.0386 155.068 23.903C155.414 24.7674 154.999 25.7355 154.134 26.0812C151.02 27.3259 147.942 28.6052 144.897 29.9191C144.724 30.0228 144.517 30.0574 144.275 30.0574ZM367.367 27.8446C367.125 27.8446 366.848 27.7754 366.606 27.6717C363.631 26.1504 360.656 24.6982 357.646 23.3152C356.816 22.9349 356.435 21.9322 356.816 21.1024C357.196 20.2726 358.199 19.8923 359.03 20.2726C362.074 21.6556 365.084 23.1424 368.128 24.6982C368.958 25.1131 369.269 26.1504 368.854 26.9456C368.577 27.4988 367.989 27.8446 367.367 27.8446ZM162.92 22.6237C162.229 22.6237 161.606 22.2088 161.329 21.5173C161.018 20.6529 161.468 19.6848 162.332 19.3737C165.48 18.2327 168.663 17.0917 171.846 16.0199C172.71 15.7087 173.679 16.1928 173.99 17.0917C174.267 17.9561 173.817 18.9242 172.918 19.2354C169.77 20.3072 166.622 21.379 163.509 22.5546C163.336 22.5891 163.128 22.6237 162.92 22.6237ZM349.136 19.4774C348.928 19.4774 348.721 19.4428 348.513 19.3391C345.435 18.0944 342.321 16.9188 339.208 15.847C338.343 15.5358 337.859 14.5677 338.17 13.7033C338.481 12.839 339.45 12.3895 340.315 12.6661C343.463 13.7725 346.645 14.9826 349.759 16.2273C350.624 16.5731 351.039 17.5412 350.693 18.4056C350.416 19.0971 349.793 19.4774 349.136 19.4774ZM181.947 16.2619C181.22 16.2619 180.563 15.7779 180.321 15.0518C180.044 14.1528 180.563 13.2193 181.462 12.9427C184.68 11.9746 187.897 11.0411 191.149 10.1767C192.048 9.93466 192.982 10.4533 193.224 11.3522C193.466 12.2512 192.947 13.1847 192.048 13.4267C188.831 14.2911 185.648 15.2246 182.466 16.1582C182.293 16.2273 182.12 16.2619 181.947 16.2619ZM330.214 12.839C330.041 12.839 329.902 12.8044 329.729 12.7698C326.547 11.8017 323.329 10.9373 320.147 10.1421C319.247 9.93465 318.694 9.00112 318.936 8.10217C319.178 7.20321 320.078 6.65002 320.977 6.89204C324.229 7.72184 327.515 8.6208 330.732 9.55433C331.632 9.83093 332.116 10.7645 331.874 11.6634C331.632 12.3895 330.94 12.839 330.214 12.839ZM201.319 11.0411C200.558 11.0411 199.866 10.5224 199.693 9.76178C199.486 8.86283 200.039 7.96388 200.938 7.72185C204.225 6.9612 207.511 6.23511 210.798 5.57818C211.697 5.40531 212.596 5.99309 212.769 6.89204C212.942 7.791 212.354 8.68995 211.455 8.86282C208.203 9.51975 204.951 10.2112 201.7 11.0065C201.596 11.0411 201.457 11.0411 201.319 11.0411ZM310.772 7.96388C310.668 7.96388 310.565 7.96387 310.426 7.92929C307.174 7.27237 303.888 6.68459 300.636 6.16597C299.702 6.02767 299.08 5.16328 299.218 4.22975C299.356 3.29623 300.221 2.67387 301.155 2.81218C304.476 3.3308 307.797 3.91858 311.118 4.61008C312.017 4.78296 312.606 5.68191 312.433 6.58086C312.26 7.44524 311.568 7.96388 310.772 7.96388ZM221.003 7.0995C220.207 7.0995 219.48 6.51172 219.342 5.68192C219.204 4.74839 219.826 3.88401 220.726 3.74571C224.047 3.1925 227.368 2.70845 230.689 2.25897C231.657 2.12067 232.453 2.77761 232.557 3.71114C232.66 4.64466 232.038 5.47446 231.104 5.57818C227.817 5.99308 224.531 6.47714 221.245 7.03035C221.176 7.0995 221.072 7.0995 221.003 7.0995ZM290.95 4.88668C290.881 4.88668 290.812 4.88668 290.777 4.88668C287.456 4.50635 284.17 4.22976 280.849 3.98773C279.915 3.91858 279.223 3.12335 279.292 2.18982C279.361 1.25629 280.192 0.599363 281.091 0.633938C284.447 0.875964 287.802 1.15257 291.158 1.5329C292.092 1.63662 292.749 2.46643 292.645 3.39996C292.507 4.26434 291.78 4.88668 290.95 4.88668ZM240.859 4.54093C239.994 4.54093 239.268 3.88401 239.199 3.01963C239.129 2.0861 239.787 1.29087 240.721 1.18714C244.076 0.875964 247.432 0.633941 250.787 0.461065C251.721 0.42649 252.517 1.11799 252.552 2.05152C252.586 2.98505 251.894 3.78028 250.96 3.81486C247.639 3.98773 244.318 4.22976 241.032 4.54093C240.963 4.54093 240.928 4.54093 240.859 4.54093ZM270.921 3.50368H270.886C267.565 3.39996 264.244 3.39995 260.923 3.43453C259.989 3.43453 259.228 2.70845 259.228 1.77492C259.228 0.841395 259.955 0.0807367 260.889 0.0807367C264.244 0.0461615 267.6 0.0461631 270.99 0.149889C271.924 0.184464 272.65 0.945116 272.616 1.87865C272.581 2.7776 271.855 3.50368 270.921 3.50368Z" fill="#A9A8AD"/>
<path d="M2.47688 131.397C2.09636 131.397 1.68124 131.259 1.3699 130.982C0.678033 130.36 0.608843 129.322 1.23152 128.596C2.33851 127.352 3.4455 126.072 4.62167 124.828C5.24435 124.136 6.31674 124.102 7.00861 124.724C7.70047 125.346 7.73506 126.418 7.11238 127.11C5.9708 128.354 4.86382 129.599 3.79143 130.844C3.4109 131.189 2.92659 131.397 2.47688 131.397Z" fill="white"/>
</svg>
