<svg width="817" height="422" viewBox="0 0 817 422" fill="none" xmlns="http://www.w3.org/2000/svg">
<path d="M361.982 143.763C361.982 139.303 371.564 135.673 383.395 135.673C395.226 135.673 404.808 139.303 404.808 143.763C404.808 148.224 395.226 151.854 383.395 151.854C371.564 151.854 361.982 148.258 361.982 143.763Z" fill="url(#paint0_radial_213_2826)"/>
<path d="M432.69 49.235C432.69 22.0244 410.62 0 383.43 0C356.239 0 334.169 22.0589 334.169 49.235C334.169 49.235 331.955 66.3151 351.431 94.1135C360.217 106.63 383.43 143.763 383.43 143.763C383.43 143.763 406.676 106.63 415.463 94.1135C434.904 66.3151 432.69 49.235 432.69 49.235Z" fill="#2DA9CE"/>
<path d="M383.43 85.9884C403.261 85.9884 419.337 69.9204 419.337 50.0994C419.337 30.2785 403.261 14.2104 383.43 14.2104C363.598 14.2104 347.522 30.2785 347.522 50.0994C347.522 69.9204 363.598 85.9884 383.43 85.9884Z" fill="white"/>
<path d="M432.69 49.2352C432.69 43.9452 431.86 38.8627 430.303 34.0913C430.373 35.1286 430.476 36.1658 430.476 37.2031C430.476 69.0813 404.635 94.909 372.74 94.909C363.988 94.909 355.686 92.9036 348.248 89.4115C349.217 90.9328 350.255 92.5233 351.396 94.1137C360.183 106.63 383.395 143.764 383.395 143.764C383.395 143.764 406.642 106.63 415.428 94.1137C434.904 66.3153 432.69 49.2352 432.69 49.2352Z" fill="#2DA9CE"/>
<path d="M742.889 413.763C742.889 409.303 752.471 405.673 764.302 405.673C776.133 405.673 785.715 409.303 785.715 413.763C785.715 418.224 776.133 421.854 764.302 421.854C752.471 421.854 742.889 418.258 742.889 413.763Z" fill="url(#paint1_radial_213_2826)"/>
<path d="M813.598 319.235C813.598 292.024 791.527 270 764.337 270C737.146 270 715.076 292.059 715.076 319.235C715.076 319.235 712.862 336.315 732.338 364.114C741.125 376.63 764.337 413.763 764.337 413.763C764.337 413.763 787.583 376.63 796.37 364.114C815.812 336.315 813.598 319.235 813.598 319.235Z" fill="#2DA9CE"/>
<path d="M764.337 355.988C784.168 355.988 800.245 339.92 800.245 320.099C800.245 300.278 784.168 284.21 764.337 284.21C744.505 284.21 728.429 300.278 728.429 320.099C728.429 339.92 744.505 355.988 764.337 355.988Z" fill="white"/>
<path d="M813.598 319.235C813.598 313.945 812.767 308.863 811.211 304.091C811.28 305.129 811.384 306.166 811.384 307.203C811.384 339.081 785.542 364.909 753.647 364.909C744.895 364.909 736.593 362.904 729.155 359.412C730.124 360.933 731.162 362.523 732.303 364.114C741.09 376.63 764.302 413.764 764.302 413.764C764.302 413.764 787.549 376.63 796.336 364.114C815.812 336.315 813.598 319.235 813.598 319.235Z" fill="#2DA9CE"/>
<path d="M0.888916 307.763C0.888916 303.303 10.4713 299.673 22.3022 299.673C34.1331 299.673 43.7154 303.303 43.7154 307.763C43.7154 312.224 34.1331 315.854 22.3022 315.854C10.4713 315.854 0.888916 312.258 0.888916 307.763Z" fill="url(#paint2_radial_213_2826)"/>
<path d="M348.629 51.5517C348.629 32.1896 364.334 16.4579 383.741 16.4579C403.113 16.4579 418.853 32.155 418.853 51.5517C418.853 56.0465 417.988 60.2992 416.432 64.2753C418.3 59.9189 419.337 55.1475 419.337 50.1341C419.337 30.3226 403.251 14.2451 383.43 14.2451C363.608 14.2451 347.522 30.3226 347.522 50.1341C347.522 60.3338 351.777 69.4962 358.626 76.0309C352.434 69.7036 348.629 61.0598 348.629 51.5517Z" fill="#1782A2"/>
<path d="M816.598 86.235C816.598 59.0244 794.527 37 767.337 37C740.146 37 718.076 59.0589 718.076 86.235C718.076 86.235 715.862 103.315 735.338 131.114C744.125 143.63 767.337 180.763 767.337 180.763C767.337 180.763 790.583 143.63 799.37 131.114C818.812 103.315 816.598 86.235 816.598 86.235Z" fill="#2DA9CE"/>
<path d="M767.337 122.988C787.168 122.988 803.245 106.92 803.245 87.0994C803.245 67.2785 787.168 51.2104 767.337 51.2104C747.505 51.2104 731.429 67.2785 731.429 87.0994C731.429 106.92 747.505 122.988 767.337 122.988Z" fill="white"/>
<path d="M816.598 86.2352C816.598 80.9452 815.767 75.8627 814.211 71.0913C814.28 72.1286 814.384 73.1658 814.384 74.2031C814.384 106.081 788.542 131.909 756.647 131.909C747.895 131.909 739.593 129.904 732.155 126.412C733.124 127.933 734.162 129.523 735.303 131.114C744.09 143.63 767.302 180.764 767.302 180.764C767.302 180.764 790.549 143.63 799.336 131.114C818.812 103.315 816.598 86.2352 816.598 86.2352Z" fill="#2DA9CE"/>
<path d="M732.536 88.5517C732.536 69.1896 748.241 53.4579 767.648 53.4579C787.02 53.4579 802.76 69.155 802.76 88.5517C802.76 93.0465 801.895 97.2992 800.339 101.275C802.207 96.9189 803.245 92.1475 803.245 87.1341C803.245 67.3226 787.159 51.2451 767.337 51.2451C747.515 51.2451 731.429 67.3226 731.429 87.1341C731.429 97.3338 735.684 106.496 742.533 113.031C736.341 106.704 732.536 98.0598 732.536 88.5517Z" fill="#2F8EAA"/>
<defs>
<radialGradient id="paint0_radial_213_2826" cx="0" cy="0" r="1" gradientUnits="userSpaceOnUse" gradientTransform="translate(383.413 143.771) scale(21.4525 8.09105)">
<stop stop-color="#A09F9F"/>
<stop offset="0.1846" stop-color="#ABAAAA"/>
<stop offset="0.5094" stop-color="#C8C7C7"/>
<stop offset="0.9337" stop-color="#F7F7F7"/>
<stop offset="1" stop-color="white"/>
</radialGradient>
<radialGradient id="paint1_radial_213_2826" cx="0" cy="0" r="1" gradientUnits="userSpaceOnUse" gradientTransform="translate(764.32 413.771) scale(21.4525 8.09105)">
<stop stop-color="#A09F9F"/>
<stop offset="0.1846" stop-color="#ABAAAA"/>
<stop offset="0.5094" stop-color="#C8C7C7"/>
<stop offset="0.9337" stop-color="#F7F7F7"/>
<stop offset="1" stop-color="white"/>
</radialGradient>
<radialGradient id="paint2_radial_213_2826" cx="0" cy="0" r="1" gradientUnits="userSpaceOnUse" gradientTransform="translate(22.3198 307.771) scale(21.4525 8.09105)">
<stop stop-color="#A09F9F"/>
<stop offset="0.1846" stop-color="#ABAAAA"/>
<stop offset="0.5094" stop-color="#C8C7C7"/>
<stop offset="0.9337" stop-color="#F7F7F7"/>
<stop offset="1" stop-color="white"/>
</radialGradient>
</defs>
</svg>
