<svg width="280" height="165" viewBox="0 0 280 165" fill="none" xmlns="http://www.w3.org/2000/svg">
<path d="M277.578 164.681C277.025 164.681 276.471 164.404 276.16 163.886C275.26 162.468 274.395 161.016 273.496 159.633C273.012 158.838 273.219 157.8 274.015 157.316C274.811 156.832 275.848 157.04 276.333 157.835C277.232 159.253 278.132 160.705 279.031 162.122C279.515 162.918 279.273 163.955 278.478 164.439C278.166 164.612 277.889 164.681 277.578 164.681Z" fill="white"/>
<path d="M269.552 152.165C268.999 152.165 268.48 151.888 268.134 151.404C266.335 148.673 264.502 145.941 262.668 143.279C262.15 142.518 262.322 141.481 263.118 140.928C263.879 140.409 264.917 140.582 265.47 141.377C267.339 144.074 269.137 146.805 270.971 149.571C271.49 150.332 271.282 151.404 270.487 151.888C270.21 152.061 269.864 152.165 269.552 152.165ZM258.448 135.949C257.929 135.949 257.41 135.707 257.064 135.257C255.162 132.595 253.224 129.933 251.287 127.34C250.734 126.579 250.872 125.542 251.633 124.989C252.36 124.435 253.432 124.574 253.986 125.334C255.923 127.962 257.86 130.624 259.797 133.321C260.351 134.082 260.143 135.119 259.417 135.672C259.14 135.845 258.794 135.949 258.448 135.949ZM246.721 120.183C246.202 120.183 245.718 119.941 245.406 119.526C243.4 116.933 241.359 114.374 239.353 111.85C238.764 111.124 238.868 110.052 239.595 109.499C240.321 108.911 241.359 109.015 241.947 109.741C243.988 112.3 246.029 114.858 248.07 117.486C248.624 118.212 248.485 119.284 247.759 119.837C247.447 120.044 247.101 120.183 246.721 120.183ZM234.371 104.866C233.887 104.866 233.403 104.658 233.091 104.278C230.981 101.754 228.836 99.2993 226.726 96.8444C226.103 96.1529 226.173 95.0811 226.864 94.4588C227.556 93.8364 228.629 93.9056 229.251 94.5971C231.396 97.0519 233.541 99.5413 235.686 102.065C236.274 102.791 236.205 103.829 235.478 104.451C235.167 104.728 234.786 104.866 234.371 104.866ZM221.433 90.1023C220.984 90.1023 220.534 89.9294 220.188 89.5491C217.974 87.1288 215.725 84.7431 213.477 82.4266C212.82 81.7697 212.854 80.6978 213.511 80.0409C214.169 79.384 215.241 79.4186 215.898 80.0755C218.147 82.4266 220.395 84.8123 222.644 87.2671C223.267 87.9586 223.232 89.0305 222.54 89.6528C222.229 89.9294 221.814 90.1023 221.433 90.1023ZM207.804 75.9265C207.388 75.9265 206.939 75.7536 206.627 75.4424C204.275 73.1259 201.957 70.8439 199.605 68.6311C198.913 68.0088 198.913 66.9369 199.536 66.2454C200.193 65.5539 201.231 65.5539 201.923 66.1763C204.31 68.4237 206.662 70.7056 209.014 73.0567C209.672 73.7137 209.672 74.7855 209.014 75.4424C208.668 75.7536 208.219 75.9265 207.804 75.9265ZM193.516 62.4076C193.101 62.4076 192.721 62.2693 192.409 61.9927C189.953 59.7799 187.497 57.6362 185.041 55.5617C184.315 54.974 184.246 53.9021 184.834 53.176C185.422 52.45 186.494 52.3808 187.22 52.9686C189.711 55.0777 192.202 57.2559 194.658 59.4687C195.35 60.0911 195.419 61.1629 194.796 61.8544C194.416 62.2347 193.966 62.4076 193.516 62.4076ZM178.503 49.7185C178.122 49.7185 177.777 49.6148 177.465 49.3382C174.905 47.2983 172.311 45.2929 169.716 43.3567C168.955 42.8035 168.817 41.7317 169.37 41.0056C169.924 40.2795 170.996 40.1066 171.723 40.6598C174.317 42.596 176.946 44.636 179.541 46.7105C180.267 47.2983 180.371 48.3355 179.818 49.0616C179.506 49.5111 178.987 49.7185 178.503 49.7185ZM162.763 37.9284C162.417 37.9284 162.106 37.8247 161.794 37.6172C159.096 35.7156 156.398 33.9177 153.7 32.1889C152.904 31.6703 152.696 30.6331 153.181 29.8724C153.7 29.0772 154.737 28.8697 155.498 29.3884C158.231 31.1517 160.964 32.9842 163.697 34.8858C164.458 35.4044 164.631 36.4763 164.112 37.2369C163.835 37.6864 163.317 37.9284 162.763 37.9284ZM11.3483 30.5639C10.9678 30.5639 10.5527 30.4256 10.2414 30.149C9.54951 29.5266 9.48029 28.4548 10.103 27.7633C12.3515 25.2393 14.7039 22.8536 17.1254 20.6408C17.8173 20.0185 18.8897 20.0531 19.5123 20.7791C20.135 21.4706 20.0659 22.5425 19.374 23.1648C17.0217 25.2739 14.7731 27.5905 12.5937 30.0107C12.2824 30.3565 11.798 30.5639 11.3483 30.5639ZM146.262 27.2793C145.985 27.2793 145.674 27.2101 145.397 27.0373C142.561 25.3431 139.724 23.7526 136.887 22.2659C136.057 21.8164 135.746 20.8137 136.195 19.9839C136.645 19.1541 137.648 18.8775 138.479 19.2924C141.35 20.8137 144.221 22.4387 147.092 24.1329C147.888 24.617 148.165 25.6197 147.68 26.4495C147.369 27.0027 146.816 27.2793 146.262 27.2793ZM128.896 18.0477C128.654 18.0477 128.412 17.9786 128.17 17.8748C125.195 16.4573 122.185 15.1434 119.279 13.9333C118.414 13.5875 117.999 12.5848 118.38 11.755C118.726 10.8906 119.729 10.4758 120.559 10.8561C123.534 12.0662 126.579 13.4146 129.623 14.8668C130.453 15.2817 130.833 16.2844 130.418 17.1142C130.142 17.702 129.519 18.0477 128.896 18.0477ZM25.9467 17.4599C25.4278 17.4599 24.9089 17.2179 24.563 16.7339C24.0441 15.9732 24.217 14.9359 24.9781 14.3827C27.711 12.4465 30.6168 10.7178 33.5572 9.16189C34.3874 8.74699 35.3907 9.05819 35.8404 9.88799C36.2555 10.7178 35.9441 11.7205 35.1139 12.1699C32.2772 13.6567 29.5444 15.3163 26.9153 17.1488C26.604 17.3562 26.258 17.4599 25.9467 17.4599ZM110.735 10.6141C110.562 10.6141 110.354 10.5795 110.181 10.5103C107.068 9.43852 103.92 8.47039 100.91 7.67516C100.011 7.43313 99.492 6.49961 99.7341 5.60066C99.9763 4.7017 100.91 4.18309 101.81 4.42512C104.923 5.25492 108.106 6.25758 111.323 7.32941C112.188 7.64059 112.672 8.57413 112.361 9.47308C112.084 10.1646 111.427 10.6141 110.735 10.6141ZM43.3125 8.36668C42.6207 8.36668 41.998 7.95178 41.7212 7.26028C41.4099 6.3959 41.8596 5.42778 42.7245 5.11661C45.8378 3.97563 49.0896 3.0421 52.3414 2.28145C53.2408 2.074 54.1402 2.66178 54.3478 3.56074C54.5553 4.45969 53.9672 5.35865 53.0678 5.5661C49.9198 6.29218 46.8411 7.19113 43.866 8.26296C43.6931 8.33211 43.4855 8.36668 43.3125 8.36668ZM91.7431 5.53152C91.6393 5.53152 91.5356 5.53151 91.4318 5.49694C88.2146 4.87458 84.9974 4.42512 81.8494 4.07937C80.9154 3.97564 80.2581 3.14582 80.3619 2.24687C80.4657 1.31334 81.2959 0.656409 82.1953 0.760134C85.4125 1.10589 88.7335 1.58996 92.0544 2.21231C92.9539 2.38519 93.5765 3.28414 93.4036 4.18309C93.2652 4.94374 92.5387 5.53152 91.7431 5.53152ZM62.408 4.0102C61.5431 4.0102 60.8167 3.35327 60.7475 2.48889C60.6437 1.55536 61.3356 0.725563 62.2351 0.656413C65.3139 0.345237 68.4964 0.172363 71.679 0.172363H72.2325C73.1665 0.172363 73.893 0.933035 73.893 1.86656C73.893 2.80009 73.1319 3.52615 72.1979 3.52615H71.679C68.6002 3.52615 65.5214 3.66445 62.581 3.97562C62.5464 4.0102 62.4772 4.0102 62.408 4.0102Z" fill="#A9A8AD"/>
<path d="M2.31946 42.4577C2.00812 42.4577 1.6968 42.354 1.42006 42.1811C0.624413 41.6625 0.416855 40.6253 0.935754 39.8646C1.86977 38.4124 2.83839 36.9949 3.807 35.6464C4.36049 34.8858 5.39827 34.7129 6.15932 35.2661C6.92037 35.8193 7.09334 36.8566 6.53985 37.6172C5.60583 38.9311 4.67182 40.3141 3.7378 41.6971C3.42646 42.2157 2.87296 42.4577 2.31946 42.4577Z" fill="white"/>
</svg>
