<svg width="80" height="80" viewBox="0 0 80 80" fill="none" xmlns="http://www.w3.org/2000/svg">
<g clip-path="url(#clip0_122_2747)">
<path d="M63.5019 18.2189V9.96618C63.5019 7.41059 61.424 5.33276 58.8692 5.33276H21.1416C18.5875 5.33276 16.5089 7.41059 16.5089 9.96618V18.2189C16.5089 19.6112 17.1395 20.8472 18.115 21.697C17.1395 22.547 16.5089 23.7833 16.5089 25.1765V33.4292C16.5089 35.9833 18.5875 38.0611 21.1416 38.0611H58.8692C61.424 38.0611 63.5019 35.9833 63.5019 33.4292V25.1765C63.5019 23.7833 62.8716 22.547 61.8958 21.697C62.8716 20.8472 63.5019 19.6112 63.5019 18.2189ZM61.1942 25.1765V33.4292C61.1942 34.7108 60.1515 35.7534 58.8692 35.7534H21.1416C19.8593 35.7534 18.8166 34.7108 18.8166 33.4292V25.1765C18.8166 23.8935 19.8593 22.8508 21.1416 22.8508H58.8692C60.1515 22.8508 61.1942 23.8935 61.1942 25.1765ZM21.1416 20.5431C19.8593 20.5431 18.8166 19.5004 18.8166 18.2189V9.96618C18.8166 8.68312 19.8593 7.64046 21.1416 7.64046H58.8692C60.1515 7.64046 61.1942 8.68312 61.1942 9.96618V18.2189C61.1942 19.5004 60.1515 20.5431 58.8692 20.5431H21.1416Z" fill="#5927E5"/>
<path d="M33.9067 12.938H23.0413C22.4043 12.938 21.8875 13.4548 21.8875 14.0918C21.8875 14.7289 22.4043 15.2457 23.0413 15.2457H33.9067C34.5437 15.2457 35.0605 14.7289 35.0605 14.0918C35.0605 13.4548 34.5437 12.938 33.9067 12.938Z" fill="#5927E5"/>
<path d="M56.9693 12.938H55.7478C55.1108 12.938 54.594 13.4548 54.594 14.0918C54.594 14.7289 55.1108 15.2457 55.7478 15.2457H56.9693C57.6063 15.2457 58.1231 14.7289 58.1231 14.0918C58.1231 13.4548 57.6063 12.938 56.9693 12.938Z" fill="#5927E5"/>
<path d="M51.0851 12.938H49.8637C49.2267 12.938 48.7098 13.4548 48.7098 14.0918C48.7098 14.7289 49.2267 15.2457 49.8637 15.2457H51.0851C51.7222 15.2457 52.239 14.7289 52.239 14.0918C52.239 13.4548 51.7222 12.938 51.0851 12.938Z" fill="#5927E5"/>
<path d="M45.201 12.938H43.9795C43.3425 12.938 42.8257 13.4548 42.8257 14.0918C42.8257 14.7289 43.3425 15.2457 43.9795 15.2457H45.201C45.838 15.2457 46.3548 14.7289 46.3548 14.0918C46.3548 13.4548 45.838 12.938 45.201 12.938Z" fill="#5927E5"/>
<path d="M23.0413 30.456H33.9067C34.5437 30.456 35.0605 29.9392 35.0605 29.3022C35.0605 28.6651 34.5437 28.1483 33.9067 28.1483H23.0413C22.4043 28.1483 21.8875 28.6651 21.8875 29.3022C21.8875 29.9392 22.4043 30.456 23.0413 30.456Z" fill="#5927E5"/>
<path d="M55.7478 30.456H56.9693C57.6063 30.456 58.1231 29.9392 58.1231 29.3022C58.1231 28.6651 57.6063 28.1483 56.9693 28.1483H55.7478C55.1108 28.1483 54.594 28.6651 54.594 29.3022C54.594 29.9392 55.1108 30.456 55.7478 30.456Z" fill="#5927E5"/>
<path d="M49.8637 30.456H51.0851C51.7222 30.456 52.239 29.9392 52.239 29.3022C52.239 28.6651 51.7222 28.1483 51.0851 28.1483H49.8637C49.2267 28.1483 48.7098 28.6651 48.7098 29.3022C48.7098 29.9392 49.2267 30.456 49.8637 30.456Z" fill="#5927E5"/>
<path d="M43.9795 30.456H45.201C45.838 30.456 46.3548 29.9392 46.3548 29.3022C46.3548 28.6651 45.838 28.1483 45.201 28.1483H43.9795C43.3425 28.1483 42.8257 28.6651 42.8257 29.3022C42.8257 29.9392 43.3425 30.456 43.9795 30.456Z" fill="#5927E5"/>
<path d="M13.6175 74.4463C14.0539 74.5936 14.5092 74.6672 14.9644 74.6672C15.6532 74.6672 16.3398 74.4989 16.9566 74.1714L21.7004 71.6413C23.6325 70.6122 24.4401 68.2824 23.5987 66.2798C25.2352 65.8885 26.9333 65.8163 28.5837 66.102L42.1068 68.4097C42.8625 68.5389 43.6235 68.602 44.3822 68.602C46.886 68.602 49.3642 67.9094 51.5389 66.5767L75.0868 51.9794C76.2324 51.2793 76.916 50.0428 76.916 48.6726C76.916 48.0611 76.7725 47.4511 76.4983 46.9028C74.884 43.7297 71.0559 42.343 67.7837 43.7492L52.1125 50.4817C51.6655 48.0995 49.7909 46.109 47.2954 45.6888L29.9697 42.7186C27.1128 42.2363 24.2372 42.9094 21.913 44.5846L15.4602 48.8288C14.9426 48.0876 14.2019 47.5155 13.3358 47.2273C12.2338 46.8607 11.0168 46.9659 9.99595 47.5172L5.30394 50.0458C3.34631 51.1005 2.54027 53.5103 3.46875 55.5311L11.1265 72.2062C11.611 73.2594 12.5185 74.0767 13.6175 74.4463ZM23.2216 46.4851C25.0823 45.1434 27.3412 44.6146 29.5813 44.9932L46.9093 47.9635C48.8248 48.2865 50.1642 50.1134 49.8968 52.0365C49.8863 52.0755 49.878 52.1146 49.8712 52.1537C49.5377 54.0993 47.5921 55.4529 45.6803 55.1344L36.2805 53.5194C35.6615 53.4202 35.0568 53.8334 34.9479 54.4614C34.8404 55.0894 35.2619 55.6858 35.8899 55.794L45.2934 57.4091C45.636 57.4677 45.959 57.5022 46.3008 57.5022C49.0246 57.5022 51.3395 55.6463 52.0163 53.0355L68.6941 45.8706C70.8523 44.9451 73.3771 45.8571 74.4378 47.9409C74.5497 48.1648 74.6083 48.4172 74.6083 48.6726C74.6083 49.233 74.3371 49.7333 73.8774 50.0142L50.328 64.6116C47.9767 66.0539 45.1973 66.5963 42.4944 66.135L28.9751 63.8273C26.8739 63.461 24.7052 63.5961 22.6334 64.1582L16.5044 50.905L23.2216 46.4851ZM6.39919 52.077L11.0919 49.5485C11.3759 49.3953 11.6861 49.3171 11.9986 49.3171C12.2022 49.3171 12.4073 49.3502 12.6071 49.4163C13.1149 49.5861 13.5191 49.9466 13.7437 50.4319L20.903 65.9123C20.9034 65.9134 20.903 65.9146 20.9034 65.9157C20.9045 65.9188 20.9072 65.9208 20.9083 65.9239L21.4548 67.1056C21.8815 68.0296 21.5126 69.1263 20.6149 69.6041L15.8703 72.1341C15.3978 72.3865 14.8585 72.4286 14.3544 72.2603C13.8481 72.0891 13.447 71.7285 13.2239 71.2417L5.56611 54.5665C5.14393 53.6501 5.51052 52.5563 6.39919 52.077Z" fill="#5927E5"/>
<path d="M15.6082 69.6702C15.799 69.6702 15.992 69.6236 16.1693 69.5245L16.8882 69.1233C17.4449 68.8123 17.6447 68.1092 17.3337 67.5533C17.0234 66.9974 16.3188 66.7976 15.7644 67.1071L15.0455 67.5082C14.4889 67.8192 14.2891 68.5224 14.6 69.0783C14.8111 69.4569 15.204 69.6702 15.6082 69.6702Z" fill="#5927E5"/>
</g>
<defs>
<clipPath id="clip0_122_2747">
<rect width="80" height="80" fill="white"/>
</clipPath>
</defs>
</svg>
