<svg width="80" height="80" viewBox="0 0 80 80" fill="none" xmlns="http://www.w3.org/2000/svg">
<path d="M25.8978 5.43164L25.8978 5.43164C25.8978 5.43114 25.8963 5.3673 26.0345 5.23889C26.1726 5.11051 26.4044 4.96298 26.7489 4.80805C27.4347 4.49967 28.4586 4.20966 29.7627 3.96167C32.3627 3.46724 35.976 3.1582 39.9822 3.1582C43.9884 3.1582 47.6017 3.46724 50.2017 3.96167C51.5059 4.20966 52.5297 4.49967 53.2155 4.80805C53.5601 4.96298 53.7918 5.11051 53.9299 5.23889C54.0685 5.36773 54.0666 5.43157 54.0666 5.43164V27.9845C54.0666 28.0297 54.0481 28.1206 53.8975 28.2615C53.7433 28.4057 53.4886 28.5638 53.1159 28.7238C52.3732 29.0428 51.2801 29.3203 49.9266 29.5463C47.2288 29.9969 43.6125 30.2245 39.9822 30.2245C36.3519 30.2245 32.7356 29.9969 30.0378 29.5463C28.6843 29.3203 27.5912 29.0428 26.8485 28.7238C26.4758 28.5638 26.2211 28.4057 26.0669 28.2615C25.9163 28.1206 25.8978 28.0297 25.8978 27.9845V5.43164Z" stroke="#5927E5"/>
<path d="M28.4222 25.6504V25.9743L28.7178 26.1067C29.5109 26.4619 30.7391 26.735 32.187 26.9383C33.6479 27.1435 35.3762 27.2833 37.1966 27.3545C40.8334 27.4968 44.8731 27.3664 47.925 26.9222C48.0825 26.9006 48.223 27.0088 48.2449 27.1594L48.2449 27.1597C48.2673 27.3137 48.1606 27.4562 48.0076 27.4784L48.0073 27.4784C45.0105 27.9149 40.6672 28.078 36.7154 27.8999C34.7409 27.8109 32.876 27.6372 31.3343 27.3732C29.7714 27.1056 28.6103 26.7559 27.9882 26.3526C27.9081 26.3006 27.8597 26.2113 27.8597 26.1163V9.73352C27.8597 9.5781 27.9855 9.45227 28.1409 9.45227C28.2964 9.45227 28.4222 9.5781 28.4222 9.73352V25.6504ZM50.7483 26.6113L50.7482 26.6111C50.6954 26.4652 50.7707 26.3041 50.917 26.2512L50.9171 26.2512C51.2253 26.1396 51.4955 26.0166 51.7054 25.8808L51.7061 25.8803C51.8357 25.7961 52.0097 25.8328 52.0944 25.9635L52.0946 25.9637C52.179 26.0939 52.1419 26.2679 52.0115 26.3523L52.0113 26.3525C51.7834 26.5004 51.4916 26.6415 51.1086 26.7798L51.1081 26.78C50.9622 26.8329 50.8011 26.7574 50.7483 26.6113Z" fill="#5927E5" stroke="#5927E5"/>
<path d="M21.7843 60.6671L21.7842 60.6671C21.5426 60.8416 21.1565 61.0186 20.6239 61.1842C20.0979 61.3478 19.4581 61.4916 18.7307 61.6134C17.2761 61.8569 15.5029 62.0075 13.6528 62.0621C9.93777 62.1718 5.99661 61.8923 3.75955 61.2453L3.7587 61.2451C3.17206 61.0765 2.73936 60.8923 2.46404 60.7061C2.18024 60.5141 2.15845 60.3893 2.15845 60.3513V54.1675L2.1585 54.1668L2.15897 54.1643C2.15956 54.1617 2.16116 54.1561 2.16533 54.1472C2.17398 54.1287 2.1934 54.0967 2.23454 54.053C2.3199 53.9624 2.47045 53.8509 2.70728 53.7293C3.1796 53.4868 3.89578 53.2538 4.82253 53.0527C6.66787 52.6522 9.24117 52.4006 12.1006 52.4006H12.1007C14.959 52.4005 17.5323 52.6521 19.3779 53.0525C20.3048 53.2537 21.0212 53.4867 21.4937 53.7293C21.7306 53.8509 21.8813 53.9624 21.9667 54.0531C22.0079 54.0968 22.0273 54.1287 22.0359 54.1472C22.0401 54.1562 22.0417 54.1618 22.0423 54.1643L22.0428 54.1668L22.0428 54.1675V60.3513C22.0428 60.3823 22.0272 60.4917 21.7843 60.6671Z" stroke="#5927E5"/>
<path d="M3.89082 59.3575L3.89072 59.3578C3.84311 59.5049 3.9237 59.6634 4.07182 59.7115L3.89082 59.3575ZM3.89082 59.3575C3.93873 59.2091 4.09744 59.1286 4.24393 59.1762L4.24475 59.1765M3.89082 59.3575L4.24475 59.1765M4.24475 59.1765C5.40457 59.5512 7.31534 59.7972 9.42394 59.909C11.5456 60.0215 13.9153 60.0003 16.0162 59.8214L16.0174 59.8213M4.24475 59.1765L16.0174 59.8213M16.0174 59.8213C16.167 59.8082 16.307 59.9237 16.3203 60.0781M16.0174 59.8213L16.3203 60.0781M18.8593 59.7351L18.8593 59.7351C18.8917 59.8891 19.0432 59.9845 19.1903 59.953L19.1924 59.9526C19.5638 59.8747 19.8782 59.7937 20.1289 59.7135C20.2767 59.6658 20.3579 59.5075 20.3108 59.36L18.8593 59.7351ZM18.8593 59.7351C18.8274 59.5829 18.9248 59.434 19.0766 59.4023L19.0772 59.4021M18.8593 59.7351L19.0772 59.4021M19.0772 59.4021C19.4165 59.3306 19.714 59.256 19.9569 59.1778M19.0772 59.4021L19.9569 59.1778M16.3203 60.0781L16.8183 60.0354M16.3203 60.0781L16.8183 60.0354M16.8183 60.0354L16.3203 60.0777C16.3334 60.2327 16.2187 60.3687 16.0639 60.3819M16.8183 60.0354L16.0639 60.3819M16.0639 60.3819C14.1106 60.5479 11.7386 60.5854 9.53258 60.4765M16.0639 60.3819L9.53258 60.4765M9.53258 60.4765C7.31489 60.3671 5.31152 60.1118 4.07201 59.7115L9.53258 60.4765ZM19.9569 59.1778C20.106 59.1308 20.2634 59.2127 20.3107 59.3598L19.9569 59.1778Z" fill="#5927E5" stroke="#5927E5"/>
<path d="M49.6405 60.6975L49.6403 60.6976C49.1005 61.0624 48.0162 61.3878 46.5322 61.6297C45.0741 61.8673 43.3076 62.0132 41.4695 62.0646C37.7782 62.1677 33.8793 61.8874 31.6592 61.2453L31.6584 61.2451C31.0717 61.0765 30.639 60.8923 30.3637 60.7061C30.0799 60.5141 30.0581 60.3893 30.0581 60.3513V54.1675L30.0582 54.1668L30.0586 54.1643C30.0592 54.1617 30.0608 54.1561 30.065 54.1472C30.0736 54.1287 30.0931 54.0967 30.1342 54.053C30.2196 53.9624 30.3701 53.8509 30.6069 53.7293C31.0793 53.4868 31.7954 53.2538 32.7222 53.0527C34.5675 52.6522 37.1408 52.4006 40.0003 52.4006H40.0003C42.8587 52.4005 45.432 52.6521 47.2776 53.0525C48.2045 53.2537 48.9209 53.4867 49.3934 53.7293C49.6303 53.8509 49.7809 53.9624 49.8664 54.0531C49.9075 54.0968 49.927 54.1287 49.9356 54.1472C49.9398 54.1562 49.9414 54.1618 49.942 54.1643L49.9424 54.1668L49.9425 54.1675V60.3513C49.9425 60.3842 49.9233 60.5066 49.6405 60.6975Z" stroke="#5927E5"/>
<path d="M77.6135 60.6451L77.6135 60.6451C77.3589 60.8385 76.9387 61.033 76.3504 61.2117C75.7703 61.3881 75.0612 61.539 74.2562 61.663C72.6467 61.9109 70.6896 62.0457 68.687 62.0711C66.6855 62.0965 64.6507 62.0125 62.8879 61.8266C61.1115 61.6392 59.656 61.3527 58.786 60.9925C58.4628 60.8587 58.2396 60.7234 58.1043 60.5975C57.9748 60.477 57.9575 60.3973 57.9575 60.351V54.1673L57.9576 54.1666L57.958 54.164C57.9586 54.1615 57.9602 54.1559 57.9644 54.1469C57.9731 54.1284 57.9925 54.0965 58.0336 54.0528C58.119 53.9622 58.2695 53.8507 58.5064 53.7291C58.9787 53.4865 59.6948 53.2535 60.6216 53.0524C62.4669 52.652 65.0402 52.4004 67.8997 52.4004C70.7582 52.4004 73.3316 52.652 75.1773 53.0526C76.1042 53.2537 76.8206 53.4868 77.2931 53.7294C77.53 53.851 77.6807 53.9625 77.7661 54.0531C77.8073 54.0969 77.8267 54.1288 77.8353 54.1473C77.8395 54.1562 77.8411 54.1619 77.8417 54.1644L77.8422 54.1669L77.8422 54.1676V60.3513C77.8422 60.3811 77.8286 60.4817 77.6135 60.6451Z" stroke="#5927E5"/>
<path d="M74.6587 59.7352L74.6587 59.7351C74.6267 59.5828 74.724 59.4341 74.8759 59.4023L74.8765 59.4022C75.2162 59.3306 75.5134 59.2559 75.7564 59.1778C75.9035 59.131 76.0623 59.2123 76.1101 59.3598C76.1574 59.5075 76.076 59.6661 75.9278 59.7137C75.6776 59.7938 75.3634 59.8747 74.992 59.9526L74.9899 59.9531C74.8427 59.9846 74.691 59.889 74.6587 59.7352Z" fill="#5927E5" stroke="#5927E5"/>
<path d="M32.1436 59.1762L32.1444 59.1765C33.3031 59.5508 35.2125 59.797 37.3208 59.9089C39.442 60.0215 41.8122 60.0004 43.9158 59.8211C44.072 59.8083 44.2071 59.9234 44.2202 60.0774C44.2334 60.2324 44.1186 60.3684 43.9639 60.3815L43.9639 60.3815C42.0082 60.5479 39.6358 60.5854 37.4301 60.4765C35.2127 60.367 33.2104 60.1117 31.9717 59.7115C31.8234 59.6636 31.7427 59.5049 31.7904 59.3578C31.8386 59.2088 31.9974 59.1287 32.1436 59.1762ZM46.7587 59.7349C46.727 59.5832 46.8242 59.4339 46.9768 59.4019L46.9768 59.4019C47.3163 59.3306 47.6139 59.2559 47.8571 59.1777C48.0042 59.1309 48.1634 59.2127 48.2107 59.3598C48.258 59.5075 48.1766 59.6661 48.0285 59.7137C47.778 59.7938 47.4635 59.8747 47.092 59.9529C46.9396 59.9846 46.7911 59.8875 46.7587 59.7349Z" fill="#5927E5" stroke="#5927E5"/>
<path d="M11.3185 67.5891H11.8185V67.0891V66.1266C11.8185 65.9712 11.9443 65.8453 12.0997 65.8453C12.2551 65.8453 12.381 65.9715 12.381 66.1263V67.0888V67.5888H12.881H13.3016C13.9828 67.5888 14.6042 67.9622 14.924 68.5645L14.9241 68.5647C14.997 68.7018 14.945 68.8721 14.8077 68.945L14.8075 68.9451C14.6709 69.0177 14.5004 68.9658 14.4275 68.8286L14.4274 68.8283C14.2058 68.4118 13.7741 68.1516 13.3016 68.1516H11.275C10.3641 68.1516 9.62408 68.8921 9.62408 69.8025C9.62408 70.7136 10.3641 71.4538 11.275 71.4538H12.9244C14.1444 71.4538 15.1378 72.4473 15.1378 73.6675C15.1378 74.8876 14.1445 75.881 12.9244 75.881H12.881H12.381V76.381V77.3435C12.381 77.4989 12.2551 77.6247 12.0997 77.6247C11.9443 77.6247 11.8185 77.4989 11.8185 77.3435V76.381V75.881H11.3185H10.8978C10.2718 75.881 9.69634 75.5682 9.35566 75.042L9.35557 75.0419C9.27115 74.9116 9.30822 74.7375 9.43863 74.6529C9.56965 74.5684 9.74346 74.6061 9.82754 74.7359L9.82758 74.736C10.0631 75.0995 10.4639 75.3185 10.8978 75.3185H12.9244C13.8353 75.3185 14.5753 74.5779 14.5753 73.6675C14.5753 72.7565 13.8353 72.0163 12.9244 72.0163H11.275C10.055 72.0163 9.06158 71.0227 9.06158 69.8025C9.06158 68.5824 10.0549 67.5891 11.275 67.5891H11.3185Z" fill="#5927E5" stroke="#5927E5"/>
<path d="M40.7815 75.8807H40.2815V76.3807V77.3432C40.2815 77.4985 40.1555 77.6244 40.0003 77.6244C39.845 77.6244 39.719 77.4987 39.719 77.3429V76.3804V75.8804H39.219H38.7984C38.1724 75.8804 37.5969 75.5676 37.2562 75.0414L37.2561 75.0413C37.1717 74.9109 37.2088 74.7367 37.3394 74.6522C37.47 74.5678 37.644 74.6054 37.7281 74.7353L37.7282 74.7353C37.9637 75.0989 38.3645 75.3179 38.7984 75.3179H40.825C41.7359 75.3179 42.4759 74.5773 42.4759 73.6669C42.4759 72.7558 41.7355 72.0157 40.825 72.0157H39.1756C37.9555 72.0157 36.9619 71.022 36.9619 69.8019C36.9619 68.6302 37.8904 67.5885 39.219 67.5885H39.719V67.0885V66.126C39.719 65.9706 39.8449 65.8447 40.0003 65.8447C40.1555 65.8447 40.2815 65.9707 40.2815 66.126V67.0885V67.5885H40.7815H41.2019C41.883 67.5885 42.5042 67.9619 42.8244 68.5644L42.8244 68.5644C42.8973 68.7015 42.8453 68.8718 42.7079 68.9447L42.7079 68.9447C42.5709 69.0175 42.4001 68.9651 42.3276 68.8284L42.3276 68.8284C42.1062 68.4115 41.6743 68.1513 41.2019 68.1513H39.1756C38.2645 68.1513 37.5244 68.8917 37.5244 69.8022C37.5244 70.7135 38.2649 71.4535 39.1756 71.4535H40.825C42.045 71.4535 43.0384 72.447 43.0384 73.6672C43.0384 74.8873 42.0451 75.8807 40.825 75.8807H40.7815Z" fill="#5927E5" stroke="#5927E5"/>
<path d="M65.6288 74.736C65.8644 75.1 66.2657 75.3185 66.699 75.3185H68.7253C69.6364 75.3185 70.3765 74.578 70.3765 73.6675C70.3765 72.7563 69.636 72.0163 68.7253 72.0163H67.0759C65.8559 72.0163 64.8625 71.0227 64.8625 69.8025C64.8625 68.5824 65.8558 67.5891 67.0759 67.5891H67.1197H67.6197L66.0484 74.4641M65.6288 74.736C65.6287 74.7359 65.6286 74.7357 65.6285 74.7355L66.0484 74.4641M65.6288 74.736C65.6289 74.7361 65.6289 74.7361 65.6289 74.7362L66.0484 74.4641M65.6288 74.736C65.5445 74.606 65.3698 74.5688 65.2399 74.6527M66.0484 74.4641C65.8137 74.1022 65.3294 73.9991 64.9678 74.2332M65.2399 74.6527L64.9678 74.2332M65.2399 74.6527C65.2397 74.6527 65.2396 74.6528 65.2395 74.6529L64.9678 74.2332M65.2399 74.6527L64.9678 74.2332M64.7369 75.3138L65.1566 75.0421C65.1566 75.042 65.1565 75.042 65.1565 75.0419L64.7369 75.3138Z" fill="#5927E5" stroke="#5927E5"/>
<path d="M34.0568 22.0772L34.0568 22.0772L34.0608 22.0775C34.2138 22.0885 34.3308 22.2215 34.3198 22.3788C34.3131 22.4626 34.2711 22.5316 34.2047 22.5824C34.1708 22.6084 34.1351 22.6256 34.1044 22.6346C34.0757 22.643 34.0607 22.6416 34.0607 22.6417C34.0607 22.6417 34.0607 22.6417 34.0608 22.6418L34.0401 22.6384L34.0187 22.6368C33.8609 22.6248 33.7468 22.4914 33.7576 22.3363C33.7711 22.1793 33.9088 22.0654 34.0568 22.0772Z" fill="#5927E5" stroke="#5927E5"/>
<path d="M16.2966 52.0819C16.2425 52.5281 16.5869 52.9538 17.0747 52.9538C17.4685 52.9538 17.8028 52.6569 17.8497 52.2631C17.9007 51.8431 17.5994 51.4497 17.1685 51.3975L16.2966 52.0819ZM17.1074 51.8941L17.1215 51.8958C17.2692 51.9208 17.3708 52.0593 17.3534 52.2029L17.3532 52.204C17.3362 52.3473 17.2141 52.4538 17.0747 52.4538C16.8988 52.4538 16.7735 52.3024 16.793 52.142L16.7932 52.1403C16.8109 51.99 16.9527 51.8761 17.1074 51.8941Z" fill="#5927E5" stroke="#5927E5"/>
<path d="M3.54141 61.9954L3.54241 61.9957C5.893 62.6758 9.96667 62.9716 13.8065 62.8435C15.7194 62.7797 17.5538 62.6112 19.0652 62.3391C20.6032 62.0622 21.7221 61.6916 22.2774 61.2741L22.2775 61.2741C22.7582 60.9129 22.8241 60.5551 22.8241 60.3513V54.1679C22.8241 53.7909 22.5796 53.4587 22.0472 53.1456C21.5219 52.8367 20.8377 52.6223 20.2184 52.45C20.0728 52.4146 19.9139 52.511 19.8774 52.6515L19.8766 52.6548C19.8385 52.7976 19.9233 52.9542 20.077 52.9956C20.0773 52.9957 20.0777 52.9958 20.078 52.9959L19.9497 53.4791L3.54141 61.9954ZM3.54141 61.9954C3.22665 61.9051 2.65475 61.7387 2.16458 61.4431C1.66667 61.1428 1.37703 60.7883 1.37688 60.3513C1.37688 60.3513 1.37688 60.3512 1.37688 60.3512V54.2001H1.37706M3.54141 61.9954L1.37706 54.2001M1.37706 54.2001L1.3767 54.1867M1.37706 54.2001L1.3767 54.1867M1.3767 54.1867C1.36641 53.8025 1.64582 53.3968 2.4381 52.9997C3.20657 52.6145 4.29734 52.3258 5.5181 52.1162C7.94931 51.6987 10.7406 51.6198 12.0997 51.6198C12.7456 51.6198 13.3731 51.6321 13.9667 51.6534C14.1227 51.6611 14.2431 51.792 14.2375 51.9483C14.2347 52.0216 14.205 52.0872 14.1582 52.1334C14.116 52.1751 14.0462 52.2146 13.9322 52.2163L1.3767 54.1867ZM1.93969 60.316V60.4816L2.03853 60.6145C2.18465 60.8109 2.57581 61.1328 3.69773 61.4549C6.19516 62.1773 10.1995 62.3922 13.7888 62.2707C15.5914 62.2097 17.3095 62.0632 18.7054 61.8475C19.4029 61.7396 20.0276 61.6134 20.5457 61.4693C21.0532 61.3281 21.4987 61.1593 21.809 60.9489C21.9461 60.8561 22.0826 60.7381 22.1811 60.5867L22.2619 60.4624V60.3141V55.8916V55.1288L21.5624 55.4331C20.629 55.8393 19.2376 56.1605 17.5814 56.3795C15.9338 56.5973 14.056 56.7098 12.1683 56.7132C8.36707 56.72 4.62166 56.284 2.63677 55.4327L1.93969 55.1338V55.8923V60.316Z" fill="#5927E5" stroke="#5927E5"/>
<path d="M29.2769 54.1735H29.2769L29.2769 54.1696C29.274 53.7976 29.559 53.3955 30.3597 53.0006C31.1333 52.6191 32.2253 52.3318 33.4438 52.1221C35.871 51.7045 38.6496 51.6191 39.9997 51.6191C41.3541 51.6191 44.1278 51.7044 46.5516 52.1212C47.7684 52.3304 48.8594 52.6172 49.6337 52.9981C50.4351 53.3923 50.7241 53.7949 50.7241 54.1676V60.351C50.7241 60.5546 50.6581 60.9126 50.1774 61.2741C49.6221 61.6915 48.5032 62.0621 46.9652 62.339C45.4538 62.6111 43.6193 62.7796 41.7063 62.8434C37.8664 62.9715 33.7927 62.6758 31.4421 61.9957L31.4411 61.9954C31.1263 61.9051 30.5545 61.7387 30.0644 61.4431C29.5665 61.1428 29.2769 60.7882 29.2769 60.351V54.1735ZM49.9109 54.5437L50.3555 54.1611L49.9072 53.7827C49.6664 53.5794 49.2644 53.3928 48.7684 53.224C48.255 53.0493 47.5866 52.8759 46.7681 52.7223C45.1302 52.4147 42.8681 52.1816 39.9997 52.1816C37.1325 52.1816 34.871 52.4145 33.2333 52.7218C32.4149 52.8754 31.7464 53.0486 31.2329 53.2233C30.7365 53.3921 30.3345 53.5786 30.0933 53.7816L29.6422 54.1614L30.0906 54.5444C30.4564 54.8567 31.0169 55.0917 31.6543 55.2779C32.3063 55.4685 33.098 55.6242 33.9747 55.7476C35.7294 55.9947 37.8665 56.1183 39.996 56.1199C42.1255 56.1215 44.2634 56.001 46.0196 55.7548C46.8971 55.6317 47.6898 55.4759 48.3431 55.2842C48.9819 55.0968 49.5438 54.8597 49.9109 54.5437ZM50.0804 60.5873L50.1616 60.4628V60.3141V55.8795V55.1081L49.4575 55.423C48.5321 55.8368 47.1307 56.1609 45.4554 56.3792C43.7895 56.5963 41.888 56.7046 39.9833 56.7034C38.0787 56.7023 36.1799 56.5918 34.5198 56.3741C32.85 56.1552 31.4574 55.8323 30.5438 55.4231L29.8394 55.1077V55.8795V60.3163V60.4819L29.9382 60.6148C30.0843 60.8112 30.4754 61.1331 31.597 61.4551C34.0308 62.159 37.9345 62.3808 41.4749 62.2762C43.2531 62.2236 44.9588 62.0882 46.3657 61.8845C47.7459 61.6847 48.9153 61.4096 49.5617 61.041L49.5622 61.0407C49.7555 60.9302 49.9515 60.7848 50.0804 60.5873Z" fill="#5927E5" stroke="#5927E5"/>
<path d="M58.5211 61.1116C59.5156 61.5774 61.0796 61.8802 62.843 62.0631C64.6232 62.2478 66.6638 62.3155 68.6486 62.2836C70.633 62.2517 72.5731 62.12 74.1524 61.9029C74.9415 61.7943 75.6489 61.6633 76.2307 61.5099C76.7981 61.3603 77.297 61.1768 77.6294 60.9396L77.6295 60.9395C77.7591 60.847 77.8856 60.7317 77.9798 60.5871L78.0609 60.4627V60.3141V55.8795V55.1044L77.3548 55.4239C76.4657 55.8263 75.0918 56.1476 73.4335 56.3673C71.7853 56.5858 69.8927 56.6994 67.9883 56.7036C66.0839 56.7078 64.1765 56.6025 62.4988 56.3862C60.8122 56.1687 59.3919 55.843 58.4414 55.4222L57.739 55.1113V55.8795V60.3163V60.482L57.838 60.6149C57.9991 60.8314 58.2601 60.9896 58.5211 61.1116ZM58.5211 61.1116L58.7331 60.6588M58.5211 61.1116C58.5211 61.1117 58.5212 61.1117 58.5212 61.1117L58.7331 60.6588M58.7331 60.6588C62.3869 62.3698 75.2972 61.9895 77.339 60.5326L58.239 60.3163C58.3237 60.4301 58.4906 60.5454 58.7331 60.6588ZM57.1765 54.1748H57.1766L57.1765 54.1715C57.1741 53.7978 57.4608 53.3947 58.2629 52.9995C59.0379 52.6176 60.1313 52.3303 61.3506 52.1208C63.7794 51.7035 66.5571 51.6191 67.8994 51.6191C69.2497 51.6191 72.0233 51.7041 74.4481 52.1207C75.6654 52.3299 76.7572 52.6166 77.5321 52.9976C78.3342 53.392 78.6234 53.7947 78.6234 54.1676V60.351C78.6234 60.5548 78.5576 60.9126 78.0768 61.2738L78.0767 61.2738C77.7925 61.4875 77.3452 61.6983 76.7382 61.892C76.1377 62.0835 75.4104 62.2491 74.5887 62.3868C72.9456 62.6622 70.9581 62.8206 68.9196 62.8618C66.882 62.903 64.8054 62.8269 62.9858 62.6372C61.155 62.4463 59.6236 62.1442 58.6539 61.7508L58.6539 61.7508C57.5946 61.3211 57.1765 60.8365 57.1765 60.351V54.1748ZM77.8075 54.5463L78.2589 54.164L77.8067 53.7826C77.5658 53.5794 77.1639 53.3928 76.6677 53.224C76.1544 53.0493 75.486 52.8759 74.6676 52.7223C73.0297 52.4147 70.7677 52.1816 67.8994 52.1816C65.032 52.1816 62.7705 52.4145 61.1327 52.7218C60.3143 52.8754 59.6459 53.0486 59.1324 53.2233C58.636 53.3921 58.234 53.5786 57.9929 53.7817L57.5445 54.1594L57.9882 54.5426C58.347 54.8524 58.9021 55.0852 59.5322 55.2698C60.1778 55.459 60.964 55.6145 61.836 55.7385C63.5815 55.9867 65.7131 56.1147 67.8418 56.1205C69.9705 56.1263 72.112 56.01 73.877 55.7647C74.7589 55.6422 75.5573 55.486 76.2176 55.2928C76.8642 55.1037 77.4322 54.8642 77.8075 54.5463Z" fill="#5927E5" stroke="#5927E5"/>
<path d="M52.9153 37.0659C52.9153 37.2212 52.7894 37.3472 52.6341 37.3472C52.4788 37.3472 52.3528 37.2212 52.3528 37.0659C52.3528 36.9106 52.4788 36.7847 52.6341 36.7847C52.7894 36.7847 52.9153 36.9106 52.9153 37.0659Z" fill="#5927E5" stroke="#5927E5"/>
<path d="M67.7098 46.1071L67.7088 46.1063L64.3951 43.0268C64.3949 43.0266 64.3946 43.0263 64.3944 43.0261C64.2826 42.9204 64.2759 42.7388 64.3784 42.6255C64.4749 42.5248 64.6747 42.517 64.7795 42.612C64.7798 42.6123 64.7802 42.6126 64.7805 42.6129L66.7435 44.4392L67.5841 45.2213V44.0732V37.8475V37.3475H67.0841H55.7622C55.607 37.3475 55.481 37.2216 55.481 37.0663C55.481 36.9112 55.6071 36.785 55.7622 36.785H67.8653C68.0168 36.785 68.1435 36.9082 68.1435 37.0663V37.0665L68.146 44.1386L68.1464 45.2854L68.9864 44.5047L71.0236 42.6111C71.0237 42.6111 71.0238 42.611 71.0239 42.6109C71.1241 42.5183 71.3242 42.5235 71.4216 42.6265C71.5255 42.7386 71.5199 42.9157 71.4057 43.0221C71.4057 43.0221 71.4057 43.0221 71.4056 43.0221L68.0901 46.1064L68.0891 46.1073C67.983 46.2066 67.8165 46.2068 67.7098 46.1071Z" fill="#5927E5" stroke="#5927E5"/>
<path d="M25.6782 28.1296V27.9225V21.6682V20.8843L26.3889 21.2148C27.6047 21.78 29.4711 22.1168 30.8899 22.3116L30.8981 22.3127L30.9062 22.3141C31.0255 22.3345 31.1852 22.237 31.2078 22.0729L31.2079 22.0726C31.2292 21.9189 31.1212 21.777 30.9691 21.7556L25.6782 28.1296ZM25.6782 28.1296L25.8246 28.2761M25.6782 28.1296L25.8246 28.2761M25.8246 28.2761C26.2685 28.72 27.0379 29.0486 27.9409 29.3076C28.8673 29.5732 30.0209 29.7884 31.3144 29.9573C33.9032 30.2954 37.1013 30.4543 40.2673 30.4441C43.4331 30.434 46.5839 30.2547 49.0781 29.9113C50.3238 29.7398 51.42 29.5255 52.2775 29.2655C52.7063 29.1356 53.0871 28.9908 53.4018 28.828C53.6241 28.713 53.8315 28.5799 54.001 28.4225M25.8246 28.2761L54.001 28.4225M26.6782 21.8769C27.9351 22.3505 29.5786 22.6363 30.8219 22.8069C31.2219 22.8754 31.6422 22.5829 31.7032 22.1413C31.7625 21.7132 31.4625 21.3194 31.0375 21.2604C30.1919 21.1435 26.5619 20.5682 26.1782 19.8007C26.1771 19.7526 26.1765 19.787 26.1762 19.787C26.1754 19.787 26.178 19.4255 26.1781 14.7196C26.106 14.6892 26.036 14.6583 25.9682 14.627L26.1782 14.1732H26.6782C26.6782 14.2429 26.6782 14.3117 26.6782 14.3797C31.9694 16.3444 48.0086 16.3227 53.2841 14.3723L26.6782 21.8769ZM26.6782 21.8769V21.6682H26.1782L25.9674 22.1216C26.0361 22.1535 26.1064 22.1847 26.1782 22.2152L26.6782 21.8769ZM54.001 28.4225H54.2844V27.9225V21.735V20.9773L53.5878 21.2753C51.9979 21.9554 49.1473 22.3835 46.0184 22.616C42.912 22.8468 39.6056 22.8806 37.1531 22.804L37.1453 22.8038H37.1375C37.087 22.8038 37.0203 22.7797 36.9637 22.7215C36.9097 22.6659 36.8787 22.5929 36.8811 22.5127L36.8811 22.5123C36.8853 22.3648 37.0102 22.2387 37.175 22.2411L54.001 28.4225ZM45.8758 2.89241L45.8759 2.8912C45.889 2.74208 46.0244 2.62566 46.1811 2.63938C47.4045 2.7474 49.6584 2.96678 51.5948 3.45753C52.5671 3.70393 53.4208 4.0096 54.0181 4.38074C54.6249 4.75784 54.8523 5.1252 54.8466 5.47539L54.8466 5.47539V5.48348V5.49759V5.51205V5.52686V5.54202V5.55753V5.57338V5.58957V5.6061V5.62297V5.64019V5.65774V5.67562V5.69384V5.7124V5.73128V5.7505V5.77004V5.78992V5.81012V5.83064V5.85149V5.87266V5.89416V5.91597V5.9381V5.96054V5.98331V6.00638V6.02977V6.05347V6.07749V6.1018V6.12643V6.15136V6.1766V6.20214V6.22799V6.25413V6.28057V6.30731V6.33435V6.36168V6.3893V6.41722V6.44543V6.47392V6.50271V6.53178V6.56114V6.59078V6.6207V6.65091V6.6814V6.71216V6.7432V6.77452V6.80611V6.83797V6.87011V6.90251V6.93519V6.96813V7.00134V7.03481V7.06855V7.10255V7.13681V7.17133V7.20611V7.24114V7.27643V7.31197V7.34777V7.38381V7.42011V7.45665V7.49344V7.53048V7.56776V7.60529V7.64305V7.68106V7.7193V7.75779V7.7965V7.83546V7.87464V7.91406V7.95371V7.99359V8.03369V8.07402V8.11458V8.15536V8.19636V8.23759V8.27903V8.32069V8.36257V8.40467V8.44697V8.48949V8.53223V8.57517V8.61832V8.66168V8.70524V8.74901V8.79298V8.83715V8.88153V8.9261V8.97087V9.01584V9.061V9.10635V9.1519V9.19764V9.24357V9.28968V9.33598V9.38247V9.42914V9.476V9.52303V9.57025V9.61764V9.66521V9.71296V9.76088V9.80897V9.85724V9.90567V9.95428V10.003V10.052V10.1011V10.1504V10.1998V10.2494V10.2991V10.349V10.3991V10.4493V10.4997V10.5502V10.6009V10.6517V10.7027V10.7538V10.8051V10.8565V10.908V10.9597V11.0115V11.0635V11.1156V11.1679V11.2203V11.2728V11.3254V11.3782V11.4311V11.4841V11.5373V11.5906V11.644V11.6975V11.7512V11.8049V11.8588V11.9128V11.9669V12.0212V12.0755V12.13V12.1845V12.2392V12.294V12.3489V12.4039V12.459V12.5142V12.5695V12.6249V12.6804V12.736V12.7917V12.8474V12.9033V12.9593V13.0153V13.0715V13.1277V13.184V13.2404V13.2969V13.3535V13.4101V13.4668V13.5236V13.5805V13.6374V13.6944V13.7515V13.8087V13.8659V13.9232V13.9806V14.038V14.0955V14.153V14.2107V14.2683V14.3261V14.3838V14.4417V14.4996V14.5575V14.6155V14.6736V14.7317V14.7898V14.848V14.9062V14.9645V15.0228V15.0812V15.1396V15.198V15.2565V15.315V15.3735V15.4321V15.4907V15.5493V15.608V15.6667V15.7254V15.7841V15.8428V15.9016V15.9604V16.0192V16.078V16.1369V16.1957V16.2546V16.3135V16.3724V16.4313V16.4902V16.5491V16.608V16.6669V16.7259V16.7848V16.8437V16.9026V16.9615V17.0204V17.0793V17.1382V17.1971V17.256V17.3149V17.3737V17.4325V17.4914V17.5502V17.6089V17.6677V17.7264V17.7851V17.8438V17.9025V17.9611V18.0198V18.0783V18.1369V18.1954V18.2539V18.3123V18.3707V18.4291V18.4874V18.5457V18.604V18.6622V18.7203V18.7785V18.8365V18.8945V18.9525V19.0104V19.0683V19.1261V19.1838V19.2415V19.2992V19.3568V19.4143V19.4717V19.5291V19.5864V19.6437V19.7009V19.758V19.815V19.872V19.9289V19.9857V20.0425V20.0991V20.1557V20.2122V20.2687V20.325V20.3813V20.4375V20.4935V20.5495V20.6054V20.6613V20.717V20.7726V20.8281V20.8836V20.9389V20.9942V21.0493V21.1043V21.1593V21.2141V21.2688V21.3234V21.3779V21.4323V21.4866V21.5407V21.5948V21.6487V21.7025V21.7562V21.8098V21.8633V21.9166V21.9698V22.0229V22.0758V22.1287V22.1814V22.2339V22.2864V22.3387V22.3908V22.4428V22.4947V22.5465V22.5981V22.6495V22.7009V22.752V22.8031V22.8539V22.9047V22.9553V23.0057V23.056V23.1061V23.1561V23.2059V23.2555V23.305V23.3543V23.4035V23.4525V23.5013V23.55V23.5985V23.6468V23.695V23.743V23.7908V23.8384V23.8859V23.9332V23.9803V24.0272V24.0739V24.1205V24.1669V24.2131V24.2591V24.3049V24.3505V24.3959V24.4411V24.4862V24.531V24.5757V24.6201V24.6644V24.7084V24.7523V24.7959V24.8394V24.8826V24.9256V24.9684V25.011V25.0534V25.0956V25.1375V25.1793V25.2208V25.2621V25.3032V25.3441V25.3847V25.4251V25.4653V25.5053V25.545V25.5845V25.6238V25.6628V25.7017V25.7402V25.7786V25.8167V25.8545V25.8921V25.9295V25.9666V26.0035V26.0402V26.0766V26.1127V26.1486V26.1842V26.2196V26.2547V26.2896V26.3242V26.3586V26.3927V26.4265V26.4601V26.4934V26.5265V26.5592V26.5917V26.624V26.656V26.6876V26.7191V26.7502V26.7811V26.8117V26.842V26.872V26.9018V26.9312V26.9604V26.9893V27.0179V27.0462V27.0743V27.102V27.1294V27.1566V27.1834V27.21V27.2363V27.2622V27.2879V27.3132V27.3383V27.363V27.3875V27.4116V27.4354V27.4589V27.4821V27.505V27.5276V27.5498V27.5717V27.5934V27.6146V27.6356V27.6563V27.6766V27.6966V27.7163V27.7356V27.7546V27.7733V27.7916V27.8097V27.8273V27.8447V27.8617V27.8783V27.8947V27.9106V27.9263V27.9416V27.9565V27.9711V27.9854C54.8466 28.2641 54.6932 28.5609 54.268 28.8779L54.268 28.878C53.6934 29.3065 52.7486 29.6717 51.5552 29.969C50.3753 30.2629 49.0052 30.4782 47.6219 30.6347C44.8562 30.9477 42.081 31.0214 40.7573 31.0344L40.2622 31.0393V31.5344V36.285V36.785H40.7622H49.5122C49.6629 36.785 49.7903 36.9099 49.7903 37.0663C49.7903 37.2229 49.663 37.3475 49.5122 37.3475H40.7622H40.2622V37.8475V44.1228V45.2363L41.0944 44.4966C41.1004 44.4912 41.4719 44.1455 41.8895 43.7569L42.1117 43.5501L42.4145 43.2684C42.8007 42.9091 43.1156 42.616 43.1122 42.6191L43.1123 42.6191L43.1188 42.6131C43.2231 42.517 43.4263 42.5264 43.5207 42.6252C43.6303 42.7463 43.6164 42.9208 43.5085 43.0198L43.506 43.0221L40.1907 46.1065L40.1898 46.1073C40.0836 46.2066 39.9168 46.2068 39.8101 46.1072L39.8091 46.1063L36.4936 43.0251C36.3799 42.9194 36.3736 42.7393 36.4778 42.6264C36.574 42.5249 36.7746 42.5167 36.8797 42.6119C36.8801 42.6122 36.8804 42.6125 36.8808 42.6129L38.8595 44.4536L39.7 45.2356V44.0875V37.8472V37.3472H39.2H12.8813H12.3813V37.8472V44.105V45.2531L13.2218 44.4711L15.1941 42.6363C15.2087 42.6247 15.2233 42.6118 15.2376 42.5976C15.345 42.5188 15.531 42.5314 15.6212 42.6253C15.7296 42.7454 15.7134 42.9238 15.6088 43.0198L15.6063 43.0221L12.2907 46.1064L12.29 46.1072C12.1834 46.2067 12.0167 46.2067 11.9101 46.1072L11.9092 46.1063L8.5936 43.0251C8.4797 42.9192 8.47355 42.7385 8.57854 42.6257L8.57906 42.6251C8.67047 42.5266 8.87329 42.5154 8.97985 42.612C8.98016 42.6123 8.98047 42.6126 8.98078 42.6129L10.9782 44.4711L11.8188 45.2531V44.105V37.066C11.8188 36.9114 11.9463 36.7847 12.1 36.7847H39.2H39.7V36.2847V31.5329V31.0381L39.2053 31.0329C37.6914 31.017 34.7637 30.9212 31.9413 30.578C30.5294 30.4063 29.1565 30.1742 28.0053 29.8636C26.8366 29.5483 25.9688 29.1702 25.4998 28.7472C25.3005 28.5624 25.1181 28.3047 25.1157 27.9834V5.43362C25.1173 5.20028 25.2222 4.96243 25.4915 4.7088C25.7681 4.44827 26.1927 4.19784 26.7589 3.96652C27.8894 3.50458 29.4572 3.16876 31.1624 2.92953C34.5627 2.45247 38.372 2.37708 39.9813 2.37598C40.1364 2.37598 40.2625 2.50212 40.2625 2.65723C40.2625 2.8122 40.1362 2.93848 39.9813 2.93848C38.7193 2.93848 35.6663 3.02021 32.7178 3.31697C31.2446 3.46524 29.7837 3.66852 28.5806 3.94597C27.9793 4.08463 27.4308 4.24442 26.9722 4.4302C26.5228 4.61226 26.1162 4.83632 25.8392 5.12521L25.5763 5.3993L25.7698 5.72606C25.9338 6.00295 26.2134 6.20716 26.508 6.36432C26.8124 6.52673 27.1893 6.66836 27.6161 6.79375C28.4708 7.04486 29.5873 7.24859 30.865 7.40938C33.4245 7.73147 36.6965 7.88915 39.9611 7.88668C43.2257 7.88421 46.5009 7.72157 49.067 7.39814C50.3482 7.23667 51.4684 7.03321 52.3275 6.78402C52.7565 6.65957 53.1354 6.51949 53.4418 6.35956C53.7383 6.20489 54.0196 6.00493 54.1881 5.73446L54.3952 5.40221L54.1223 5.12152C53.7675 4.75655 53.141 4.49151 52.4906 4.28571C51.812 4.07101 51.0034 3.89068 50.1934 3.74204C48.5714 3.44442 46.8945 3.26511 46.1321 3.19643L46.1321 3.19637L46.1244 3.1958C45.9837 3.1853 45.8611 3.05608 45.8758 2.89241ZM26.3881 6.85062L25.6782 6.52219V7.30441V12.2882C25.6781 12.2891 25.6781 12.2899 25.6781 12.2905C25.678 12.2977 25.6777 12.3162 25.6793 12.3392L25.6852 12.4285L25.7218 12.5102C25.859 12.8168 26.1357 13.0358 26.4181 13.1972C26.712 13.3652 27.082 13.51 27.5018 13.6374C28.3432 13.8927 29.4589 14.0997 30.7425 14.2632C33.3147 14.5908 36.6336 14.7526 39.9459 14.7517C43.2582 14.7509 46.5828 14.5874 49.1664 14.2595C50.4559 14.0959 51.5783 13.8891 52.4277 13.6349C52.8516 13.508 53.2251 13.3642 53.523 13.1981C53.8092 13.0385 54.0883 12.8241 54.2337 12.5254L54.2841 12.4218V12.3066V7.29785V6.51702L53.5749 6.84372C52.445 7.36421 50.4871 7.77651 48.0566 8.05568C45.6429 8.33292 42.8163 8.47347 39.9846 8.47516C37.1528 8.47685 34.3257 8.33967 31.9109 8.06411C29.4792 7.78661 27.52 7.37424 26.3881 6.85062Z" fill="#5927E5" stroke="#5927E5"/>
<path d="M42.7554 2.71123L42.7555 2.71123L42.7556 2.70657C42.7583 2.63364 42.7879 2.56755 42.8344 2.52123C42.8753 2.48054 42.9431 2.44108 43.0561 2.4386C43.211 2.45058 43.3226 2.57871 43.3158 2.72831L43.3157 2.73232C43.3101 2.8824 43.1867 3.00098 43.0372 3.00098C42.8767 3.00098 42.7484 2.86442 42.7554 2.71123Z" fill="#5927E5" stroke="#5927E5"/>
</svg>
