<svg width="80" height="80" viewBox="0 0 80 80" fill="none" xmlns="http://www.w3.org/2000/svg">
<g clip-path="url(#clip0_122_2807)">
<path d="M72.7777 25.4555C74.1555 25.4555 75.2777 24.3333 75.2777 22.9555V11.7C75.2777 10.3222 74.1555 9.19995 72.7777 9.19995H25.0333C23.6555 9.19995 22.5333 10.3222 22.5333 11.7V22.9555C22.5333 24.3333 23.6555 25.4555 25.0333 25.4555H26.2555V28.8555H25.0333C23.6555 28.8555 22.5333 29.9777 22.5333 31.3555V38.8666C16.8444 39.1555 12.2888 43.7888 12.1555 49.5222C7.74439 51.0111 4.72217 55.1777 4.72217 59.8666C4.72217 65.8888 9.62217 70.8 15.6555 70.8C18.0777 70.8 20.4333 69.9888 22.3444 68.5C24.2555 69.9888 26.6111 70.8 29.0333 70.8C31.6777 70.8 34.1777 69.8666 36.1555 68.1555C38.1333 69.8666 40.6333 70.8 43.2777 70.8C47.5777 70.8 51.2999 68.2888 53.0777 64.6666H72.7777C74.1555 64.6666 75.2777 63.5444 75.2777 62.1666V50.9222C75.2777 49.5444 74.1555 48.4222 72.7777 48.4222H71.5555V45.1111H72.7777C74.1555 45.1111 75.2777 43.9888 75.2777 42.6111V31.3555C75.2777 29.9777 74.1555 28.8555 72.7777 28.8555H71.5555V25.4555H72.7777ZM24.1999 22.9555V11.7C24.1999 11.2444 24.5777 10.8666 25.0333 10.8666H72.7777C73.2333 10.8666 73.6111 11.2444 73.6111 11.7V22.9555C73.6111 23.4111 73.2333 23.7888 72.7777 23.7888H70.7222H27.0888H25.0333C24.5666 23.7888 24.1999 23.4111 24.1999 22.9555ZM43.2777 69.1333C40.8111 69.1333 38.4888 68.1777 36.7444 66.4333C36.5777 66.2666 36.3666 66.1888 36.1555 66.1888C35.9444 66.1888 35.7333 66.2666 35.5666 66.4333C33.8222 68.1777 31.4999 69.1333 29.0333 69.1333C26.7777 69.1333 24.5999 68.2999 22.8999 66.7999C22.5888 66.5222 22.1111 66.5222 21.7999 66.7999C20.0999 68.3111 17.9222 69.1333 15.6666 69.1333C10.5555 69.1333 6.39995 64.9777 6.39995 59.8666C6.39995 55.7 9.21106 52.0333 13.2333 50.9333C13.6111 50.8333 13.8555 50.4888 13.8444 50.1L13.8222 49.7666C13.8222 44.6555 17.9777 40.5 23.0888 40.5C25.9333 40.5 28.5888 41.7888 30.3666 44.0444C30.6444 44.3999 31.1666 44.4666 31.5333 44.1888C33.0111 43.0444 34.7666 42.4333 36.6222 42.4333C40.9555 42.4333 44.5888 45.8222 44.8888 50.1444C44.9111 50.5 45.1666 50.8111 45.5222 50.8888C49.6555 51.9222 52.5444 55.6111 52.5444 59.8666C52.5333 64.9777 48.3777 69.1333 43.2777 69.1333ZM73.6111 50.9222V62.1666C73.6111 62.6222 73.2333 63 72.7777 63H53.7444C54.0444 62.0111 54.2111 60.9555 54.2111 59.8666C54.2111 55.6444 51.8111 51.9 48.1555 50.0888H70.7333H72.7888C73.2333 50.0888 73.6111 50.4666 73.6111 50.9222ZM69.8888 48.4222H46.2999C46.0111 47.2222 45.4999 46.0999 44.8222 45.1111H69.8888V48.4222ZM73.6111 31.3555V42.6111C73.6111 43.0666 73.2333 43.4444 72.7777 43.4444H71.0777C70.9666 43.3888 70.8444 43.3555 70.7222 43.3555H43.2888C41.5111 41.7444 39.1666 40.7666 36.6111 40.7666C34.6444 40.7666 32.7666 41.3333 31.1444 42.4111C29.3222 40.4111 26.8666 39.1777 24.1888 38.8999V31.3555C24.1888 30.8999 24.5666 30.5222 25.0222 30.5222H27.0777H70.7111H72.7666C73.2333 30.5222 73.6111 30.8999 73.6111 31.3555ZM69.8888 28.8555H27.9222V25.4555H69.8888V28.8555Z" fill="#5927E5"/>
<path d="M27.7443 16.4333C28.1999 16.4333 28.5777 16.0555 28.5777 15.6V13.9111C28.5777 13.4555 28.1999 13.0778 27.7443 13.0778C27.2888 13.0778 26.911 13.4555 26.911 13.9111V15.6C26.911 16.0666 27.2888 16.4333 27.7443 16.4333Z" fill="#5927E5"/>
<path d="M31.5666 16.4333C32.0222 16.4333 32.3999 16.0555 32.3999 15.6V13.9111C32.3999 13.4555 32.0222 13.0778 31.5666 13.0778C31.1111 13.0778 30.7333 13.4555 30.7333 13.9111V15.6C30.7333 16.0666 31.1111 16.4333 31.5666 16.4333Z" fill="#5927E5"/>
<path d="M35.3889 16.4333C35.8444 16.4333 36.2222 16.0555 36.2222 15.6V13.9111C36.2222 13.4555 35.8444 13.0778 35.3889 13.0778C34.9333 13.0778 34.5555 13.4555 34.5555 13.9111V15.6C34.5555 16.0666 34.9333 16.4333 35.3889 16.4333Z" fill="#5927E5"/>
<path d="M39.211 16.4333C39.6666 16.4333 40.0444 16.0555 40.0444 15.6V13.9111C40.0444 13.4555 39.6666 13.0778 39.211 13.0778C38.7555 13.0778 38.3777 13.4555 38.3777 13.9111V15.6C38.3777 16.0666 38.7555 16.4333 39.211 16.4333Z" fill="#5927E5"/>
<path d="M27.7443 21.5777C28.1999 21.5777 28.5777 21.1999 28.5777 20.7444V19.0555C28.5777 18.5999 28.1999 18.2222 27.7443 18.2222C27.2888 18.2222 26.911 18.5999 26.911 19.0555V20.7444C26.911 21.1999 27.2888 21.5777 27.7443 21.5777Z" fill="#5927E5"/>
<path d="M31.5666 21.5777C32.0222 21.5777 32.3999 21.1999 32.3999 20.7444V19.0555C32.3999 18.5999 32.0222 18.2222 31.5666 18.2222C31.1111 18.2222 30.7333 18.5999 30.7333 19.0555V20.7444C30.7333 21.1999 31.1111 21.5777 31.5666 21.5777Z" fill="#5927E5"/>
<path d="M35.3889 21.5777C35.8444 21.5777 36.2222 21.1999 36.2222 20.7444V19.0555C36.2222 18.5999 35.8444 18.2222 35.3889 18.2222C34.9333 18.2222 34.5555 18.5999 34.5555 19.0555V20.7444C34.5555 21.1999 34.9333 21.5777 35.3889 21.5777Z" fill="#5927E5"/>
<path d="M39.211 21.5777C39.6666 21.5777 40.0444 21.1999 40.0444 20.7444V19.0555C40.0444 18.5999 39.6666 18.2222 39.211 18.2222C38.7555 18.2222 38.3777 18.5999 38.3777 19.0555V20.7444C38.3777 21.1999 38.7555 21.5777 39.211 21.5777Z" fill="#5927E5"/>
<path d="M67.6888 20.711C69.4554 20.711 70.8888 19.2777 70.8888 17.511C70.8888 15.7444 69.4554 14.311 67.6888 14.311C65.9221 14.311 64.4888 15.7444 64.4888 17.511C64.4888 19.2666 65.9332 20.711 67.6888 20.711ZM67.6888 15.9777C68.5332 15.9777 69.2221 16.6666 69.2221 17.511C69.2221 18.3555 68.5332 19.0444 67.6888 19.0444C66.8443 19.0444 66.1554 18.3555 66.1554 17.511C66.1554 16.6666 66.8443 15.9777 67.6888 15.9777Z" fill="#5927E5"/>
<path d="M58.7111 20.711C60.4778 20.711 61.9111 19.2777 61.9111 17.511C61.9111 15.7444 60.4778 14.311 58.7111 14.311C56.9444 14.311 55.5111 15.7444 55.5111 17.511C55.5111 19.2666 56.9556 20.711 58.7111 20.711ZM58.7111 15.9777C59.5556 15.9777 60.2444 16.6666 60.2444 17.511C60.2444 18.3555 59.5556 19.0444 58.7111 19.0444C57.8667 19.0444 57.1778 18.3555 57.1778 17.511C57.1778 16.6666 57.8667 15.9777 58.7111 15.9777Z" fill="#5927E5"/>
<path d="M44.2221 18.1667H51.9666C52.4221 18.1667 52.7999 17.7889 52.7999 17.3333C52.7999 16.8778 52.4221 16.5 51.9666 16.5H44.2221C43.7666 16.5 43.3888 16.8778 43.3888 17.3333C43.3888 17.7889 43.7666 18.1667 44.2221 18.1667Z" fill="#5927E5"/>
<path d="M27.7443 32.7333C27.2888 32.7333 26.911 33.1111 26.911 33.5666V35.2555C26.911 35.7111 27.2888 36.0888 27.7443 36.0888C28.1999 36.0888 28.5777 35.7111 28.5777 35.2555V33.5666C28.5777 33.1111 28.211 32.7333 27.7443 32.7333Z" fill="#5927E5"/>
<path d="M31.5666 32.7333C31.1111 32.7333 30.7333 33.1111 30.7333 33.5666V35.2555C30.7333 35.7111 31.1111 36.0888 31.5666 36.0888C32.0222 36.0888 32.3999 35.7111 32.3999 35.2555V33.5666C32.3999 33.1111 32.0333 32.7333 31.5666 32.7333Z" fill="#5927E5"/>
<path d="M35.3889 32.7333C34.9333 32.7333 34.5555 33.1111 34.5555 33.5666V35.2555C34.5555 35.7111 34.9333 36.0888 35.3889 36.0888C35.8444 36.0888 36.2222 35.7111 36.2222 35.2555V33.5666C36.2222 33.1111 35.8555 32.7333 35.3889 32.7333Z" fill="#5927E5"/>
<path d="M39.211 32.7333C38.7555 32.7333 38.3777 33.1111 38.3777 33.5666V35.2555C38.3777 35.7111 38.7555 36.0888 39.211 36.0888C39.6666 36.0888 40.0444 35.7111 40.0444 35.2555V33.5666C40.0444 33.1111 39.6777 32.7333 39.211 32.7333Z" fill="#5927E5"/>
<path d="M67.6888 33.9667C65.9221 33.9667 64.4888 35.4 64.4888 37.1667C64.4888 38.9333 65.9221 40.3667 67.6888 40.3667C69.4554 40.3667 70.8888 38.9333 70.8888 37.1667C70.8888 35.4 69.4554 33.9667 67.6888 33.9667ZM67.6888 38.6889C66.8443 38.6889 66.1554 38 66.1554 37.1556C66.1554 36.3111 66.8443 35.6222 67.6888 35.6222C68.5332 35.6222 69.2221 36.3111 69.2221 37.1556C69.2221 38 68.5332 38.6889 67.6888 38.6889Z" fill="#5927E5"/>
<path d="M58.7111 33.9667C56.9444 33.9667 55.5111 35.4 55.5111 37.1667C55.5111 38.9333 56.9444 40.3667 58.7111 40.3667C60.4778 40.3667 61.9111 38.9333 61.9111 37.1667C61.9111 35.4 60.4778 33.9667 58.7111 33.9667ZM58.7111 38.6889C57.8667 38.6889 57.1778 38 57.1778 37.1556C57.1778 36.3111 57.8667 35.6222 58.7111 35.6222C59.5556 35.6222 60.2444 36.3111 60.2444 37.1556C60.2444 38 59.5556 38.6889 58.7111 38.6889Z" fill="#5927E5"/>
<path d="M51.9777 36.1444H44.2221C43.7666 36.1444 43.3888 36.5222 43.3888 36.9777C43.3888 37.4333 43.7666 37.8111 44.2221 37.8111H51.9666C52.4221 37.8111 52.7999 37.4333 52.7999 36.9777C52.7999 36.5222 52.4332 36.1444 51.9777 36.1444Z" fill="#5927E5"/>
<path d="M67.6888 53.5222C65.9221 53.5222 64.4888 54.9556 64.4888 56.7222C64.4888 58.4889 65.9221 59.9222 67.6888 59.9222C69.4554 59.9222 70.8888 58.4889 70.8888 56.7222C70.8888 54.9556 69.4554 53.5222 67.6888 53.5222ZM67.6888 58.2556C66.8443 58.2556 66.1554 57.5667 66.1554 56.7222C66.1554 55.8778 66.8443 55.1889 67.6888 55.1889C68.5332 55.1889 69.2221 55.8778 69.2221 56.7222C69.2221 57.5667 68.5332 58.2556 67.6888 58.2556Z" fill="#5927E5"/>
<path d="M58.7111 53.5222C56.9444 53.5222 55.5111 54.9556 55.5111 56.7222C55.5111 58.4889 56.9444 59.9222 58.7111 59.9222C60.4778 59.9222 61.9111 58.4889 61.9111 56.7222C61.9111 54.9556 60.4778 53.5222 58.7111 53.5222ZM58.7111 58.2556C57.8667 58.2556 57.1778 57.5667 57.1778 56.7222C57.1778 55.8778 57.8667 55.1889 58.7111 55.1889C59.5556 55.1889 60.2444 55.8778 60.2444 56.7222C60.2444 57.5667 59.5556 58.2556 58.7111 58.2556Z" fill="#5927E5"/>
<path d="M39.4111 56.9666C38.5444 56.9666 37.8333 56.2555 37.8333 55.3889C37.8333 54.5222 38.5444 53.8111 39.4111 53.8111C40.1444 53.8111 40.7888 54.3333 40.9555 55.0444C41.0555 55.5 41.5111 55.7777 41.9555 55.6777C42.4 55.5777 42.6888 55.1333 42.5888 54.6777C42.2555 53.1889 40.9555 52.1444 39.4222 52.1444C37.6333 52.1444 36.1777 53.6 36.1777 55.3889C36.1777 57.1777 37.6333 58.6333 39.4222 58.6333C40.2888 58.6333 41 59.3444 41 60.2111C41 61.0777 40.2888 61.7889 39.4222 61.7889C38.6444 61.7889 37.9777 61.2111 37.8666 60.4555C37.8 60 37.3666 59.6889 36.9222 59.7555C36.4666 59.8222 36.1555 60.2555 36.2222 60.7C36.4666 62.2666 37.8444 63.4555 39.4333 63.4555C41.2222 63.4555 42.6777 62 42.6777 60.2111C42.6666 58.4222 41.2111 56.9666 39.4111 56.9666Z" fill="#5927E5"/>
<path d="M24.6889 52.4444C24.2555 52.2777 23.7778 52.4888 23.6111 52.9222L20.7444 60.3222L17.8778 52.9222C17.7111 52.4888 17.2333 52.2777 16.8 52.4444C16.3666 52.6111 16.1555 53.0888 16.3222 53.5222L19.9666 62.9222C20.0889 63.2444 20.4 63.4555 20.7444 63.4555C21.0889 63.4555 21.4 63.2444 21.5222 62.9222L25.1666 53.5222C25.3333 53.0999 25.1222 52.6111 24.6889 52.4444Z" fill="#5927E5"/>
<path d="M31.1667 52.1444H28.3333C27.8778 52.1444 27.5 52.5222 27.5 52.9777V53.2333V57.4222V62.6333C27.5 63.0889 27.8778 63.4666 28.3333 63.4666C28.7889 63.4666 29.1667 63.0889 29.1667 62.6333V58.2555H31.1667C32.8556 58.2555 34.2222 56.8889 34.2222 55.2C34.2222 53.5111 32.8556 52.1444 31.1667 52.1444ZM31.1667 56.5777H29.1667V53.8H31.1667C31.9333 53.8 32.5556 54.4222 32.5556 55.1889C32.5556 55.9555 31.9333 56.5777 31.1667 56.5777Z" fill="#5927E5"/>
<path d="M27.0777 43.2888C22.4444 41.7777 19.7332 43.4444 18.2777 45.0999C17.9777 45.4444 18.011 45.9777 18.3555 46.2777C18.511 46.4221 18.711 46.4888 18.8999 46.4888C19.1332 46.4888 19.3666 46.3888 19.5221 46.1999C21.1555 44.3333 23.5221 43.8888 26.5555 44.8777C26.9888 45.0221 27.4666 44.7777 27.5999 44.3444C27.7555 43.911 27.5221 43.4333 27.0777 43.2888Z" fill="#5927E5"/>
<path d="M17.0444 49.6222C17.1111 49.6333 17.1667 49.6444 17.2333 49.6444C17.6111 49.6444 17.9556 49.3888 18.0444 49C18.0556 48.9777 18.1222 48.6777 18.2889 48.2555C18.4556 47.8333 18.2556 47.3444 17.8222 47.1777C17.4 47 16.9111 47.2111 16.7444 47.6444C16.5222 48.2111 16.4333 48.5888 16.4222 48.6333C16.3222 49.0777 16.6 49.5222 17.0444 49.6222Z" fill="#5927E5"/>
</g>
<defs>
<clipPath id="clip0_122_2807">
<rect width="80" height="80" fill="white"/>
</clipPath>
</defs>
</svg>
