<svg width="369" height="202" viewBox="0 0 369 202" fill="none" xmlns="http://www.w3.org/2000/svg">
<path d="M2.33526 201.291C2.02392 201.291 1.71257 201.187 1.40124 201.014C0.640184 200.495 0.398033 199.458 0.916932 198.698C1.85095 197.28 2.78496 195.897 3.71898 194.479C4.23788 193.719 5.27568 193.511 6.03673 194.03C6.79779 194.549 7.00535 195.586 6.48645 196.346C5.55243 197.729 4.6184 199.147 3.71898 200.53C3.40764 201.014 2.88875 201.291 2.33526 201.291Z" fill="white"/>
<path d="M10.776 188.74C10.4301 188.74 10.1188 188.636 9.80742 188.429C9.04637 187.91 8.83881 186.838 9.3923 186.078C11.3295 183.312 13.2667 180.546 15.204 177.78C15.7575 177.019 16.7953 176.846 17.5563 177.399C18.3174 177.952 18.4903 178.99 17.9368 179.75C15.965 182.482 14.0624 185.248 12.1252 188.014C11.8484 188.463 11.3295 188.74 10.776 188.74ZM22.5377 172.282C22.1918 172.282 21.8459 172.178 21.5345 171.936C20.7735 171.383 20.6351 170.346 21.1886 169.585C23.195 166.854 25.236 164.157 27.277 161.46C27.8305 160.734 28.9029 160.561 29.6294 161.149C30.3558 161.702 30.4942 162.774 29.9407 163.5C27.8997 166.162 25.8933 168.859 23.8869 171.556C23.5755 172.04 23.0566 172.282 22.5377 172.282ZM34.8184 156.17C34.4378 156.17 34.0919 156.066 33.7806 155.824C33.0541 155.237 32.9157 154.199 33.5038 153.473C35.614 150.811 37.7242 148.183 39.869 145.556C40.4571 144.83 41.5294 144.726 42.2213 145.314C42.9478 145.901 43.0515 146.973 42.4635 147.665C40.3533 150.258 38.2431 152.886 36.1329 155.548C35.8216 155.963 35.3373 156.17 34.8184 156.17ZM47.6179 140.508C47.2373 140.508 46.8568 140.369 46.5455 140.127C45.819 139.54 45.7498 138.468 46.3379 137.742C48.5173 135.148 50.7313 132.59 52.9452 130.031C53.5679 129.34 54.6057 129.271 55.3322 129.858C56.024 130.481 56.0932 131.518 55.5051 132.244C53.2912 134.768 51.1118 137.327 48.9324 139.92C48.5865 140.3 48.1022 140.508 47.6179 140.508ZM60.9709 125.26C60.5558 125.26 60.1752 125.122 59.8293 124.811C59.1374 124.188 59.1028 123.116 59.7255 122.425C62.0087 119.901 64.2918 117.446 66.6096 114.957C67.2322 114.265 68.3046 114.231 68.9965 114.887C69.6884 115.51 69.723 116.582 69.0657 117.273C66.7825 119.728 64.4994 122.183 62.2508 124.672C61.8703 125.087 61.4206 125.26 60.9709 125.26ZM74.7736 110.531C74.3585 110.531 73.9433 110.358 73.5974 110.047C72.9401 109.39 72.9056 108.318 73.5628 107.661C75.9152 105.241 78.3021 102.821 80.689 100.47C81.3463 99.8127 82.4187 99.8127 83.076 100.47C83.7332 101.127 83.7332 102.198 83.076 102.855C80.689 105.206 78.3367 107.592 75.9844 110.012C75.673 110.358 75.2233 110.531 74.7736 110.531ZM89.1644 96.3206C88.7147 96.3206 88.265 96.1477 87.9536 95.802C87.2963 95.1451 87.3309 94.0732 88.0228 93.4163C90.4789 91.0652 92.9697 88.7832 95.4604 86.5013C96.1522 85.8789 97.19 85.9135 97.8473 86.605C98.47 87.2965 98.4354 88.3683 97.7435 88.9907C95.2874 91.2381 92.8313 93.52 90.3752 95.8711C89.9946 96.1477 89.5795 96.3206 89.1644 96.3206ZM104.074 82.698C103.59 82.698 103.14 82.4906 102.794 82.1102C102.171 81.4187 102.241 80.3469 102.967 79.7245C105.527 77.4772 108.087 75.2989 110.681 73.1207C111.408 72.5329 112.446 72.6367 113.068 73.3282C113.656 74.0542 113.553 75.0915 112.861 75.7138C110.301 77.8575 107.741 80.0357 105.216 82.2485C104.87 82.5597 104.489 82.698 104.074 82.698ZM119.606 69.7323C119.122 69.7323 118.638 69.5249 118.292 69.11C117.704 68.3839 117.842 67.3121 118.569 66.7589C121.232 64.6498 123.896 62.5407 126.56 60.5008C127.286 59.9476 128.359 60.0859 128.912 60.812C129.466 61.538 129.327 62.6099 128.601 63.1631C125.937 65.1684 123.308 67.2429 120.679 69.352C120.333 69.594 119.952 69.7323 119.606 69.7323ZM135.692 57.4927C135.173 57.4927 134.655 57.2507 134.343 56.8012C133.79 56.0406 133.963 55.0033 134.724 54.4501C137.491 52.4448 140.259 50.5086 143.026 48.6069C143.787 48.0883 144.825 48.2958 145.378 49.0564C145.897 49.8171 145.69 50.8543 144.929 51.4075C142.161 53.2746 139.428 55.2108 136.696 57.1816C136.35 57.389 136.004 57.4927 135.692 57.4927ZM152.366 46.0829C151.813 46.0829 151.259 45.8064 150.948 45.3223C150.429 44.5271 150.671 43.4898 151.467 43.0058C154.338 41.1733 157.209 39.3754 160.081 37.6466C160.876 37.1626 161.914 37.4392 162.398 38.2344C162.883 39.0296 162.641 40.0669 161.81 40.5509C158.939 42.2797 156.102 44.043 153.266 45.8755C152.989 45.9792 152.678 46.0829 152.366 46.0829ZM169.663 35.6413C169.075 35.6413 168.521 35.3301 168.21 34.7769C167.76 33.9816 168.037 32.9444 168.867 32.4949C171.842 30.8353 174.817 29.2103 177.792 27.6544C178.623 27.2049 179.626 27.5507 180.076 28.3805C180.491 29.2103 180.179 30.213 179.349 30.6624C176.409 32.1837 173.434 33.8088 170.493 35.4338C170.251 35.5721 169.94 35.6413 169.663 35.6413ZM187.617 26.306C186.994 26.306 186.371 25.9602 186.095 25.3379C185.68 24.5081 186.06 23.5054 186.89 23.0905C189.969 21.6383 193.048 20.2208 196.127 18.8723C196.992 18.492 197.96 18.9069 198.341 19.7367C198.721 20.6011 198.306 21.5692 197.476 21.9495C194.432 23.2634 191.388 24.6464 188.343 26.0985C188.101 26.2714 187.859 26.306 187.617 26.306ZM353.146 20.8431C352.904 20.8431 352.627 20.774 352.385 20.6702C349.41 19.1835 346.331 17.7659 343.287 16.4866C342.422 16.1063 342.041 15.1382 342.387 14.2738C342.768 13.4094 343.736 13.0291 344.601 13.3749C347.715 14.6887 350.828 16.1409 353.872 17.6622C354.702 18.0771 355.048 19.0798 354.633 19.9096C354.356 20.4974 353.768 20.8431 353.146 20.8431ZM206.159 18.2845C205.502 18.2845 204.844 17.8696 204.602 17.2127C204.256 16.3483 204.706 15.3802 205.571 15.0345C208.753 13.7898 211.936 12.6488 215.118 11.5424C216.018 11.2658 216.952 11.7153 217.263 12.5796C217.575 13.444 217.09 14.4121 216.225 14.7233C213.077 15.7951 209.93 16.9361 206.782 18.1808C206.539 18.25 206.332 18.2845 206.159 18.2845ZM334.569 12.9254C334.396 12.9254 334.189 12.8908 334.016 12.8217C330.868 11.7153 327.65 10.678 324.502 9.77906C323.603 9.53703 323.084 8.60351 323.361 7.70456C323.603 6.8056 324.537 6.28697 325.436 6.56357C328.688 7.4971 331.94 8.53436 335.157 9.67534C336.022 9.98651 336.506 10.9546 336.195 11.819C335.884 12.5105 335.261 12.9254 334.569 12.9254ZM225.254 11.7844C224.528 11.7844 223.871 11.3004 223.628 10.5743C223.352 9.67533 223.871 8.74181 224.77 8.49978C228.022 7.53168 231.343 6.66729 234.595 5.87206C235.494 5.66461 236.393 6.21782 236.636 7.11677C236.843 8.01573 236.29 8.91468 235.39 9.15671C232.173 9.95193 228.921 10.8163 225.704 11.7498C225.566 11.7498 225.427 11.7844 225.254 11.7844ZM315.128 7.39338C315.024 7.39338 314.886 7.39337 314.782 7.3588C311.53 6.63272 308.244 6.01037 304.957 5.52632C304.023 5.38802 303.401 4.52364 303.539 3.59011C303.677 2.65658 304.542 2.03423 305.476 2.17253C308.832 2.69115 312.187 3.31351 315.508 4.03959C316.408 4.24704 316.996 5.146 316.788 6.04495C316.615 6.84018 315.923 7.39338 315.128 7.39338ZM244.903 7.01305C244.108 7.01305 243.416 6.45985 243.243 5.66462C243.07 4.76567 243.658 3.86672 244.592 3.69384C247.913 3.03691 251.303 2.48371 254.659 2.03424C255.593 1.93051 256.423 2.55286 256.561 3.45182C256.7 4.38534 256.042 5.21515 255.143 5.35345C251.857 5.80292 248.536 6.35613 245.249 6.97848C245.111 6.97848 245.007 7.01305 244.903 7.01305ZM295.167 4.28161C295.098 4.28161 295.064 4.28161 294.994 4.28161C291.708 3.97044 288.352 3.76298 284.997 3.65926C284.063 3.62468 283.336 2.86403 283.371 1.9305C283.406 0.996974 284.132 0.270905 285.101 0.30548C288.491 0.409205 291.95 0.616657 295.306 0.927833C296.24 0.996984 296.897 1.82678 296.828 2.76031C296.759 3.62469 296.032 4.28161 295.167 4.28161ZM264.898 4.21246C264.033 4.21246 263.307 3.55554 263.238 2.65659C263.169 1.72306 263.86 0.927824 264.76 0.824099C268.185 0.547498 271.609 0.340054 274.965 0.236328C275.933 0.236328 276.66 0.927822 276.695 1.86135C276.729 2.79488 276.003 3.55553 275.069 3.59011C271.782 3.69383 268.427 3.86671 265.071 4.14331C264.967 4.21246 264.933 4.21246 264.898 4.21246Z" fill="#A9A8AD"/>
<path d="M366.36 28.1385C366.049 28.1385 365.772 28.0694 365.495 27.8965C364.077 27.0321 362.624 26.1678 361.206 25.3725C360.41 24.9231 360.133 23.8858 360.583 23.0906C361.033 22.2953 362.071 22.0187 362.866 22.4682C364.319 23.298 365.807 24.1624 367.26 25.0613C368.055 25.5454 368.297 26.5826 367.813 27.3779C367.502 27.8619 366.948 28.1385 366.36 28.1385Z" fill="white"/>
</svg>
