<svg width="63" height="63" viewBox="0 0 63 63" fill="none" xmlns="http://www.w3.org/2000/svg">
<g clip-path="url(#clip0_122_2999)">
<path d="M55.1034 38.9771C55.8975 36.5262 56.3007 33.9701 56.3007 31.3655C56.3007 28.7704 55.9003 26.2234 55.1111 23.7803C56.8467 23.1285 58.4247 22.085 59.735 20.6974C61.9993 18.3004 63.1942 15.1646 63.1 11.8688C62.9049 5.06415 57.2111 -0.311943 50.4055 -0.11776C47.1092 -0.0235518 44.0474 1.34871 41.7831 3.74621C40.6396 4.95697 39.7696 6.35615 39.2001 7.86924C36.7564 7.08049 34.2095 6.68011 31.6134 6.68011C29.016 6.68011 26.4671 7.08145 24.022 7.87117C22.2585 3.20451 17.7452 -0.123047 12.4686 -0.123047C5.66109 -0.123047 0.123016 5.41503 0.123016 12.222C0.123016 17.4982 3.45105 22.011 8.11771 23.774C7.32752 26.2196 6.92665 28.7685 6.92665 31.3655C6.92665 33.9701 7.32992 36.5262 8.12396 38.9771C3.45394 40.7387 0.123016 45.2534 0.123016 50.532C0.123016 52.3902 0.525803 54.1767 1.32032 55.8417C1.53998 56.3017 2.09081 56.4969 2.55079 56.2772C3.0103 56.0575 3.20544 55.5067 2.98626 55.0467C2.31095 53.6317 1.96872 52.1128 1.96872 50.532C1.96872 44.743 6.67912 40.0331 12.4686 40.0331C18.2585 40.0331 22.9689 44.743 22.9689 50.532C22.9689 56.3214 18.2585 61.0313 12.4686 61.0313C9.82787 61.0313 7.30397 60.0474 5.36213 58.2609C4.98674 57.9157 4.40275 57.9403 4.05812 58.3152C3.71301 58.6906 3.73704 59.2741 4.11243 59.6192C6.39601 61.7201 9.36356 62.877 12.4686 62.877C17.7529 62.877 22.272 59.5394 24.0297 54.8622C26.4719 55.6504 29.0184 56.0508 31.6134 56.0508C34.209 56.0508 36.7559 55.6504 39.1981 54.8626C40.9559 59.5399 45.475 62.877 50.7593 62.877C57.5668 62.877 63.1048 57.339 63.1048 50.532C63.1048 45.2534 59.7739 40.7382 55.1034 38.9771ZM43.1251 5.01321C45.0506 2.97428 47.6552 1.80725 50.4589 1.72698C50.5608 1.7241 50.6617 1.72266 50.7636 1.72266C56.4151 1.72266 61.0923 6.23647 61.2548 11.9211C61.3351 14.7243 60.319 17.391 58.3935 19.4304C56.468 21.4693 53.8633 22.6363 51.0597 22.7166C50.9578 22.7195 50.8564 22.7209 50.755 22.7209C45.1034 22.7209 40.4262 18.2071 40.2638 12.5224C40.183 9.71927 41.1996 7.05213 43.1251 5.01321ZM38.6805 53.09C36.4065 53.8292 34.0335 54.2051 31.6134 54.2051C29.1943 54.2051 26.8213 53.8292 24.5474 53.09C24.7219 52.2642 24.8146 51.4087 24.8146 50.532C24.8146 43.725 19.2761 38.1874 12.4686 38.1874C11.5866 38.1874 10.7262 38.2811 9.89612 38.4575C9.15063 36.1753 8.77236 33.7937 8.77236 31.3655C8.77236 28.9449 9.14871 26.571 9.8894 24.2946C10.7214 24.4724 11.5842 24.5666 12.4686 24.5666C14.5834 24.5666 16.67 24.0225 18.5036 22.9935C18.9478 22.744 19.1059 22.1816 18.8564 21.737C18.607 21.2924 18.0446 21.1348 17.6 21.3842C16.0417 22.2585 14.2672 22.7209 12.4686 22.7209C6.67864 22.7209 1.96872 18.011 1.96872 12.2216C1.96872 6.43257 6.67912 1.72266 12.4686 1.72266C18.2585 1.72266 22.9689 6.43257 22.9689 12.222C22.9689 14.644 22.1244 17.0069 20.5911 18.8762C20.2676 19.2698 20.3253 19.8514 20.7195 20.1749C21.1131 20.4979 21.6947 20.4407 22.0182 20.0466C23.8211 17.8485 24.8146 15.0694 24.8146 12.2216C24.8146 11.3376 24.7199 10.4749 24.5426 9.64285C26.8185 8.90216 29.1929 8.52581 31.6134 8.52581C34.0335 8.52581 36.407 8.90168 38.6819 9.64141C38.4805 10.5941 38.3902 11.577 38.4185 12.5753C38.6103 19.2597 44.109 24.5671 50.7545 24.5666C50.8732 24.5666 50.9929 24.5652 51.1126 24.5613C51.8691 24.5397 52.6132 24.4498 53.3385 24.2965C54.0787 26.5719 54.455 28.9459 54.455 31.3655C54.455 33.7937 54.0763 36.1753 53.3313 38.4575C52.5012 38.2806 51.6408 38.1874 50.7593 38.1874C43.9518 38.1874 38.4137 43.725 38.4137 50.532C38.4137 51.4091 38.506 52.2647 38.6805 53.09ZM50.7593 61.0313C44.9693 61.0313 40.2594 56.3214 40.2594 50.5324C40.2594 44.743 44.9693 40.0331 50.7593 40.0331C56.5492 40.0331 61.2591 44.743 61.2591 50.5324C61.2591 56.3214 56.5492 61.0313 50.7593 61.0313Z" fill="white"/>
<path d="M18.7526 6.77418C18.4344 6.55789 18.0158 6.56125 17.7014 6.78331C17.3871 7.00489 17.0506 7.18994 16.6969 7.33654C15.4289 6.34448 13.5914 6.35601 12.3325 7.45046C11.6784 8.01955 11.2693 8.80638 11.1742 9.65617C9.82016 9.45478 8.59642 8.70929 7.79373 7.5663C7.60243 7.29425 7.27943 7.14669 6.94922 7.17841C6.61805 7.21061 6.33014 7.41825 6.19508 7.72203C6.16864 7.78163 5.54764 9.20051 5.62695 10.9371C5.68751 12.2661 6.16287 13.9792 7.89659 15.3019C7.27222 15.5033 6.61276 15.5966 5.95571 15.5701C5.52793 15.5533 5.14581 15.8316 5.03046 16.243C4.9151 16.6545 5.09727 17.0914 5.47073 17.299C6.91846 18.1032 8.46952 18.5059 9.98502 18.5059C11.4409 18.5059 12.8636 18.1339 14.1297 17.3894C15.7173 16.4555 16.8708 15.0255 17.4971 13.2793C17.5168 13.2351 17.5332 13.189 17.5462 13.1414C17.8682 12.1931 18.0369 11.1544 18.0369 10.0527C18.0369 10.0046 18.0355 9.9561 18.0335 9.90804C18.5603 9.28703 18.9362 8.55115 19.1304 7.75567C19.2208 7.38173 19.0708 6.99047 18.7526 6.77418ZM16.1628 9.7648C16.1811 9.86093 16.1907 9.96043 16.1907 10.0556C16.1907 10.9602 16.0561 11.798 15.8 12.555C15.786 12.5896 15.7745 12.6256 15.7649 12.6627C15.2857 14.0037 14.4133 15.0808 13.1939 15.7984C12.0778 16.4555 10.7968 16.7352 9.49139 16.6405C9.79036 16.4925 10.0792 16.3243 10.3556 16.1368C10.6325 15.9484 10.7863 15.6249 10.7565 15.2909C10.7267 14.9568 10.5181 14.6655 10.2119 14.5295C8.48875 13.7638 7.56734 12.5459 7.47361 10.9102C7.45439 10.5752 7.47121 10.2536 7.50726 9.95898C8.77666 11.0198 10.4027 11.5985 12.0999 11.5548C12.6003 11.5418 12.9992 11.1327 12.9992 10.6324V10.0724C12.9992 10.0686 12.9992 10.0642 12.9992 10.0599C12.9929 9.59321 13.191 9.14957 13.5438 8.84339C14.2032 8.26997 15.2059 8.33967 15.7793 8.99912C15.8946 9.1313 16.0417 9.22503 16.2023 9.27453C16.146 9.42931 16.1311 9.59801 16.1628 9.7648Z" fill="white"/>
<path d="M47.7225 12.9496H49.0308V18.4526C49.0308 18.9621 49.4442 19.3755 49.9537 19.3755C50.4637 19.3755 50.8765 18.9621 50.8765 18.4526V12.9496H52.3017C52.8112 12.9496 53.2245 12.5363 53.2245 12.0268C53.2245 11.5173 52.8112 11.1039 52.3017 11.1039H50.8765V8.52185C50.8765 7.63552 51.598 6.91406 52.4848 6.91406H53.6797C54.1892 6.91406 54.6026 6.5007 54.6026 5.99121C54.6026 5.48124 54.1892 5.06836 53.6797 5.06836H52.4848C50.5805 5.06836 49.0308 6.6175 49.0308 8.52185V11.1039H47.7225C47.213 11.1039 46.7997 11.5173 46.7997 12.0268C46.7997 12.5363 47.213 12.9496 47.7225 12.9496Z" fill="white"/>
<path d="M10.3748 55.3046C10.5945 55.3046 10.8142 55.2479 11.0098 55.1349L17.2914 51.5065C17.6832 51.2806 17.9264 50.8591 17.9264 50.4068C17.9264 49.955 17.6832 49.5334 17.2914 49.3075L11.0098 45.6791C10.6185 45.4527 10.1321 45.4527 9.74037 45.6791C9.34864 45.905 9.10495 46.3265 9.10495 46.7788V54.0352C9.10495 54.4875 9.34864 54.909 9.74037 55.1349C9.936 55.2484 10.1552 55.3046 10.3748 55.3046ZM10.9507 47.7766L15.5053 50.4072L10.9507 53.0379V47.7766Z" fill="white"/>
<path d="M54.7693 43.9961H46.7492C45.3562 43.9961 44.2229 45.1295 44.2229 46.5229V54.5416C44.2229 55.935 45.3562 57.0684 46.7492 57.0684H54.7693C56.1623 57.0684 57.2957 55.935 57.2957 54.5416V46.5229C57.2957 45.1295 56.1623 43.9961 54.7693 43.9961ZM55.45 54.5416C55.45 54.9175 55.1447 55.2227 54.7693 55.2227H46.7492C46.3738 55.2227 46.0686 54.9175 46.0686 54.5416V46.5229C46.0686 46.1475 46.3738 45.8418 46.7492 45.8418H54.7693C55.1447 45.8418 55.45 46.1475 55.45 46.5229V54.5416Z" fill="white"/>
<path d="M50.7593 47.7427C49.2212 47.7427 47.9695 48.9943 47.9695 50.5324C47.9695 52.0705 49.2212 53.3216 50.7593 53.3216C52.2973 53.3216 53.549 52.0705 53.549 50.5324C53.549 48.9943 52.2973 47.7427 50.7593 47.7427ZM50.7593 51.4759C50.2387 51.4759 49.8152 51.0524 49.8152 50.5324C49.8152 50.0118 50.2387 49.5884 50.7593 49.5884C51.2798 49.5884 51.7033 50.0118 51.7033 50.5324C51.7033 51.0524 51.2798 51.4759 50.7593 51.4759Z" fill="white"/>
<path d="M38.2926 21.791C37.7826 21.791 37.3697 22.2044 37.3697 22.7139V23.1277C36.0691 23.8944 34.7016 24.5562 33.2957 25.0979C32.17 25.5315 31.0073 25.8919 29.8312 26.1741C29.6505 26.0352 29.4255 25.9511 29.1804 25.9511H24.955C23.9341 25.9511 23.104 26.7816 23.104 27.8021V32.6485C23.104 33.6694 23.9341 34.4995 24.955 34.4995H25.7995L26.1196 40.6528C26.1451 41.1454 26.5527 41.5276 27.0405 41.5276C27.0564 41.5276 27.0727 41.5271 27.0891 41.5261C27.5981 41.4997 27.9893 41.0657 27.9629 40.5567L27.6476 34.4995H29.1804C29.425 34.4995 29.6505 34.4158 29.8307 34.2769C30.5796 34.4577 31.3246 34.6701 32.0528 34.9119C32.5368 35.0719 33.0588 34.81 33.2193 34.3264C33.3798 33.8424 33.1174 33.3199 32.6339 33.1599C31.8518 32.9003 31.052 32.672 30.2474 32.4783V27.9732C31.5077 27.6713 32.7531 27.2844 33.959 26.8201C35.1251 26.3707 36.2671 25.8444 37.3693 25.2483V35.2046C36.9636 34.9854 36.5536 34.7763 36.1407 34.5778C35.6812 34.3567 35.1299 34.5499 34.9093 35.0094C34.6882 35.4689 34.8814 36.0203 35.3409 36.2414C36.0282 36.572 36.7079 36.9364 37.3693 37.3247V37.7367C37.3693 38.2466 37.7826 38.6595 38.2921 38.6595C38.8016 38.6595 39.215 38.2466 39.215 37.7367V22.7139C39.2154 22.2044 38.8021 21.791 38.2926 21.791ZM28.4022 32.6533L24.9497 32.6485L24.955 27.7968H28.4022V32.6533Z" fill="white"/>
</g>
<defs>
<clipPath id="clip0_122_2999">
<rect width="63" height="63" fill="white"/>
</clipPath>
</defs>
</svg>
