<svg width="36" height="36" viewBox="0 0 36 36" fill="none" xmlns="http://www.w3.org/2000/svg">
<path d="M35.1692 18.7339H0.830747C0.422285 18.7339 0.0922852 18.4039 0.0922852 17.9954C0.0922852 17.5869 0.422285 17.2569 0.830747 17.2569H33.3854L28.9038 12.7754C28.6154 12.4869 28.6154 12.0185 28.9038 11.73C29.1923 11.4416 29.6607 11.4416 29.9492 11.73L35.6931 17.4739C35.9054 17.6862 35.9677 18.0023 35.8523 18.2792C35.7369 18.5539 35.4669 18.7339 35.1692 18.7339Z" fill="#2F8EAA"/>
<path d="M29.4184 24.4843C29.2292 24.4843 29.04 24.4128 28.8969 24.2674C28.6084 23.9789 28.6084 23.5105 28.8969 23.222L34.6477 17.4712C34.9361 17.1828 35.4046 17.1828 35.693 17.4712C35.9815 17.7597 35.9815 18.2282 35.693 18.5166L29.9423 24.2674C29.7969 24.4128 29.6077 24.4843 29.4184 24.4843Z" fill="#2F8EAA"/>
</svg>
