<svg width="25" height="19" viewBox="0 0 25 19" fill="none" xmlns="http://www.w3.org/2000/svg">
<path d="M1.13637 8.32709H21.1207L15.1058 2.04165C14.9973 1.93211 14.9107 1.80108 14.8512 1.6562C14.7916 1.51132 14.7603 1.35549 14.7589 1.19782C14.7576 1.04014 14.7864 0.883774 14.8435 0.737834C14.9007 0.591895 14.985 0.459308 15.0917 0.34781C15.1984 0.236313 15.3253 0.148137 15.465 0.0884288C15.6046 0.0287202 15.7543 -0.00132532 15.9052 4.48365e-05C16.056 0.00141499 16.2052 0.0341737 16.3438 0.0964094C16.4824 0.158645 16.6078 0.249112 16.7127 0.36253L24.6673 8.67503C24.8803 8.89772 25 9.19971 25 9.51459C25 9.82947 24.8803 10.1315 24.6673 10.3542L16.7127 18.6667C16.4983 18.883 16.2113 19.0027 15.9133 19C15.6154 18.9973 15.3304 18.8724 15.1197 18.6522C14.909 18.432 14.7895 18.1342 14.7869 17.8228C14.7843 17.5115 14.8988 17.2115 15.1058 16.9875L21.1207 10.7021H1.13637C0.834988 10.7021 0.545946 10.577 0.332835 10.3543C0.119723 10.1316 -9.07959e-07 9.82954 -9.07959e-07 9.51459C-9.07959e-07 9.19965 0.119723 8.8976 0.332835 8.6749C0.545946 8.4522 0.834988 8.32709 1.13637 8.32709Z" fill="white"/>
</svg>
