<svg width="48" height="48" viewBox="0 0 48 48" fill="none" xmlns="http://www.w3.org/2000/svg">
<g clip-path="url(#clip0_122_3007)">
<path d="M45.2011 0.20459H2.79891C1.2555 0.20459 0 1.46018 0 3.0035V17.4577C0 17.8508 0.318469 18.1692 0.711563 18.1692C1.10466 18.1692 1.42313 17.8508 1.42313 17.4577V15.7441H46.5768V44.9965C46.5768 45.755 45.9596 46.3722 45.201 46.3722H2.79891C2.04037 46.3722 1.42313 45.7551 1.42313 44.9965V20.9999C1.42313 20.6068 1.10466 20.2884 0.711563 20.2884C0.318469 20.2884 0 20.6068 0 20.9999V44.9966C0 46.54 1.2555 47.7955 2.79891 47.7955H45.2011C46.7445 47.7955 48 46.54 48 44.9966V15.0325V8.972V3.0035C48 1.46018 46.7445 0.20459 45.2011 0.20459ZM46.5768 14.3209H1.47478V9.68365H46.5768V14.3209ZM46.5768 8.26043H1.42322V3.0035C1.42322 2.24496 2.04038 1.62781 2.799 1.62781H45.2012C45.9597 1.62781 46.577 2.24496 46.577 3.0035V8.26043H46.5768Z" fill="white"/>
<path d="M42.5834 2.80957C41.4173 2.80957 40.4685 3.75832 40.4685 4.92448C40.4685 6.09063 41.4173 7.03938 42.5834 7.03938C43.7496 7.03938 44.6983 6.09063 44.6983 4.92448C44.6983 3.75832 43.7496 2.80957 42.5834 2.80957ZM42.5834 5.61635C42.202 5.61635 41.8916 5.30604 41.8916 4.92457C41.8916 4.5432 42.2019 4.23279 42.5834 4.23279C42.9649 4.23279 43.2752 4.5431 43.2752 4.92457C43.2752 5.30595 42.9648 5.61635 42.5834 5.61635Z" fill="white"/>
<path d="M36.8523 2.80957C35.6861 2.80957 34.7374 3.75832 34.7374 4.92448C34.7374 6.09063 35.6861 7.03938 36.8523 7.03938C38.0184 7.03938 38.9672 6.09063 38.9672 4.92448C38.9672 3.75832 38.0184 2.80957 36.8523 2.80957ZM36.8523 5.61635C36.4709 5.61635 36.1605 5.30604 36.1605 4.92457C36.1605 4.5432 36.4708 4.23279 36.8523 4.23279C37.2337 4.23279 37.5441 4.5431 37.5441 4.92457C37.544 5.30595 37.2336 5.61635 36.8523 5.61635Z" fill="white"/>
<path d="M31.121 2.80957C29.9548 2.80957 29.0061 3.75832 29.0061 4.92448C29.0061 6.09063 29.9548 7.03938 31.121 7.03938C32.2871 7.03938 33.2359 6.09063 33.2359 4.92448C33.2359 3.75832 32.2871 2.80957 31.121 2.80957ZM31.1211 5.61635C30.7397 5.61635 30.4293 5.30604 30.4293 4.92457C30.4293 4.5432 30.7395 4.23279 31.1211 4.23279C31.5026 4.23279 31.8129 4.5431 31.8129 4.92457C31.8128 5.30595 31.5024 5.61635 31.1211 5.61635Z" fill="white"/>
<path d="M24.2442 2.80957H6.16013C4.99398 2.80957 4.04523 3.75832 4.04523 4.92448C4.04523 6.09063 4.99398 7.03938 6.16013 7.03938H24.2442C25.4104 7.03938 26.3591 6.09063 26.3591 4.92448C26.3591 3.75832 25.4104 2.80957 24.2442 2.80957ZM24.2442 5.61635H6.16013C5.77866 5.61635 5.46835 5.30604 5.46835 4.92457C5.46835 4.5432 5.77857 4.23279 6.16013 4.23279H24.2442C24.6257 4.23279 24.936 4.5431 24.936 4.92457C24.936 5.30595 24.6256 5.61635 24.2442 5.61635Z" fill="white"/>
<path d="M17.7038 24.8428C17.2035 24.8428 16.8314 25.2404 16.8314 25.7151C16.8314 26.1772 17.2034 26.5876 17.7038 26.5876C18.1658 26.5876 18.5635 26.1772 18.5635 25.7151C18.5635 25.2404 18.1658 24.8428 17.7038 24.8428Z" fill="white"/>
<path d="M23.5542 24.7911C23.2335 24.7911 23.0411 25.176 22.2712 25.176C21.3859 25.176 21.0138 24.7398 21.0138 23.9955V22.969C21.0139 22.225 21.3859 21.7887 22.2584 21.7887C23.0153 21.7887 23.2462 22.1479 23.5286 22.1479C23.9262 22.1479 24.1829 21.6476 24.1829 21.3396C24.1829 20.8392 23.3362 20.3389 22.1301 20.3389C20.1927 20.3389 19.3587 21.4936 19.3587 22.969V23.9955C19.3587 25.4966 20.2054 26.6258 22.1428 26.6258C23.3489 26.6258 24.26 26.087 24.26 25.5736C24.26 25.253 24.0034 24.7911 23.5542 24.7911Z" fill="white"/>
<path d="M27.6338 20.3389C26.1068 20.3389 24.8497 21.5578 24.8497 22.9434V23.9954C24.8497 25.381 26.1326 26.6257 27.6338 26.6257C29.122 26.6257 30.4179 25.3683 30.4179 23.9954V22.9434C30.418 21.5192 29.1221 20.3389 27.6338 20.3389ZM28.7628 23.9955C28.7628 24.5987 28.2496 25.176 27.6339 25.176C27.0052 25.176 26.5047 24.5987 26.5047 23.9955V22.9435C26.5047 22.3662 27.0053 21.7887 27.6339 21.7887C28.2496 21.7887 28.7628 22.366 28.7628 22.9435V23.9955Z" fill="white"/>
<path d="M38.2567 20.3389C37.5127 20.3389 36.7684 20.7493 36.3192 21.6218C36.0499 20.8649 35.4467 20.3389 34.7156 20.3389C33.8688 20.3389 33.3042 20.8135 33.022 21.3141V20.9291C33.0219 20.6212 32.6881 20.4159 32.2905 20.4159C31.8029 20.4159 31.4694 20.6212 31.4694 20.9292V25.9843C31.4694 26.241 31.8029 26.5103 32.2905 26.5103C32.7395 26.5103 33.1244 26.241 33.1244 25.9843V22.9435C33.1244 22.1866 33.625 21.7887 34.1253 21.7887C34.6642 21.7887 35.1774 22.2249 35.1774 22.9435V25.9971C35.1774 26.3564 35.6136 26.5103 35.9985 26.5103C36.409 26.5103 36.8325 26.3563 36.8325 25.9971V22.9306C36.8325 22.1866 37.3328 21.7758 37.8461 21.7758C38.3592 21.7758 38.8854 22.1736 38.8854 22.9433V25.9841C38.8854 26.2408 39.2703 26.5101 39.7065 26.5101C40.1557 26.5101 40.5406 26.2408 40.5406 25.9841V22.9433C40.5406 21.2753 39.4243 20.3389 38.2567 20.3389Z" fill="white"/>
<path d="M17.7038 39.2891C17.2035 39.2891 16.8314 39.6867 16.8314 40.1614C16.8314 40.6235 17.2034 41.0339 17.7038 41.0339C18.1658 41.0339 18.5635 40.6235 18.5635 40.1614C18.5635 39.6867 18.1658 39.2891 17.7038 39.2891Z" fill="white"/>
<path d="M22.8358 34.7856C21.9762 34.7856 21.3604 35.2603 21.1166 35.7608V35.3759C21.1166 35.0679 20.7829 34.8626 20.3853 34.8626C19.8977 34.8626 19.5641 35.0679 19.5641 35.3759V40.431C19.5641 40.6877 19.8977 40.957 20.3853 40.957C20.8342 40.957 21.2192 40.6877 21.2192 40.431V37.3902C21.2192 36.6717 21.7454 36.2354 22.2714 36.2354C22.8873 36.2354 23.3877 36.8127 23.3877 37.3902V40.431C23.3877 40.7775 23.8239 40.957 24.2089 40.957C24.6193 40.957 25.0428 40.7774 25.0428 40.431V37.3902C25.0426 35.966 24.0163 34.7856 22.8358 34.7856Z" fill="white"/>
<path d="M30.7771 39.2763C30.3922 39.2763 30.0458 39.7639 29.199 39.7639C28.301 39.7639 27.6979 39.2763 27.6979 38.5321V38.3397H30.3024C30.8798 38.3397 31.4958 38.2884 31.4958 37.1978C31.4958 35.7735 30.264 34.7856 28.8526 34.7856C27.2873 34.7856 26.0427 35.966 26.0427 37.3518V38.4423C26.0427 40.0204 27.3259 41.0726 29.1477 41.0726C30.5206 41.0726 31.4058 40.4439 31.4058 40.0077C31.4058 39.7509 31.1621 39.2763 30.7771 39.2763ZM27.6978 37.0054C27.6978 36.3895 28.2367 36.0046 28.8141 36.0046C29.4298 36.0046 29.9432 36.4151 29.9432 37.0182C29.9432 37.3005 29.8405 37.3645 29.571 37.3645H27.6978V37.0054Z" fill="white"/>
<path d="M35.344 39.5586H34.8438C34.3049 39.5586 34.1253 39.379 34.1253 38.8786V36.0686H35.6392C35.9088 36.0686 36.0628 35.7736 36.0628 35.4657C36.0628 35.1707 35.9088 34.8626 35.6392 34.8626H34.1254V32.6559C34.1254 32.3479 33.7147 32.1426 33.2913 32.1426C32.9063 32.1426 32.4701 32.3479 32.4701 32.6559V38.8785C32.4701 40.3284 33.3041 40.957 34.8438 40.957H35.344C35.8189 40.957 36.0499 40.6105 36.0499 40.2514C36.0499 39.905 35.819 39.5586 35.344 39.5586Z" fill="white"/>
<path d="M12.5277 19.4917H6.08467C5.69158 19.4917 5.37311 19.8102 5.37311 20.2033V26.6463C5.37311 27.0393 5.69158 27.3579 6.08467 27.3579H12.5277C12.9208 27.3579 13.2393 27.0394 13.2393 26.6463V20.2033C13.2394 19.8102 12.9208 19.4917 12.5277 19.4917ZM11.8162 25.9348H6.79623V20.9148H11.8162V25.9348Z" fill="white"/>
<path d="M12.5277 33.7236H6.08467C5.69158 33.7236 5.37311 34.0421 5.37311 34.4352V40.8783C5.37311 41.2714 5.69158 41.5898 6.08467 41.5898H12.5277C12.9208 41.5898 13.2393 41.2714 13.2393 40.8783V34.4352C13.2394 34.0421 12.9208 33.7236 12.5277 33.7236ZM11.8162 40.1667H6.79623V35.1468H11.8162V40.1667Z" fill="white"/>
</g>
<defs>
<clipPath id="clip0_122_3007">
<rect width="48" height="48" fill="white"/>
</clipPath>
</defs>
</svg>
